<svg width="74" height="74" viewBox="0 0 74 74" fill="none" xmlns="http://www.w3.org/2000/svg">
<rect opacity="0.1" width="61.5299" height="61.5299" rx="30.7649" fill="#A4A4A4"/>
<g clip-path="url(#clip0_7023_2560)">
<g clip-path="url(#clip1_7023_2560)">
<g clip-path="url(#clip2_7023_2560)">
<mask id="mask0_7023_2560" style="mask-type:luminance" maskUnits="userSpaceOnUse" x="10" y="10" width="64" height="64">
<path d="M73.8328 10.0547H10.252V73.6356H73.8328V10.0547Z" fill="white"/>
</mask>
<g mask="url(#mask0_7023_2560)">
<path fill-rule="evenodd" clip-rule="evenodd" d="M39.9249 41.8341H44.1637C44.7489 41.8341 45.2233 41.3597 45.2233 40.7745C45.2233 40.1893 44.7489 39.7148 44.1637 39.7148H39.9249C39.3397 39.7148 38.8652 40.1893 38.8652 40.7745C38.8651 41.3597 39.3396 41.8341 39.9249 41.8341Z" fill="black"/>
<path fill-rule="evenodd" clip-rule="evenodd" d="M43.1029 42.8984H40.9835C40.3982 42.8984 39.9238 43.3728 39.9238 43.9581C39.9238 44.5432 40.3982 45.0176 40.9835 45.0176H43.1029C43.688 45.0176 44.1625 44.5432 44.1625 43.9581C44.1625 43.3728 43.688 42.8984 43.1029 42.8984Z" fill="black"/>
<path fill-rule="evenodd" clip-rule="evenodd" d="M64.6692 67.2578H62.5499C61.9646 67.2578 61.4902 67.7322 61.4902 68.3175C61.4902 68.9026 61.9646 69.377 62.5499 69.377H64.6692C65.2544 69.377 65.7288 68.9026 65.7288 68.3175C65.7288 67.7322 65.2544 67.2578 64.6692 67.2578Z" fill="#FAB908"/>
<path fill-rule="evenodd" clip-rule="evenodd" d="M21.9564 67.2578H19.837C19.2518 67.2578 18.7773 67.7322 18.7773 68.3175C18.7773 68.9026 19.2518 69.377 19.837 69.377H21.9564C22.5416 69.377 23.0161 68.9026 23.0161 68.3175C23.0161 67.7322 22.5416 67.2578 21.9564 67.2578Z" fill="#FAB908"/>
<path fill-rule="evenodd" clip-rule="evenodd" d="M38.8656 31.2471C38.8656 30.6619 38.3912 30.1875 37.806 30.1875H35.6866C35.1015 30.1875 34.627 30.6619 34.627 31.2471C34.627 31.8323 35.1015 32.3068 35.6866 32.3068C35.6866 32.8919 36.1611 33.3664 36.7462 33.3664C37.3315 33.3664 37.8059 32.8919 37.8059 32.3068C38.3912 32.3068 38.8656 31.8324 38.8656 31.2471Z" fill="black"/>
<path fill-rule="evenodd" clip-rule="evenodd" d="M46.2805 32.3068C46.2805 32.8919 46.7548 33.3664 47.3401 33.3664C47.9252 33.3664 48.3997 32.8919 48.3997 32.3068C48.9849 32.3068 49.4594 31.8323 49.4594 31.2471C49.4594 30.6619 48.9849 30.1875 48.3997 30.1875H46.2804C45.6951 30.1875 45.2207 30.6619 45.2207 31.2471C45.2207 31.8324 45.6951 32.3068 46.2805 32.3068Z" fill="black"/>
<path fill-rule="evenodd" clip-rule="evenodd" d="M40.9835 37.5998H43.1029C43.688 37.5998 44.1625 37.1253 44.1625 36.5401C44.1625 35.9549 43.688 35.4805 43.1029 35.4805H40.9835C40.3982 35.4805 39.9238 35.9549 39.9238 36.5401C39.9238 37.1253 40.3982 37.5998 40.9835 37.5998Z" fill="black"/>
<path d="M17.9829 59.101C15.2521 61.8296 13.4336 64.6282 13.4336 69.3873V71.5162C13.4336 72.6867 14.3825 73.6356 15.553 73.6356H68.537C69.7075 73.6356 70.6564 72.6867 70.6564 71.5162V69.3873C70.6564 64.624 68.8381 61.8296 66.1072 59.101C63.1252 56.1201 53.6611 53.2832 51.3193 52.6156C50.4015 50.2256 50.0743 47.6494 50.3657 45.1056L52.9544 42.839C54.1031 41.8326 54.7616 40.3796 54.7612 38.8525V37.4909C57.2264 36.9911 58.9983 34.8238 58.9983 32.3085C58.9983 29.7932 57.2264 27.626 54.7612 27.1262L55.6672 23.5009L59.5043 21.5819C61.1229 20.7732 62.1542 19.1281 62.1764 17.3189C62.1988 15.5096 61.2084 13.8395 59.6102 12.9911C57.0141 11.6517 51.8587 10.0547 42.045 10.0547C32.2312 10.0547 27.0759 11.6517 24.4808 12.991C22.8819 13.8388 21.891 15.5091 21.9133 17.3188C21.9357 19.1284 22.9675 20.7737 24.5867 21.5819L28.4238 23.5009L29.3288 27.1262C26.8636 27.626 25.0918 29.7932 25.0918 32.3085C25.0918 34.8238 26.8636 36.9911 29.3288 37.4909V38.8525C29.3292 40.3801 29.989 41.8333 31.1388 42.839L33.7276 45.1056C34.0189 47.6493 33.6917 50.2256 32.7739 52.6156C30.4288 53.2832 20.9648 56.1201 17.9829 59.101ZM25.1441 71.5162H15.553V69.3873C15.553 65.3393 17.0556 63.0239 19.4813 60.5994C20.8928 59.1879 24.4109 57.6672 27.7468 56.4667L24.004 62.2091C23.6192 62.7983 23.552 63.5402 23.8248 64.189C24.0974 64.8378 24.6745 65.309 25.3647 65.4464L26.5727 65.6858C25.7503 67.5278 25.2665 69.5027 25.1441 71.5162ZM30.4786 56.1507L32.7442 58.4164C30.6646 59.792 28.9114 61.6062 27.6079 63.7316L25.7758 63.3639L30.4786 56.1507ZM38.866 68.3371C37.8325 69.1168 37.1197 70.2475 36.8621 71.5162H31.5065C31.9121 67.293 34.8136 63.7262 38.866 62.4697V68.3371ZM47.228 71.5162C46.9709 70.2472 46.2579 69.1164 45.224 68.3371L45.2113 62.4559C49.2695 63.7153 52.1756 67.2868 52.5836 71.5162H47.228ZM54.7167 71.5162C54.3023 66.3569 50.7889 61.9694 45.845 60.4372C45.2071 60.2356 44.5111 60.354 43.9757 60.7551C43.4309 61.157 43.1079 61.7926 43.1046 62.4696V68.9093C43.1041 69.2882 43.3063 69.6385 43.6344 69.828C44.2814 70.2084 44.7717 70.807 45.0173 71.5161H39.0777C39.322 70.8077 39.8103 70.2094 40.4553 69.828C40.7835 69.6385 40.9856 69.2882 40.9851 68.9093V62.4696C40.9831 61.7911 40.6601 61.1536 40.114 60.7508C39.5792 60.3493 38.8834 60.231 38.2458 60.4329C33.3001 61.9653 29.786 66.3549 29.373 71.5161H27.2633C27.8058 63.7517 34.2625 57.7302 42.0458 57.7302C49.829 57.7302 56.2859 63.7517 56.8283 71.5161L54.7167 71.5162ZM34.9378 52.8764C35.5985 51.004 35.9399 49.0337 35.9476 47.0481L36.9702 47.9425C37.9352 48.7867 39.1735 49.2524 40.4555 49.2532H43.6345C44.9176 49.2531 46.1572 48.7874 47.123 47.9425L48.1456 47.0481C48.1534 49.0337 48.4947 51.004 49.1555 52.8764L42.0451 55.5489L34.9378 52.8764ZM64.6087 60.5994C67.0343 63.0239 68.5369 65.3393 68.5369 69.3873V71.5162H58.9457C58.8244 69.5037 58.3419 67.5295 57.5214 65.688L58.7295 65.4485C59.4202 65.311 59.9976 64.8395 60.2701 64.19C60.5427 63.5406 60.4749 62.7982 60.0891 62.2091L56.3505 56.4688C59.679 57.6673 63.1971 59.188 64.6086 60.6014L64.6087 60.5994ZM58.3153 63.3673L56.4822 63.7317C55.1789 61.6058 53.4257 59.7911 51.346 58.4153L53.6115 56.1507L58.3153 63.3673ZM50.5722 54.6058C50.9294 54.7054 51.349 54.8284 51.8005 54.9639L49.4279 57.3366C48.4404 56.8562 47.4083 56.4739 46.3463 56.1953L50.5722 54.6058ZM29.0215 21.4325L25.5245 19.6862C24.6051 19.2283 24.0258 18.2877 24.0304 17.2606C24.0181 16.261 24.5675 15.339 25.4525 14.8742C27.8452 13.6429 32.6572 12.1741 42.045 12.1741C51.4327 12.1741 56.25 13.6428 58.6385 14.8752C59.5225 15.3404 60.0714 16.2617 60.0595 17.2606C60.0628 18.2885 59.4812 19.2289 58.56 19.6851L55.0631 21.4315C53.855 20.2436 50.6283 18.5321 42.045 18.5321C33.4616 18.5321 30.2348 20.2435 29.0215 21.4325ZM53.6231 22.9563L52.8221 26.1619C49.2729 26.8487 45.6578 27.1329 42.0451 27.0096C38.4323 27.1326 34.8172 26.8483 31.2681 26.1619L30.4724 22.9829C31.0689 22.3735 33.5158 20.6515 42.0451 20.6515C50.691 20.6515 53.088 22.4212 53.6231 22.9563ZM32.5355 41.2442C31.8451 40.6411 31.4487 39.7691 31.4481 38.8525V36.5372C31.4481 35.9519 30.9737 35.4775 30.3885 35.4775C28.8404 35.4904 27.5109 34.3801 27.248 32.8546C26.9849 31.3291 27.8657 29.8375 29.3287 29.3314V31.2388C29.3287 31.8241 29.8032 32.2985 30.3884 32.2985C30.9736 32.2985 31.448 31.8241 31.448 31.2388V28.3693C34.9482 28.9573 38.4965 29.2116 42.0449 29.1291C45.5932 29.2116 49.1414 28.9573 52.6417 28.3693V31.2388C52.6417 31.8241 53.1162 32.2985 53.7013 32.2985C54.2866 32.2985 54.761 31.8241 54.761 31.2388V29.3314C56.2239 29.8375 57.1047 31.3291 56.8418 32.8546C56.5788 34.3801 55.2493 35.4906 53.7012 35.4775C53.1161 35.4775 52.6416 35.9519 52.6416 36.5372V38.8525C52.6415 39.7688 52.246 40.6407 51.5565 41.2442L45.7283 46.3466C45.1487 46.8541 44.4047 47.1337 43.6343 47.1338H40.4553C39.6849 47.1337 38.9409 46.8541 38.3613 46.3466L32.5355 41.2442ZM37.7459 56.1953C36.6839 56.4739 35.6516 56.8561 34.6644 57.3366L32.2896 54.9639C32.7411 54.8283 33.1608 54.7054 33.5179 54.6058L37.7459 56.1953Z" fill="black"/>
</g>
</g>
</g>
</g>
<defs>
<clipPath id="clip0_7023_2560">
<rect width="63.5809" height="63.5809" fill="white" transform="translate(10.2539 10.2539)"/>
</clipPath>
<clipPath id="clip1_7023_2560">
<rect width="63.5809" height="63.5809" fill="white" transform="translate(10.2539 10.2539)"/>
</clipPath>
<clipPath id="clip2_7023_2560">
<rect width="64.6064" height="64.6064" fill="white" transform="translate(9.74414 9.74219)"/>
</clipPath>
</defs>
</svg>
