<svg width="74" height="74" viewBox="0 0 74 74" fill="none" xmlns="http://www.w3.org/2000/svg">
<rect opacity="0.1" width="61.5299" height="61.5299" rx="30.7649" fill="#A4A4A4"/>
<g clip-path="url(#clip0_7023_2558)">
<g clip-path="url(#clip1_7023_2558)">
<path d="M49.9876 68.6696H67.8698C68.1332 68.6696 68.3859 68.565 68.5722 68.3786C68.7586 68.1923 68.8632 67.9396 68.8632 67.6762V43.8333C68.8632 43.5698 68.7586 43.3171 68.5722 43.1309C68.3859 42.9445 68.1332 42.8398 67.8698 42.8398H49.9876C49.7242 42.8398 49.4715 42.9445 49.2852 43.1309C49.0988 43.3171 48.9941 43.5698 48.9941 43.8333V67.6762C48.9941 67.9396 49.0988 68.1923 49.2852 68.3786C49.4715 68.565 49.7242 68.6696 49.9876 68.6696ZM50.981 62.7089H54.9548V66.6827H50.981V62.7089ZM66.8763 50.7875V54.7613H62.9025V50.7875H66.8763ZM60.9156 54.7613H56.9417V50.7875H60.9156V54.7613ZM60.9156 66.6827H56.9417V62.7089H60.9156V66.6827ZM60.9156 60.722H56.9417V56.7482H60.9156V60.722ZM54.9548 54.7613H50.981V50.7875H54.9548V54.7613ZM54.9548 56.7482V60.722H50.981V56.7482H54.9548ZM62.9025 66.6827V56.7482H66.8763V66.6827H62.9025ZM66.8763 44.8267V48.8005H50.981V44.8267H66.8763Z" fill="black"/>
<path d="M71.8427 38.8661H61.3409L58.133 32.1821C57.7274 31.3451 57.1249 30.6188 56.3774 30.0652C55.6298 29.5115 54.7594 29.1472 53.8404 29.0031C55.5336 27.7731 56.7951 26.0397 57.4448 24.0503C58.0946 22.0609 58.0995 19.9171 57.4589 17.9247C56.8182 15.9323 55.5648 14.1932 53.8773 12.9553C52.1898 11.7175 50.1545 11.0441 48.0616 11.0314C45.9689 11.0187 43.9255 11.6673 42.2231 12.8845C40.5206 14.1018 39.2461 15.8256 38.5813 17.81C37.9166 19.7945 37.8955 21.9381 38.521 23.9353C39.1466 25.9325 40.3869 27.681 42.065 28.9316H37.0719C37.0734 27.2127 36.6289 25.5229 35.7818 24.0272C34.9347 22.5315 33.7141 21.2812 32.2392 20.3985C30.7642 19.5158 29.0855 19.0308 27.3671 18.9911C25.6487 18.9514 23.9493 19.3582 22.4351 20.1717C20.921 20.9853 19.6439 22.1779 18.7286 23.6328C17.8132 25.0877 17.2911 26.7552 17.2131 28.4724C17.1352 30.1895 17.5041 31.8975 18.2838 33.4294C19.0635 34.9612 20.2274 36.2645 21.6615 37.212L19.5445 41.1858C19.1277 40.97 18.6657 40.856 18.1963 40.853H14.2225C13.4321 40.853 12.674 41.167 12.1151 41.7259C11.5562 42.2848 11.2422 43.043 11.2422 43.8333C11.2422 44.6238 11.5562 45.3818 12.1151 45.9408C12.674 46.4997 13.4321 46.8137 14.2225 46.8137H15.3153C13.9721 48.3057 13.2289 50.2423 13.2291 52.2499V59.7285C13.2366 61.5422 13.9491 63.2818 15.216 64.5797V68.6697C15.216 69.7236 15.6347 70.7343 16.3799 71.4795C17.1251 72.2248 18.1359 72.6435 19.1898 72.6435H23.1636C24.2176 72.6435 25.2283 72.2248 25.9735 71.4795C26.7188 70.7343 27.1374 69.7236 27.1374 68.6697V66.6828H45.0195V71.65C45.0195 71.9135 45.1242 72.1662 45.3105 72.3525C45.4969 72.5388 45.7495 72.6435 46.013 72.6435H71.8427C72.1062 72.6435 72.3588 72.5388 72.5452 72.3525C72.7315 72.1662 72.8361 71.9135 72.8361 71.65V39.8595C72.8361 39.5961 72.7315 39.3434 72.5452 39.1571C72.3588 38.9708 72.1062 38.8661 71.8427 38.8661ZM40.0523 20.984C40.0523 19.4121 40.5184 17.8755 41.3917 16.5686C42.265 15.2616 43.5063 14.2429 44.9585 13.6414C46.4107 13.0398 48.0087 12.8825 49.5503 13.1891C51.0921 13.4958 52.5082 14.2527 53.6197 15.3642C54.7312 16.4757 55.4881 17.8918 55.7948 19.4335C56.1014 20.9752 55.944 22.5732 55.3426 24.0254C54.741 25.4776 53.7223 26.7189 52.4154 27.5922C51.1084 28.4655 49.5718 28.9316 47.9999 28.9316C45.8928 28.9293 43.8727 28.0911 42.3827 26.6012C40.8928 25.1112 40.0546 23.0911 40.0523 20.984ZM52.9671 30.9185C53.6725 30.9202 54.3633 31.12 54.9606 31.4955C55.5578 31.8708 56.0375 32.4065 56.3449 33.0415L59.1375 38.8661H56.1134L53.8841 33.5164C53.8086 33.3354 53.6813 33.1809 53.5181 33.0722C53.3549 32.9634 53.1632 32.9054 52.9671 32.9054H36.2364C36.5179 32.2675 36.7307 31.6014 36.8713 30.9185H52.9671ZM32.0142 45.8202L39.5794 34.8923H42.1295L34.5644 45.8202H32.0142ZM26.3784 42.6055L28.2839 38.7946C29.6198 38.6378 30.91 38.2109 32.0759 37.5402C33.2417 36.8694 34.2591 35.9685 35.0661 34.8923H37.1623L29.5972 45.8202H28.3653C27.9867 45.8203 27.6143 45.7235 27.2836 45.5391C26.9529 45.3548 26.6748 45.0889 26.4756 44.7667C26.2766 44.4446 26.1631 44.077 26.1461 43.6988C26.1291 43.3205 26.2091 42.9441 26.3784 42.6055ZM19.1898 28.9316C19.1898 27.3597 19.6559 25.8231 20.5293 24.5161C21.4025 23.2091 22.6437 22.1905 24.0959 21.589C25.5483 20.9875 27.1462 20.8301 28.6879 21.1367C30.2295 21.4433 31.6458 22.2004 32.7572 23.3118C33.8687 24.4233 34.6257 25.8394 34.9323 27.3811C35.239 28.9228 35.0816 30.5208 34.48 31.973C33.8785 33.4252 32.8598 34.6665 31.5529 35.5398C30.2459 36.4131 28.7092 36.8792 27.1374 36.8792C25.0303 36.8769 23.0101 36.0387 21.5202 34.5488C20.0303 33.0588 19.1922 31.0387 19.1898 28.9316ZM13.2291 43.8333C13.2291 43.5699 13.3338 43.3172 13.5201 43.1309C13.7064 42.9446 13.9591 42.8399 14.2225 42.8399H18.1963C18.3394 42.8428 18.48 42.8766 18.6086 42.9393L17.6003 44.8268H14.2225C13.9591 44.8268 13.7064 44.7221 13.5201 44.5359C13.3338 44.3496 13.2291 44.0969 13.2291 43.8333ZM25.1505 68.6697C25.1505 69.1967 24.9412 69.702 24.5686 70.0746C24.1959 70.4473 23.6906 70.6566 23.1636 70.6566H19.1898C18.6628 70.6566 18.1575 70.4473 17.7848 70.0746C17.4122 69.702 17.2029 69.1967 17.2029 68.6697V65.9923C18.1327 66.4416 19.1506 66.6791 20.1833 66.6877H25.1505V68.6697ZM20.1833 64.6959C18.8659 64.6959 17.6024 64.1725 16.6709 63.241C15.7393 62.3094 15.216 61.046 15.216 59.7285V52.2499C15.2129 51.0995 15.532 49.9711 16.1373 48.9928C16.7425 48.0145 17.6096 47.2252 18.6404 46.7144C18.8247 46.6219 18.9759 46.4748 19.0736 46.2932L23.4209 38.1468C24.2646 38.4902 25.152 38.7146 26.0575 38.8135L24.6011 41.7173C24.2804 42.359 24.1291 43.0719 24.1613 43.7884C24.1936 44.5049 24.4085 45.2014 24.7857 45.8115C25.1628 46.4217 25.6897 46.9253 26.3161 47.2746C26.9426 47.6239 27.6481 47.8071 28.3653 47.8071H45.0195V51.7809H29.1243C28.967 51.7811 28.8119 51.8186 28.6719 51.8904C28.5319 51.9622 28.4109 52.0661 28.3189 52.1938C28.2271 52.3214 28.1667 52.4691 28.143 52.6246C28.1193 52.7802 28.1328 52.9391 28.1826 53.0883L30.1695 59.0491C30.2353 59.2468 30.3616 59.4188 30.5306 59.5408C30.6997 59.6627 30.9028 59.7284 31.1112 59.7285H45.0195V64.6959H20.1833ZM45.0195 53.7678V57.7416H31.8275L30.5033 53.7678H45.0195ZM45.0195 39.8595V45.8202H36.9815L44.5466 34.8923H52.3045L53.9606 38.8661H46.013C45.7495 38.8661 45.4969 38.9708 45.3105 39.1571C45.1242 39.3434 45.0195 39.5961 45.0195 39.8595ZM70.8492 70.6566H47.0064V40.853H70.8492V70.6566Z" fill="black"/>
<path d="M22.1691 51.7812C21.3832 51.7812 20.6149 52.0142 19.9614 52.4509C19.3079 52.8876 18.7986 53.5082 18.4978 54.2343C18.197 54.9604 18.1183 55.7595 18.2717 56.5302C18.425 57.3011 18.8035 58.0092 19.3592 58.5649C19.915 59.1206 20.623 59.4991 21.3939 59.6525C22.1647 59.8058 22.9637 59.7271 23.6898 59.4263C24.416 59.1256 25.0366 58.6163 25.4732 57.9627C25.9098 57.3093 26.1429 56.541 26.1429 55.7551C26.1429 54.7012 25.7242 53.6903 24.979 52.9451C24.2338 52.1999 23.223 51.7812 22.1691 51.7812ZM22.1691 57.742C21.7762 57.742 21.392 57.6254 21.0653 57.407C20.7386 57.1888 20.4838 56.8785 20.3335 56.5154C20.183 56.1523 20.1438 55.7528 20.2204 55.3674C20.2971 54.9819 20.4863 54.6279 20.7642 54.3501C21.042 54.0722 21.3961 53.883 21.7815 53.8063C22.1669 53.7296 22.5664 53.769 22.9294 53.9194C23.2926 54.0698 23.6029 54.3244 23.8212 54.6512C24.0395 54.9779 24.156 55.3621 24.156 55.7551C24.156 56.282 23.9467 56.7873 23.5741 57.16C23.2015 57.5325 22.6961 57.742 22.1691 57.742Z" fill="black"/>
<path d="M47.9999 18.0077C48.2634 18.0077 48.5161 18.1124 48.7024 18.2987C48.8887 18.485 48.9933 18.7377 48.9933 19.0011H50.9802C50.9778 18.3869 50.7855 17.7885 50.4299 17.2877C50.0742 16.787 49.5724 16.4083 48.9933 16.2036V15.0273H47.0064V16.2036C46.3442 16.4369 45.7858 16.897 45.4302 17.5026C45.0747 18.1081 44.9449 18.8199 45.0639 19.512C45.1829 20.204 45.5429 20.8316 46.0803 21.2836C46.6178 21.7356 47.2978 21.9829 47.9999 21.9815C48.1964 21.9815 48.3885 22.0398 48.5519 22.1489C48.7152 22.2581 48.8426 22.4133 48.9178 22.5948C48.9929 22.7763 49.0126 22.9761 48.9743 23.1688C48.936 23.3614 48.8414 23.5385 48.7024 23.6774C48.5634 23.8164 48.3864 23.911 48.1938 23.9494C48.0011 23.9876 47.8013 23.968 47.6198 23.8928C47.4383 23.8176 47.2831 23.6902 47.1739 23.5269C47.0648 23.3635 47.0064 23.1714 47.0064 22.9749H45.0195C45.0221 23.5892 45.2144 24.1876 45.57 24.6883C45.9257 25.1891 46.4274 25.5678 47.0064 25.7725V26.9487H48.9933V25.7725C49.6557 25.5392 50.2141 25.079 50.5696 24.4736C50.9252 23.868 51.055 23.1561 50.9359 22.4641C50.817 21.7721 50.4569 21.1445 49.9196 20.6925C49.3821 20.2405 48.7021 19.9933 47.9999 19.9946C47.7365 19.9946 47.4838 19.8899 47.2975 19.7036C47.1111 19.5173 47.0064 19.2646 47.0064 19.0011C47.0064 18.7377 47.1111 18.485 47.2975 18.2987C47.4838 18.1124 47.7365 18.0077 47.9999 18.0077Z" fill="#FAB908"/>
<path d="M28.132 34.898V33.7217C28.7943 33.4884 29.3527 33.0283 29.7083 32.4228C30.0638 31.8173 30.1936 31.1055 30.0746 30.4134C29.9555 29.7214 29.5955 29.0938 29.0581 28.6417C28.5208 28.1898 27.8408 27.9425 27.1385 27.9439C26.942 27.9439 26.7499 27.8856 26.5866 27.7764C26.4232 27.6673 26.296 27.5121 26.2207 27.3305C26.1455 27.149 26.1258 26.9492 26.1642 26.7565C26.2025 26.5639 26.2972 26.3869 26.436 26.2479C26.575 26.1089 26.752 26.0144 26.9447 25.976C27.1375 25.9377 27.3372 25.9574 27.5188 26.0325C27.7003 26.1077 27.8554 26.2351 27.9645 26.3984C28.0738 26.5618 28.132 26.7539 28.132 26.9504H30.1189C30.1163 26.3362 29.9241 25.7377 29.5684 25.237C29.2128 24.7362 28.7111 24.3576 28.132 24.1528V22.9766H26.1451V24.1528C25.4827 24.3861 24.9244 24.8463 24.5688 25.4518C24.2133 26.0574 24.0835 26.7692 24.2025 27.4612C24.3215 28.1533 24.6816 28.7809 25.219 29.2328C25.7563 29.6849 26.4363 29.9321 27.1385 29.9308C27.335 29.9308 27.5271 29.989 27.6905 30.0981C27.8539 30.2073 27.9812 30.3625 28.0564 30.544C28.1316 30.7255 28.1513 30.9253 28.1129 31.118C28.0746 31.3107 27.9799 31.4878 27.8411 31.6266C27.7021 31.7656 27.5251 31.8602 27.3323 31.8986C27.1396 31.9368 26.9399 31.9173 26.7584 31.842C26.5768 31.7668 26.4217 31.6395 26.3126 31.4761C26.2034 31.3127 26.1451 31.1207 26.1451 30.9242H24.1582C24.1608 31.5384 24.3529 32.1368 24.7087 32.6376C25.0643 33.1383 25.566 33.517 26.1451 33.7217V34.898H28.132Z" fill="#FAB908"/>
</g>
</g>
<defs>
<clipPath id="clip0_7023_2558">
<rect width="63.5809" height="63.5809" fill="white" transform="translate(10.2539 10.2539)"/>
</clipPath>
<clipPath id="clip1_7023_2558">
<rect width="63.5809" height="63.5809" fill="white" transform="translate(10.2539 10.2539)"/>
</clipPath>
</defs>
</svg>
