<svg width="74" height="74" viewBox="0 0 74 74" fill="none" xmlns="http://www.w3.org/2000/svg">
<rect opacity="0.1" width="61.5299" height="61.5299" rx="30.7649" fill="#A4A4A4"/>
<g clip-path="url(#clip0_7023_2559)">
<g clip-path="url(#clip1_7023_2559)">
<path d="M62.8102 21.243C61.8852 20.3762 60.665 19.8947 59.3976 19.8967H30.6815L29.9196 16.9103C29.1841 14.0233 26.5835 12.0031 23.6039 12.0039C23.0383 12.0039 22.5801 12.4622 22.5801 13.0278V24.6252C22.5808 25.859 22.9029 27.0715 23.5142 28.1428C25.1975 31.0798 28.3229 32.8933 31.7082 32.8977H44.1449L41.8723 36.928C41.6936 37.2449 41.6965 37.633 41.8799 37.9475C42.0638 38.2616 42.4003 38.4543 42.7644 38.4551H45.8914C48.8069 38.4511 51.5444 37.0502 53.2533 34.6875C53.283 34.6463 53.3094 34.603 53.3331 34.5578L53.7738 33.7036H63.5425C63.6097 33.7036 63.677 33.7021 63.7436 33.7001C65.7376 33.6492 67.497 32.3793 68.1736 30.5018C68.9107 28.607 68.4104 26.4535 66.9126 25.0783L62.8102 21.243ZM59.4352 23.8773H62.6291L63.885 25.051H59.4352C59.1112 25.051 58.8484 24.7883 58.8484 24.4641C58.8484 24.1405 59.1112 23.8773 59.4352 23.8773ZM45.891 36.4073H44.5166L47.6307 30.8839H52.9249L51.5493 33.5479C50.2222 35.3433 48.1231 36.4041 45.891 36.4073ZM66.256 29.7823C65.8719 30.8848 64.8416 31.6314 63.6742 31.6527C63.6306 31.6543 63.5865 31.6555 63.5425 31.6555H54.8309L55.0183 31.2922C55.1465 31.0642 55.1757 30.807 55.185 30.3728C55.1962 29.8729 55.1614 29.6289 55.046 29.4041C54.8701 29.0561 54.5132 28.8361 54.1235 28.8361H47.0323C46.6629 28.8361 46.322 29.0357 46.1406 29.3577L45.299 30.8499H31.7074C29.0563 30.8463 26.6096 29.4266 25.2912 27.1264C24.8562 26.3646 24.6271 25.5024 24.6267 24.6252V14.1703C26.2486 14.5512 27.5237 15.8023 27.9347 17.417L28.8932 21.1737C29.0086 21.6272 29.4173 21.9445 29.8851 21.9445H58.6677C57.4187 22.3246 56.6372 23.5613 56.8294 24.8527C57.0213 26.1434 58.1301 27.0988 59.4357 27.0988H65.9627C66.4876 27.894 66.5973 28.893 66.256 29.7823Z" fill="black"/>
<path d="M52.3481 23.6055H32.463C31.8977 23.6055 31.4395 24.0642 31.4395 24.6294C31.4395 25.195 31.8977 25.6533 32.463 25.6533H52.3481C52.9138 25.6533 53.372 25.195 53.372 24.6294C53.372 24.0642 52.9138 23.6055 52.3481 23.6055Z" fill="#FAB908"/>
<path d="M18.1821 16.5234C17.6165 16.5234 17.1582 16.9821 17.1582 17.5473C17.1582 18.113 17.6165 18.5712 18.1821 18.5712H19.6282C20.1939 18.5712 20.6522 18.113 20.6522 17.5473C20.6522 16.9821 20.1939 16.5234 19.6282 16.5234H18.1821Z" fill="black"/>
<path d="M20.533 21.7227H16.2856C15.7204 21.7227 15.2617 22.181 15.2617 22.7465C15.2617 23.3118 15.7204 23.7705 16.2856 23.7705H20.533C21.0987 23.7705 21.557 23.3118 21.557 22.7465C21.557 22.181 21.0987 21.7227 20.533 21.7227Z" fill="black"/>
<path d="M19.8983 26.9219H17.8188C17.2536 26.9219 16.7949 27.3802 16.7949 27.9457C16.7949 28.511 17.2536 28.9697 17.8188 28.9697H19.8983C20.4635 28.9697 20.9222 28.511 20.9222 27.9457C20.9222 27.3802 20.4635 26.9219 19.8983 26.9219Z" fill="black"/>
<path d="M30.1527 56.4961C28.1072 56.4953 26.4477 58.153 26.4473 60.1988C26.4464 62.2441 28.1045 63.9034 30.1502 63.9034C32.1957 63.9038 33.8544 62.2453 33.8544 60.2C33.8529 58.1562 32.1964 56.4994 30.1527 56.4961ZM30.1527 61.5996C29.3795 61.6004 28.7514 60.9742 28.751 60.2007C28.7506 59.4272 29.3771 58.8003 30.1502 58.7999C30.9238 58.7995 31.5507 59.4265 31.5507 60.2C31.5503 60.9723 30.9246 61.5984 30.1527 61.5996Z" fill="black"/>
<path d="M53.6117 56.4961C51.5658 56.4953 49.9067 58.153 49.9063 60.1988C49.9058 62.2445 51.5635 63.9034 53.6092 63.9034C55.6551 63.9038 57.3131 62.2453 57.3131 60.2C57.3115 58.1562 55.6555 56.4994 53.6117 56.4961ZM53.6117 61.5996C52.8381 61.6004 52.2104 60.9742 52.21 60.2007C52.2092 59.4272 52.8357 58.8003 53.6092 58.7999C54.3823 58.7995 55.0102 59.4265 55.0093 60.2C55.0093 60.9723 54.3836 61.5984 53.6117 61.5996Z" fill="black"/>
<path d="M60.2611 49.7696H59.1515C58.2975 49.7684 57.4715 50.0721 56.8213 50.6252L55.0263 45.3664C55.0219 45.3531 55.017 45.3395 55.0118 45.3267C54.5343 44.0953 53.3523 43.2825 52.0319 43.2769H48.3877C48.2844 41.5933 46.8896 40.2793 45.2027 40.2773H39.0825C37.3957 40.2793 36.0008 41.5933 35.8975 43.2769H31.7774C30.4571 43.2825 29.275 44.0953 28.7974 45.3259C28.7923 45.3391 28.7875 45.3531 28.7831 45.3664L26.978 50.6545C26.323 50.0833 25.4834 49.7688 24.6145 49.7696H23.5045C22.4162 49.7704 21.5344 50.6525 21.5332 51.7401V53.1646C21.5344 54.2521 22.4162 55.1342 23.5045 55.1351H23.6903C22.8596 55.9591 22.3929 57.0815 22.3933 58.2521V62.1393C22.3961 64.5681 24.3642 66.5357 26.7926 66.5386H26.9832V69.4364C26.9849 70.6354 27.9558 71.6072 29.1548 71.6084H32.2053C33.4043 71.6072 34.376 70.6358 34.3773 69.4364V66.5382H49.4321V69.4364C49.4333 70.6354 50.4051 71.6072 51.6037 71.6084H54.6545C55.8535 71.6072 56.8253 70.6354 56.8261 69.4364V66.5382H57.0168C59.4451 66.5357 61.4133 64.5677 61.416 62.1393V58.2512C61.4165 57.0812 60.9498 55.9591 60.1186 55.1347H60.2611C61.3492 55.1338 62.2308 54.2518 62.232 53.1642V51.7401C62.2308 50.6517 61.3492 49.7704 60.2611 49.7696ZM59.1515 52.0729H59.9283V52.8309H57.9662C58.1801 52.369 58.6424 52.0729 59.1515 52.0729ZM39.0825 42.5814H45.2027C45.6185 42.5823 45.9786 42.8714 46.0692 43.2773H38.2161C38.3066 42.8714 38.6667 42.5823 39.0825 42.5814ZM30.9547 46.1359C31.0917 45.8014 31.4165 45.5831 31.7774 45.581H52.0319C52.3928 45.5831 52.7177 45.8014 52.8547 46.1359L55.4882 53.8536H53.3823C53.3178 51.8567 51.681 50.2719 49.6832 50.2719C47.686 50.2719 46.0492 51.8567 45.9847 53.8536H28.3208L30.9547 46.1359ZM51.0753 53.8536H48.2908C48.3473 53.1261 48.9538 52.5649 49.6832 52.5649C50.4124 52.5649 51.0188 53.1261 51.0753 53.8536ZM23.837 52.0729H24.6141C25.1233 52.0729 25.586 52.369 25.7995 52.8309H23.837V52.0729ZM32.0735 69.305H29.287V66.5382H32.0735V69.305ZM54.5223 69.305H51.7359V66.5382H54.5223V69.305ZM59.1123 62.1393C59.1106 63.2958 58.1733 64.2336 57.0168 64.2344H26.7926C25.6356 64.2336 24.6983 63.2958 24.6971 62.1393V58.2512C24.6979 57.0943 25.6356 56.157 26.7926 56.1557H57.0168C58.1733 56.157 59.1106 57.0943 59.1123 58.2512V62.1393Z" fill="black"/>
</g>
</g>
<defs>
<clipPath id="clip0_7023_2559">
<rect width="63.5809" height="63.5809" fill="white" transform="translate(10.2559 10.2539)"/>
</clipPath>
<clipPath id="clip1_7023_2559">
<rect width="63.5809" height="63.5809" fill="white" transform="translate(10.2559 10.2539)"/>
</clipPath>
</defs>
</svg>
