<svg width="74" height="74" viewBox="0 0 74 74" fill="none" xmlns="http://www.w3.org/2000/svg">
<rect opacity="0.1" width="61.5299" height="61.5299" rx="30.7649" fill="#A4A4A4"/>
<g clip-path="url(#clip0_7023_2557)">
<g clip-path="url(#clip1_7023_2557)">
<path d="M18.799 55.2733H19.8971L20.218 67.261C20.2491 68.11 20.9394 68.7749 21.7897 68.7749H30.0618C30.9108 68.7749 31.601 68.11 31.6329 67.2497L31.8057 60.6052H33.7614C34.441 62.7011 36.3887 64.2303 38.7072 64.2303C41.5871 64.2303 43.9294 61.888 43.9294 59.0082C43.9294 56.1283 41.5877 53.7859 38.7072 53.7859C35.9649 53.7859 33.7348 55.9177 33.5263 58.6075H31.8575L31.9438 55.2727H33.5607C35.397 55.2727 36.891 53.7787 36.891 51.9425V50.119H52.6293C53.287 50.119 53.8869 49.7874 54.233 49.232C54.5818 48.6733 54.6156 47.9851 54.3207 47.38L52.9974 44.7485C52.6844 44.0935 52.0334 43.6877 51.2973 43.6877H36.8903V41.9199H48.8068C50.3102 42.5311 51.9444 42.8785 53.6564 42.9118L56.0207 47.6044C56.4598 48.502 57.2709 49.1556 58.2461 49.3995L65.0002 51.0908C65.6267 51.2456 66.0645 51.8056 66.0645 52.4514V57.2178C66.0645 57.989 65.4313 58.6155 64.6535 58.6155H63.196C62.992 55.921 60.7593 53.7846 58.0129 53.7846C55.2706 53.7846 53.0406 55.9164 52.832 58.6062H45.8274C45.276 58.6062 44.8289 59.0533 44.8289 59.6047C44.8289 60.1561 45.276 60.6031 45.8274 60.6031H53.0677C53.7473 62.6991 55.6952 64.2284 58.0136 64.2284C60.3294 64.2284 62.2746 62.7038 62.9568 60.6131H64.6541C66.5328 60.6131 68.0621 59.0898 68.0621 57.2178V52.4514C68.0621 50.8836 66.9998 49.527 65.4825 49.1523L58.7318 47.4617C58.3285 47.3607 57.9943 47.0929 57.811 46.7176L55.8333 42.7756C62.4572 41.8435 67.5752 36.1536 67.5752 29.2766C67.5752 21.7512 61.4528 15.6289 53.9274 15.6289C46.402 15.6289 40.2797 21.7512 40.2797 29.2766C40.2797 33.58 42.2866 37.4179 45.4082 39.921H36.6558C35.9888 37.5627 33.8411 35.8201 31.2728 35.8201H21.2104C18.0443 35.8201 15.4688 38.3957 15.4688 41.5612V51.9405C15.4681 53.7793 16.9621 55.2733 18.799 55.2733ZM38.7066 55.7842C40.4856 55.7842 41.9311 57.2311 41.9311 59.0088C41.9311 60.7872 40.485 62.2334 38.7066 62.2334C36.9289 62.2334 35.482 60.7872 35.482 59.0088C35.482 57.2304 36.9295 55.7842 38.7066 55.7842ZM58.0129 62.2334C56.2352 62.2334 54.7883 60.7872 54.7883 59.0088C54.7883 57.2304 56.2352 55.7842 58.0129 55.7842C59.792 55.7842 61.2376 57.2311 61.2376 59.0088C61.2382 60.7865 59.792 62.2334 58.0129 62.2334ZM42.2766 29.2793C42.2766 22.8554 47.5028 17.6292 53.9267 17.6292C60.3507 17.6292 65.5769 22.8554 65.5769 29.2793C65.5769 35.7032 60.3507 40.9294 53.9267 40.9294C47.5028 40.9294 42.2766 35.7032 42.2766 29.2793ZM51.2037 45.6288L52.4573 48.1226H36.8903V45.6819L51.2037 45.6288ZM17.4657 41.5639C17.4657 39.4991 19.1457 37.8198 21.2104 37.8198H31.2728C33.2692 37.8198 34.8934 39.4447 34.8934 41.4409V51.9431C34.8934 52.6779 34.2955 53.2758 33.5607 53.2758H31.9551V45.5578C31.9551 45.0063 31.5087 44.5592 30.9567 44.5592C30.4053 44.5592 29.9581 45.0063 29.9581 45.5578L29.6493 66.778H26.9255V56.2207C26.9255 55.6693 26.4785 55.2221 25.9271 55.2221C25.3751 55.2221 24.9286 55.6693 24.9286 56.2207V66.778H22.2043L21.8947 45.5578C21.8947 45.0063 21.4483 44.5592 20.8962 44.5592C20.3448 44.5592 19.8978 45.0063 19.8978 45.5578V53.2764H18.7996C18.0642 53.2764 17.4664 52.6785 17.4664 51.9438L17.4657 41.5639Z" fill="black"/>
<path d="M18.0527 23.4491C18.0866 23.6491 18.4925 24.1168 18.5696 24.1839C18.5344 24.4696 18.5144 26.2819 18.5144 26.2819C18.7921 29.8413 20.4463 32.7324 22.8996 33.9953C23.825 34.5047 25.0427 34.8369 26.1594 34.801C26.9493 34.7758 27.6973 34.6827 28.3629 34.4543C31.4129 33.4677 33.4948 30.3348 33.7997 26.2047C33.7997 26.2047 33.7778 24.4729 33.7412 24.1938C33.7871 24.1533 34.1664 23.7973 34.2329 23.6C34.2329 23.6 34.7683 22.0009 35.1403 20.7374C35.5847 19.4101 35.034 17.9294 33.714 17.1608C32.3143 16.5609 29.869 15.8036 26.1673 15.8454C21.666 15.8959 18.535 17.1561 18.4865 17.1847C17.2682 17.9167 16.7248 19.3723 17.1652 20.7228L18.0527 23.4491ZM31.8061 26.1304C31.6167 28.662 30.4642 31.7173 27.7318 32.5597C25.3947 33.2798 24.0775 32.3677 23.8529 32.2401C22.0081 31.2901 20.7259 28.9477 20.5087 26.2041V25.1771C20.8309 25.2508 21.1597 25.298 21.4932 25.298H30.8202C31.1564 25.298 31.4832 25.2508 31.8041 25.1784L31.8061 26.1304ZM19.4551 18.9351C21.3404 18.2104 23.5978 17.843 26.1673 17.843C29.5301 17.843 31.6992 18.4701 32.8132 18.9391C33.2125 19.1743 33.3944 19.6632 33.2364 20.1376C32.9541 21.0928 32.5866 22.2162 32.4239 22.7105C31.9802 23.0885 31.4049 23.3017 30.8202 23.3017H21.4932C21.0514 23.3017 20.0165 22.8161 19.9228 22.7384L19.0658 20.105C18.9223 19.6659 19.0824 19.1956 19.4551 18.9351Z" fill="black"/>
<path d="M50.8314 33.2935C51.1024 33.5645 51.4585 33.7007 51.8152 33.7007C52.1719 33.7007 52.5279 33.5645 52.7997 33.2935L59.5491 26.5447C59.9391 26.1547 59.9391 25.523 59.5491 25.1323C59.1592 24.7423 58.5274 24.7423 58.1368 25.1323L51.8152 31.4526L49.7106 29.3481C49.3207 28.9581 48.6889 28.9581 48.2983 29.3481C47.9084 29.7381 47.9084 30.3698 48.2983 30.7604L50.8314 33.2935Z" fill="#FAB908"/>
</g>
</g>
<defs>
<clipPath id="clip0_7023_2557">
<rect width="63.5809" height="63.5809" fill="white" transform="translate(10.2539 10.2539)"/>
</clipPath>
<clipPath id="clip1_7023_2557">
<rect width="63.5809" height="63.5809" fill="white" transform="translate(10.2539 10.2539)"/>
</clipPath>
</defs>
</svg>
