<svg width="27" height="27" viewBox="0 0 27 27" fill="none" xmlns="http://www.w3.org/2000/svg">
<path d="M7.875 19.4075L13.125 14.1575L18.375 19.4075L19.4075 18.375L14.1575 13.125L19.4075 7.875L18.375 6.8425L13.125 12.0925L7.875 6.8425L6.8425 7.875L12.0925 13.125L6.8425 18.375L7.875 19.4075ZM13.1294 26.25C11.3152 26.25 9.60896 25.9058 8.01062 25.2175C6.41326 24.5282 5.02347 23.5929 3.84125 22.4117C2.65903 21.2304 1.72326 19.8421 1.03396 18.2467C0.344653 16.6513 0 14.9455 0 13.1294C0 11.3133 0.344653 9.60701 1.03396 8.01062C1.72229 6.41326 2.65611 5.02347 3.83542 3.84125C5.01472 2.65903 6.40354 1.72326 8.00188 1.03396C9.60021 0.344653 11.3065 0 13.1206 0C14.9348 0 16.641 0.344653 18.2394 1.03396C19.8367 1.72229 21.2265 2.6566 22.4087 3.83688C23.591 5.01715 24.5267 6.40597 25.216 8.00333C25.9053 9.60069 26.25 11.3065 26.25 13.1206C26.25 14.9348 25.9058 16.641 25.2175 18.2394C24.5292 19.8377 23.5939 21.2275 22.4117 22.4087C21.2294 23.59 19.8411 24.5258 18.2467 25.216C16.6522 25.9063 14.9465 26.251 13.1294 26.25Z" fill="#FF3B3B"/>
</svg>
