<svg width="35" height="20" viewBox="0 0 35 20" fill="none" xmlns="http://www.w3.org/2000/svg">
<path d="M32.8125 6.56251H28.89L22.9688 0.641222C22.7664 0.43721 22.5254 0.275464 22.26 0.165385C21.9945 0.0553072 21.7098 -0.000907046 21.4225 1.10672e-05H6.05391C5.6946 0.000676319 5.34099 0.0898375 5.02433 0.259615C4.70766 0.429393 4.4377 0.67456 4.23828 0.973449L0.183203 7.04923C0.0640553 7.22929 0.000356641 7.44035 0 7.65626L0 14.2188C0 14.7989 0.230468 15.3553 0.640704 15.7656C1.05094 16.1758 1.60734 16.4063 2.1875 16.4063H4.51172C4.75267 17.3473 5.29999 18.1815 6.06737 18.7771C6.83476 19.3728 7.77856 19.6961 8.75 19.6961C9.72144 19.6961 10.6652 19.3728 11.4326 18.7771C12.2 18.1815 12.7473 17.3473 12.9883 16.4063H22.0117C22.2527 17.3473 22.8 18.1815 23.5674 18.7771C24.3348 19.3728 25.2786 19.6961 26.25 19.6961C27.2214 19.6961 28.1652 19.3728 28.9326 18.7771C29.7 18.1815 30.2473 17.3473 30.4883 16.4063H32.8125C33.3927 16.4063 33.9491 16.1758 34.3593 15.7656C34.7695 15.3553 35 14.7989 35 14.2188V8.75001C35 8.16985 34.7695 7.61345 34.3593 7.20322C33.9491 6.79298 33.3927 6.56251 32.8125 6.56251ZM6.05391 2.18751H21.4225L25.7975 6.56251H3.14453L6.05391 2.18751ZM8.75 17.5C8.31735 17.5 7.89442 17.3717 7.53469 17.1314C7.17496 16.891 6.89458 16.5493 6.72901 16.1496C6.56345 15.7499 6.52013 15.3101 6.60453 14.8858C6.68894 14.4614 6.89728 14.0716 7.2032 13.7657C7.50913 13.4598 7.89891 13.2514 8.32324 13.167C8.74757 13.0826 9.18741 13.126 9.58712 13.2915C9.98683 13.4571 10.3285 13.7375 10.5688 14.0972C10.8092 14.4569 10.9375 14.8799 10.9375 15.3125C10.9375 15.8927 10.707 16.4491 10.2968 16.8593C9.88656 17.2695 9.33016 17.5 8.75 17.5ZM26.25 17.5C25.8174 17.5 25.3944 17.3717 25.0347 17.1314C24.675 16.891 24.3946 16.5493 24.229 16.1496C24.0634 15.7499 24.0201 15.3101 24.1045 14.8858C24.1889 14.4614 24.3973 14.0716 24.7032 13.7657C25.0091 13.4598 25.3989 13.2514 25.8232 13.167C26.2476 13.0826 26.6874 13.126 27.0871 13.2915C27.4868 13.4571 27.8285 13.7375 28.0688 14.0972C28.3092 14.4569 28.4375 14.8799 28.4375 15.3125C28.4375 15.8927 28.207 16.4491 27.7968 16.8593C27.3866 17.2695 26.8302 17.5 26.25 17.5Z" fill="#369FFF"/>
</svg>
