<svg width="23" height="24" viewBox="0 0 23 24" fill="none" xmlns="http://www.w3.org/2000/svg">
<path d="M13.8638 0L17.2955 4.80867L19.5584 4.03708L21.6239 10.0792H22.6621V23.029H0V10.0792H0.550364V10.0684L1.24965 10.0749L13.8638 0ZM8.52202 10.0792H19.3437L18.2246 6.80617L16.5822 7.33172L8.52202 10.0792ZM6.84071 8.37093L15.162 5.53602L13.4311 3.10794L6.84071 8.37093ZM4.31658 12.2375H2.15829V14.3958C2.73071 14.3958 3.27968 14.1684 3.68444 13.7637C4.08919 13.3589 4.31658 12.8099 4.31658 12.2375ZM15.108 16.5541C15.108 16.0581 15.0103 15.5669 14.8205 15.1087C14.6307 14.6505 14.3525 14.2341 14.0018 13.8833C13.6511 13.5326 13.2347 13.2544 12.7764 13.0646C12.3182 12.8748 11.827 12.7771 11.331 12.7771C10.835 12.7771 10.3439 12.8748 9.88563 13.0646C9.42739 13.2544 9.01101 13.5326 8.66028 13.8833C8.30956 14.2341 8.03134 14.6505 7.84153 15.1087C7.65172 15.5669 7.55402 16.0581 7.55402 16.5541C7.55402 17.5558 7.95196 18.5165 8.66028 19.2248C9.36861 19.9332 10.3293 20.3311 11.331 20.3311C12.3328 20.3311 13.2935 19.9332 14.0018 19.2248C14.7101 18.5165 15.108 17.5558 15.108 16.5541ZM20.5038 20.8707V18.7124C19.9314 18.7124 19.3824 18.9398 18.9776 19.3445C18.5729 19.7493 18.3455 20.2983 18.3455 20.8707H20.5038ZM18.3455 12.2375C18.3455 12.8099 18.5729 13.3589 18.9776 13.7637C19.3824 14.1684 19.9314 14.3958 20.5038 14.3958V12.2375H18.3455ZM2.15829 20.8707H4.31658C4.31658 20.2983 4.08919 19.7493 3.68444 19.3445C3.27968 18.9398 2.73071 18.7124 2.15829 18.7124V20.8707Z" fill="#0164B5"/>
</svg>
