<svg width="36" height="37" viewBox="0 0 36 37" fill="none" xmlns="http://www.w3.org/2000/svg">
<path d="M14.1998 0.326759C6.77988 1.98558 1.14376 8.30861 0.137985 16.0953C-0.640066 22.1061 1.92181 28.7023 6.57113 32.664C13.8393 38.8699 24.0109 38.3625 30.7476 31.4736C34.0496 28.0974 35.7575 24.2138 35.9663 19.4715C36.0991 16.7588 35.8524 14.9439 34.9984 12.3874C33.1008 6.64979 28.3376 2.08316 22.6445 0.521915C20.4622 -0.083065 16.4011 -0.180645 14.1998 0.326759ZM27.3698 11.4896C28.015 12.0166 28.2806 12.6996 28.1099 13.3827C27.996 13.9096 17.0274 25.5994 16.2303 26.0482C16.0026 26.1848 15.4903 26.2824 15.0917 26.3019C14.2947 26.3019 14.3706 26.3605 10.0819 22.1256C8.27905 20.3302 7.82361 19.5496 8.05133 18.6128C8.20314 17.9493 8.98119 17.3248 9.62641 17.3248C10.3285 17.3248 10.784 17.6761 13.0992 20.0374L15.1487 22.1061L20.0257 16.954C22.7204 14.1242 25.1874 11.6458 25.491 11.4311C26.2311 10.9627 26.7435 10.9822 27.3698 11.4896Z" fill="#5D5D5D"/>
</svg>
