<svg width="40" height="40" viewBox="0 0 40 40" fill="none" xmlns="http://www.w3.org/2000/svg">
<path d="M15.9641 0.276791C8.37903 1.77538 2.44536 7.34708 0.582687 14.7248C-1.16477 21.5837 1.10116 29.3264 6.26672 34.2641C8.83989 36.7233 11.4707 38.2027 14.8888 39.1249C16.4442 39.5284 17.1355 39.6053 19.5935 39.6245C23.434 39.6437 25.6616 39.1442 28.8108 37.5687C30.9615 36.4928 32.4401 35.3977 34.2068 33.5532C37.4713 30.1334 39.1611 26.4637 39.6988 21.6414C40.7934 11.4778 33.6115 2.04436 23.3956 0.25758C21.3601 -0.088253 17.7692 -0.088253 15.9641 0.276791ZM23.8181 6.69384C29.771 8.53827 33.6115 13.6681 33.5923 19.7585C33.5731 22.1793 33.2275 23.6779 32.1905 25.8105C30.3854 29.4609 27.2746 32.0354 23.338 33.1306C21.4753 33.6493 18.1341 33.6109 16.137 33.0345C11.3171 31.6704 7.82214 27.9623 6.61237 22.9286C6.26672 21.4876 6.22831 20.8536 6.30512 19.0861C6.42034 16.7421 6.74679 15.4741 7.68773 13.6104C9.68482 9.63339 13.0645 7.09731 17.4235 6.30959C19.0366 6.0214 22.2819 6.21352 23.8181 6.69384Z" fill="#5D5D5D"/>
<path d="M25.3548 13.2444C25.1436 13.3596 23.2809 15.2041 21.1878 17.3367L17.4241 21.1984L15.6766 19.4693L13.9292 17.7401H12.8538C11.8745 17.7401 11.74 17.7978 11.1256 18.451C10.5687 19.0658 10.4727 19.3156 10.4727 20.0841C10.4919 20.6028 10.5879 21.1984 10.7223 21.429C10.8567 21.6595 12.1049 23.0236 13.5259 24.4454C17.7121 28.7106 17.4049 28.7875 23.8378 22.1591C26.4686 19.4693 28.7153 17.0677 28.8497 16.8371C29.445 15.742 28.9074 14.0129 27.736 13.3789C27.0255 12.9946 25.9501 12.937 25.3548 13.2444Z" fill="#5D5D5D"/>
</svg>
