<svg width="48" height="33" viewBox="0 0 48 33" fill="none" xmlns="http://www.w3.org/2000/svg">
<path d="M3.01322 0.244143C0.958516 0.974227 0.0175781 2.51125 0.0175781 5.18182V6.48828H23.637H47.2565V4.8552C47.2565 2.45361 46.6996 1.35848 45.0482 0.474696L44.28 0.0520158L24.0211 0.0135903C6.96899 -0.0248351 3.64691 0.0135903 3.01322 0.244143Z" fill="#5D5D5D"/>
<path d="M0.0576084 19.3981C0.115217 28.6779 0.153622 29.8883 0.441665 30.407C0.902532 31.2716 1.74746 32.0401 2.61158 32.4436C3.34129 32.7894 4.39744 32.8086 23.7347 32.8086H44.0897L45.0882 32.3475C45.7795 32.0209 46.2404 31.6174 46.6244 31.0602L47.1621 30.2341L47.2197 19.6094L47.2581 8.98481H23.6387H0L0.0576084 19.3981ZM15.4199 16.4201C15.8423 16.8044 15.8615 17.765 15.4391 18.2453C15.151 18.5527 14.7478 18.5912 10.8496 18.5912H6.56736L6.18331 18.0916C5.70324 17.4768 5.68403 17.0926 6.08729 16.5162C6.37533 16.0935 6.45214 16.0935 10.7152 16.0935C14.4981 16.0935 15.1126 16.1319 15.4199 16.4201ZM41.7469 20.8583C41.9197 21.012 42.0734 21.3962 42.0734 21.6844C42.0734 22.1263 41.5741 22.7411 39.5386 24.8353C36.2357 28.1975 36.4085 28.1783 33.6817 25.4501C31.531 23.2983 31.3774 22.9332 32.2031 22.1263C32.8944 21.4154 33.4705 21.6268 35.0067 23.1638L36.3125 24.4318L38.4056 22.3569C40.6331 20.1666 40.8444 20.0706 41.7469 20.8583ZM21.9104 23.7786C22.1216 23.99 22.2945 24.3742 22.2945 24.6432C22.2945 24.9122 22.1216 25.2964 21.9104 25.5078C21.5456 25.8728 21.2767 25.892 14.0373 25.892C6.7978 25.892 6.52896 25.8728 6.1641 25.5078C5.70324 25.0466 5.66483 24.4126 6.08729 23.817L6.37533 23.3944H13.9604C21.2767 23.3944 21.5456 23.4136 21.9104 23.7786Z" fill="#5D5D5D"/>
</svg>
