<svg width="35" height="41" viewBox="0 0 35 41" fill="none" xmlns="http://www.w3.org/2000/svg">
<path d="M19.6568 0.120197C24.3865 0.955254 28.6243 5.16849 29.5892 10.008C29.7595 10.8051 29.8919 12.4183 29.8919 13.576V15.6636H30.6865C31.8216 15.6826 32.9 16.233 33.7324 17.2009C34.9811 18.6433 35 18.871 35 28.645V37.3941L34.5459 38.343C34.0351 39.4438 33.5432 39.9372 32.3514 40.5635L31.5 41H17.4054C3.32973 41 3.31081 41 2.55405 40.5825C1.57027 40.0511 0.87027 39.2919 0.397297 38.2481C0.0189209 37.432 0 37.0335 0 28.4552C0 18.6622 0.0189209 18.5104 1.13514 17.144C1.81622 16.3089 3.02703 15.7016 4.16216 15.5877L5.01351 15.5118L5.12703 12.7979C5.25946 9.89415 5.52432 8.75544 6.43243 6.9335C8.04054 3.7451 10.8405 1.39176 14.1892 0.404877C15.4757 0.0253029 18.2946 -0.126526 19.6568 0.120197ZM15.4757 6.19333C14.5108 6.44006 13.073 7.44592 12.3541 8.41383C11.4459 9.60947 11.1622 10.8051 11.1622 13.3672V15.5687L17.5189 15.5118L23.8757 15.4549L23.8 12.9497C23.7432 10.6343 23.6865 10.3686 23.1757 9.34377C21.7568 6.51597 18.8622 5.32032 15.4757 6.19333ZM15.9297 22.401C14.5297 22.9894 13.6405 24.3368 13.6216 25.8741C13.6216 26.9369 14 27.7909 14.8324 28.607L15.5135 29.2713V31.4917C15.5135 33.7122 15.5135 33.7312 16.0622 34.2816C16.8378 35.0597 17.9162 35.0597 18.7676 34.2816L19.3919 33.7312L19.4108 31.4348C19.4297 29.2143 19.4486 29.1194 19.9216 28.7588C20.6027 28.2274 21.1892 26.8989 21.1892 25.8931C21.1703 23.1791 18.4459 21.3572 15.9297 22.401Z" fill="#5D5D5D"/>
</svg>
