<svg width="50" height="44" viewBox="0 0 50 44" fill="none" xmlns="http://www.w3.org/2000/svg">
<path d="M1.40268 0.289604C1.05703 0.443306 0.596161 0.846771 0.38493 1.1926C0.000873944 1.82662 0.000873941 2.11481 0.000873941 21.9616C0.000873941 44.1907 -0.0759373 42.8458 1.21065 43.6143C1.80594 43.9794 2.26681 43.9986 15.2671 43.9794C27.9602 43.9794 30.5909 43.8833 28.7091 43.5375C27.0768 43.2301 25.6942 42.1157 24.9837 40.5403C24.5997 39.7141 24.5805 39.3107 24.5805 32.0098C24.5805 26.5534 24.6381 24.1326 24.8109 23.5562C24.9645 23.0567 25.4062 22.4035 26.0399 21.7694C27.4417 20.3477 28.1906 20.1748 32.588 20.1748H36.1022V14.2188C36.1022 9.43486 36.0445 8.14761 35.8333 7.72493C35.6797 7.43674 33.9706 5.64996 32.0312 3.72868C29.2852 1.00047 28.3826 0.231964 27.8641 0.135902C27.5185 0.0590515 21.5464 0.00141144 14.6142 0.00141144C4.22549 0.0206261 1.90195 0.0590515 1.40268 0.289604ZM22.5642 6.24555C23.1211 6.80272 23.1787 7.30225 22.7178 7.85942C22.3721 8.2821 22.3337 8.2821 14.307 8.26289C6.3378 8.26289 6.24179 8.26289 5.91534 7.85942C5.43527 7.30225 5.49288 6.80272 6.04976 6.24555L6.51063 5.76523H14.307H22.1033L22.5642 6.24555ZM12.9244 14.6223C13.174 14.9681 13.2316 15.2371 13.1164 15.4484C12.7131 16.1785 9.25663 19.6752 8.69975 19.9058C7.85482 20.2708 7.41316 20.0595 6.10737 18.6762C4.85918 17.3697 4.64795 16.6012 5.41607 16.0633C6.08816 15.6021 6.54903 15.6982 7.33635 16.4667L8.06605 17.1776L9.67909 15.5829C11.1193 14.1804 11.3881 14.0075 11.9258 14.0651C12.3291 14.1036 12.6747 14.2957 12.9244 14.6223ZM29.9573 15.7559C30.4565 16.2554 30.4373 16.8702 29.9188 17.4274L29.5156 17.8693H23.0058H16.4961L16.0352 17.3889C15.4591 16.8318 15.4399 16.5244 15.9584 15.8711L16.3425 15.3716H22.9674C29.3236 15.3716 29.5924 15.3908 29.9573 15.7559ZM12.9436 22.7109C13.5197 23.537 13.3276 23.8636 10.9849 26.1884C8.16207 28.9742 8.14286 28.9742 6.29939 27.149C4.91679 25.7849 4.70556 25.2277 5.32005 24.5553C5.83853 23.9789 6.74106 24.1134 7.48997 24.8819L8.14286 25.5543L9.81351 23.9213C11.1577 22.5956 11.5802 22.2882 12.0602 22.2882C12.4635 22.2882 12.7515 22.4227 12.9436 22.7109ZM21.8729 24.1326C22.3529 24.7474 22.3721 25.1317 21.9689 25.708C21.7 26.1115 21.5464 26.1307 18.9925 26.1307C16.5729 26.1307 16.2849 26.0923 15.9392 25.7465C15.4207 25.2277 15.4591 24.6706 16.0352 24.1134C16.4769 23.6523 16.5921 23.6331 18.9925 23.6331C21.4504 23.6331 21.4888 23.6331 21.8729 24.1326ZM12.7515 30.9531C13.6541 31.664 13.462 32.1251 11.2921 34.3346C9.16061 36.5056 8.48851 36.9859 7.81642 36.7746C7.58598 36.7169 6.85628 36.1213 6.20338 35.4873C4.82078 34.1424 4.64795 33.5276 5.49288 32.8744C6.18418 32.3172 6.41461 32.3557 7.29794 33.1626L8.06605 33.8542L8.77656 33.2394C9.17982 32.8936 9.94793 32.1443 10.4664 31.5871C11.5418 30.4536 11.9642 30.3383 12.7515 30.9531ZM21.6424 32.5094C22.1609 32.9897 22.1993 33.5468 21.7769 34.1616C21.508 34.5651 21.3544 34.5843 18.8964 34.5843C16.5729 34.5843 16.2849 34.5459 15.9392 34.2001C15.728 33.9887 15.5551 33.6045 15.5551 33.3355C15.5551 33.0665 15.728 32.6823 15.9392 32.4709C16.2849 32.1251 16.5729 32.0867 18.762 32.0867C20.9895 32.0867 21.2392 32.1251 21.6424 32.5094Z" fill="#5D5D5D"/>
<path d="M28.0965 23.0568C26.8867 23.7869 26.8867 23.8253 26.8867 31.837C26.8867 39.9448 26.8867 39.9832 28.2117 40.8862L28.8838 41.3281L38.5236 41.2705L48.1634 41.2128L48.6819 40.7325C49.7189 39.7911 49.7381 39.599 49.7381 31.8562C49.7381 23.8445 49.7189 23.7485 48.3747 23.0184C47.7794 22.6918 47.0689 22.6726 38.2164 22.6726C29.1334 22.6726 28.6918 22.6918 28.0965 23.0568ZM46.4352 29.0512C46.5696 29.1857 46.6656 29.6084 46.6656 29.9926C46.6656 31.3567 46.9729 31.3183 38.2356 31.3183C32.4171 31.3183 30.3624 31.2607 30.1896 31.0877C29.8055 30.7035 29.9208 29.8005 30.4392 29.301L30.9001 28.8206H38.562C44.2461 28.8206 46.2624 28.8783 46.4352 29.0512ZM46.4736 36.2944C46.8192 36.9476 46.704 37.6009 46.1663 38.0235C45.7247 38.3694 45.379 38.427 43.5932 38.427C41.8073 38.427 41.4617 38.3694 41.02 38.0235C40.4439 37.5624 40.3671 36.8131 40.8472 36.2752C41.116 35.9678 41.4809 35.9293 43.7084 35.9293C46.0511 35.9293 46.2816 35.9678 46.4736 36.2944Z" fill="#5D5D5D"/>
</svg>
