<svg width="39" height="39" viewBox="0 0 39 39" fill="none" xmlns="http://www.w3.org/2000/svg">
<path d="M22.5337 0.123455C30.0996 1.29543 36.1101 6.79028 38.2224 14.4946C38.5681 15.7242 38.6257 16.5119 38.6449 19.2401C38.6449 22.1797 38.5873 22.6984 38.1264 24.4276C36.6478 29.9032 32.884 34.5527 27.9105 37.0119C25.3757 38.2607 23.4939 38.7411 20.5942 38.8755C14.4877 39.1637 9.37979 37.1272 5.27039 32.7851C2.06352 29.3652 0.277657 25.2345 0.028019 20.5658C-0.471252 11.19 5.75046 2.73639 14.7758 0.488499C16.6192 0.0466042 20.6902 -0.145523 22.5337 0.123455ZM15.0446 5.57987C10.4551 7.1361 7.22907 10.3638 5.59684 15.0133C5.11676 16.4351 5.07836 16.7617 5.07836 19.5283C5.07836 22.295 5.11676 22.6216 5.59684 24.0433C5.90408 24.8887 6.49937 26.1759 6.92183 26.9252C7.86277 28.5199 10.3783 31.0752 11.9338 31.9974C16.5232 34.7064 21.8616 34.8217 26.4127 32.3048C28.0833 31.3826 30.7333 28.7312 31.8087 26.9252C35.7068 20.2968 33.9402 11.7279 27.7377 7.46272C24.8957 5.48381 22.841 4.88821 19.1732 4.98428C16.9649 5.04192 16.3504 5.13798 15.0446 5.57987Z" fill="#5D5D5D"/>
<path d="M20.824 9.0363L21.4769 9.68954V14.3198C21.4769 17.9702 21.4193 19.0846 21.2081 19.488C20.824 20.2373 15.332 25.5977 14.7943 25.7706C13.4117 26.1933 12.0675 25.1174 12.0675 23.6188C12.0675 22.7542 12.1059 22.7158 14.6599 20.1221L17.2523 17.4899V13.5897V9.68954L17.9052 9.0363C18.4429 8.49835 18.7117 8.38307 19.3646 8.38307C20.0175 8.38307 20.2863 8.49835 20.824 9.0363Z" fill="#5D5D5D"/>
</svg>
