<svg width="31" height="44" viewBox="0 0 31 44" fill="none" xmlns="http://www.w3.org/2000/svg">
<path d="M5.2298 0.965393L7.61454 0.208584C9.8465 -0.499824 12.2335 0.646389 13.19 2.88602L15.0943 7.34767C15.9246 9.29029 15.464 11.5761 13.9561 12.9973L9.76457 16.953C10.0229 19.3202 10.823 21.65 12.1648 23.9425C13.4408 26.1598 15.1506 28.1009 17.1934 29.6515L22.233 27.9795C24.1417 27.3481 26.2209 28.0763 27.3922 29.7857L30.1201 33.7678C31.4841 35.7566 31.2383 38.4978 29.5489 40.1831L27.7376 41.9893C25.9352 43.7867 23.3623 44.4401 20.9797 43.7009C15.3585 41.9585 10.1897 36.7862 5.47336 28.1841C0.751112 19.5673 -0.915478 12.2574 0.473593 6.25425C1.05815 3.72863 2.86941 1.7156 5.23422 0.965393" fill="#5D5D5D"/>
</svg>
