<svg width="33" height="38" viewBox="0 0 33 38" fill="none" xmlns="http://www.w3.org/2000/svg">
<path d="M15.9385 0.460953C14.5988 1.32853 14.5791 1.40564 14.5791 9.48373C14.5791 15.8652 14.5397 16.7714 14.2639 17.0027C14.0472 17.1762 13.8699 17.1955 13.6334 17.0413C13.3379 16.8678 13.2788 16.1544 13.2 10.4863C13.1212 4.79882 13.0621 4.08549 12.7469 3.62278C11.5845 1.86835 9.08239 1.96475 8.01851 3.77702C7.84119 4.04693 7.74269 6.80389 7.68358 12.9347L7.58507 21.7069L7.11224 20.7429C4.90567 16.1544 4.70866 15.8074 4.07821 15.4411C2.32478 14.3807 0 15.6724 0 17.716C0 18.0245 0.354627 19.1813 0.768358 20.2802C1.18209 21.3791 2.30507 24.3675 3.25075 26.9123C5.12239 31.9636 5.98925 33.6216 7.58507 35.2025C8.78687 36.3785 10.9737 37.516 12.5893 37.8052C14.3033 38.1137 22.9128 38.0366 24.3904 37.7088C27.4442 36.9955 29.966 35.029 31.4239 32.1949C32.9212 29.2644 33 28.6089 33 19.8753C33 12.954 32.9606 12.2021 32.6454 11.643C32.2513 10.9297 31.4042 10.4284 30.5964 10.4284C29.8478 10.4284 28.8036 11.0839 28.5672 11.7009C28.449 11.9708 28.3701 13.6481 28.3701 15.4218C28.3701 18.8921 28.2913 19.2198 27.4442 18.8921L26.991 18.7379V12.0286C26.991 5.72424 26.9713 5.28081 26.597 4.70243C26.0651 3.83485 25.3361 3.42999 24.3116 3.42999C23.3069 3.42999 22.6173 3.83485 21.9278 4.83738C21.4746 5.45433 21.4746 5.57 21.4746 11.2382C21.4746 16.193 21.4352 17.0027 21.1791 17.0991C21.0215 17.1762 20.7457 17.1184 20.5881 16.9834C20.3319 16.7714 20.2925 15.6724 20.2925 9.52229C20.2925 1.61772 20.2728 1.48276 19.1301 0.538071C18.283 -0.155991 16.9236 -0.17527 15.9385 0.460953Z" fill="#5D5D5D"/>
</svg>
