<svg width="39" height="47" viewBox="0 0 39 47" fill="none" xmlns="http://www.w3.org/2000/svg">
<path d="M21.6324 0.990952C25.9743 3.65292 30.5285 5.32393 35.7773 6.21773C37.5527 6.50919 38.1895 6.70349 38.5369 7.03381L39 7.46128L38.9614 15.1557C38.9421 19.3721 38.8456 23.7828 38.7684 24.9292C38.1895 32.7208 34.2143 38.7248 26.0515 44.107C23.7165 45.642 21.2271 46.8467 20.1658 46.9827C17.522 47.2742 11.289 43.835 7.41019 39.9295C4.99802 37.5201 3.76299 35.8491 2.41217 33.2066C1.17714 30.7778 0.482433 28.5238 0.212269 25.9785C0.0964851 24.9292 0 20.4019 0 15.7775V7.44184L0.463135 7.01438C0.791191 6.70349 1.31222 6.52862 2.33498 6.3926C4.24542 6.12058 7.77684 5.22678 10.1504 4.39127C12.7749 3.47804 14.666 2.56482 16.9431 1.18526C18.1395 0.446899 19.0851 0 19.4325 0C19.7798 0 20.6482 0.388607 21.6324 0.990952ZM16.5379 10.2593C14.8783 11.017 13.8362 12.0274 13.0836 13.5624C12.5047 14.7477 12.4468 15.0197 12.4468 16.7101C12.4468 18.3034 12.524 18.7115 12.9678 19.6636C13.952 21.7815 15.9396 23.2776 18.3904 23.7245C21.5552 24.3074 24.855 22.3255 26.0515 19.1001C26.9198 16.7879 26.3216 13.7956 24.6235 11.9108C23.8709 11.0559 22.0955 10.0261 20.9184 9.73463C19.6833 9.42375 17.9273 9.63748 16.5379 10.2593ZM12.524 27.1637C10.189 28.2907 8.29787 30.7195 7.98911 33.0511C7.89263 33.7312 7.96982 34.1587 8.25928 34.8581C8.62593 35.6548 8.8189 35.8297 9.88026 36.3349C13.5661 38.0447 21.4201 38.3751 26.7462 37.0149C29.1004 36.4126 29.9881 35.9074 30.4899 34.8776C30.9337 33.9644 30.953 33.6146 30.6635 32.2545C30.2197 30.1949 28.1163 27.8826 25.8199 26.9305C24.8357 26.5419 24.4884 26.5225 19.2974 26.5419L13.7976 26.5614L12.524 27.1637Z" fill="#5D5D5D"/>
</svg>
