<svg width="33" height="34" viewBox="0 0 33 34" fill="none" xmlns="http://www.w3.org/2000/svg">
<path d="M13.5717 0.742468C11.9083 1.03169 9.59682 1.89936 8.19266 2.76703C6.61569 3.72369 3.69937 6.7049 2.77047 8.329C0.156585 12.9121 -0.102644 18.5408 2.03599 23.2796C4.67148 29.064 10.0289 32.6237 16.1423 32.6015C23.2279 32.6015 29.3198 27.7959 31.1992 20.7433C31.7392 18.7188 31.7392 14.2469 31.1776 12.4004C29.5358 6.83839 25.3017 2.50005 20.1388 1.07619C18.5186 0.631227 15.127 0.453243 13.5717 0.742468ZM19.4907 2.38881C23.3575 3.38997 26.8355 6.21545 28.6501 9.79736C29.147 10.8208 29.5358 11.6884 29.4926 11.7107C29.471 11.7552 27.1811 12.3336 24.4376 13.0011L19.4259 14.2024L18.713 13.624C16.9632 12.2001 14.8246 12.2001 13.4204 13.6018L12.7724 14.2469L7.82542 13.0233C5.08192 12.3336 2.81368 11.7552 2.77047 11.7107C2.51124 11.466 4.49866 8.06203 5.70839 6.72715C7.78222 4.41337 9.87765 3.14524 12.794 2.36656C14.3277 1.9661 17.9353 1.98835 19.4907 2.38881ZM7.41498 14.3359L12.2107 15.4928L12.0811 16.3382C11.8651 18.0736 13.2692 20.2761 14.8246 20.6321L15.4943 20.7878V26.0161V31.2666L14.2629 31.1108C11.3682 30.7549 8.45189 29.2643 6.20525 26.9727C4.49866 25.2374 3.41854 23.4576 2.61925 21.077C2.1224 19.5642 2.01439 18.919 2.01439 16.8499C1.99279 14.4694 2.1656 13.179 2.48964 13.179C2.57605 13.179 4.80109 13.6907 7.41498 14.3359ZM30.1623 14.2914C30.7239 16.9612 30.2271 20.1204 28.7581 23.1683C26.7059 27.4399 22.4718 30.5769 18.0217 31.1108L16.7904 31.2666V26.0161V20.7656L17.2873 20.6321C18.821 20.1426 20.0092 18.3406 20.0308 16.494V15.4706L22.5798 14.8476C23.9624 14.5139 26.0362 14.0022 27.1595 13.7352C29.9894 13.0011 29.903 12.9788 30.1623 14.2914ZM17.5465 14.3804C18.2594 14.8699 18.7994 16.1825 18.6266 17.0947C18.1514 19.7644 14.6302 20.1871 13.6365 17.6954C12.6211 15.2036 15.343 12.8898 17.5465 14.3804Z" fill="#369FFF" stroke="#369FFF" stroke-width="1.2"/>
</svg>
