<svg width="39" height="35" viewBox="0 0 39 35" fill="none" xmlns="http://www.w3.org/2000/svg">
<path d="M18.3295 4.69166C15.3559 6.92743 10.1466 10.7059 6.74822 13.0758C-0.495686 18.1734 -0.182678 17.6815 1.87423 20.5656C2.61204 21.5717 3.81935 23.338 4.57952 24.4559C5.5409 25.9315 6.07749 26.5352 6.41285 26.5352C6.99415 26.5352 7.17301 26.0433 6.81529 25.3726C6.68114 25.0819 5.51854 23.3827 4.24415 21.5717C2.96976 19.7608 1.91895 18.2404 1.91895 18.1734C1.91895 18.1287 2.54496 17.6591 3.32748 17.1226C4.9596 16.027 13.6791 9.85629 15.0429 8.8502L15.9596 8.15711L16.8092 9.09613C17.2787 9.61036 17.9047 10.3705 18.2177 10.773C18.8214 11.5778 19.3133 11.7343 19.7604 11.2872C20.0958 10.9518 19.8051 10.4376 18.2848 8.69369C17.6141 7.91117 17.0998 7.2628 17.1446 7.21808C19.5592 5.36239 23.8966 2.16524 24.0084 2.16524C24.0978 2.16524 24.4779 2.61239 24.858 3.17133L25.5511 4.17743L25.0368 5.22824C23.4271 8.35833 25.6629 11.8908 29.173 11.7791C30.6933 11.712 30.6486 11.712 31.3417 12.6063C31.7218 13.1205 31.9454 13.6571 31.923 14.0372C31.8559 14.8644 32.3925 15.2669 33.108 14.9539C33.8905 14.5961 33.8234 13.903 32.862 12.4498C31.3864 10.2364 31.3194 10.1917 29.7543 10.3482C28.6811 10.46 28.1893 10.4152 27.5185 10.1022C25.7523 9.25264 25.3275 7.2628 26.5348 5.45182C27.3173 4.26686 27.3173 4.31158 25.6852 1.98637C24.9698 1.00263 24.545 0.600195 24.2096 0.600195C23.9413 0.622553 21.3255 2.41117 18.3295 4.69166Z" fill="#369FFF" stroke="#369FFF" stroke-width="1.2"/>
<path d="M20.9236 13.4564C20.3423 14.1718 21.2143 15.2674 21.9968 14.7755C22.757 14.2836 22.4887 13.121 21.5944 13.121C21.3708 13.121 21.0801 13.2775 20.9236 13.4564Z" fill="#369FFF" stroke="#369FFF" stroke-width="1.2"/>
<path d="M8.15619 16.8998C7.55253 17.5258 7.50781 17.66 7.50781 19.4486C7.50781 20.4994 7.57489 21.5055 7.64196 21.7067C7.70903 21.8856 8.26798 22.1986 8.87163 22.3998C10.3696 22.9141 11.085 23.786 11.085 25.1945C11.085 26.5807 10.3472 27.5421 9.00578 27.8998C7.55253 28.2799 7.50781 28.3693 7.50781 30.6722C7.50781 32.4161 7.57489 32.8185 7.97732 33.3328L8.42448 33.9141H22.7111H37.02L37.3554 33.3775C37.6237 32.975 37.6907 32.349 37.646 30.5604L37.5789 28.2799L36.4611 27.9222C34.9407 27.408 34.2476 26.4019 34.4042 24.9039C34.5159 23.6519 35.142 22.8693 36.3269 22.4893C37.6684 22.0645 37.6907 21.9974 37.6907 19.4933C37.6907 15.9161 39.2781 16.2515 22.6663 16.2515H8.80456L8.15619 16.8998ZM36.3493 19.3592C36.3493 21.1031 36.3493 21.1254 35.7233 21.2372C33.6663 21.662 32.392 24.6356 33.331 26.8714C33.7334 27.8551 34.896 28.9283 35.7233 29.1072C36.3493 29.2413 36.3493 29.286 36.3493 30.8734V32.5055L35.522 32.662C34.3594 32.8409 10.9509 32.8185 9.85537 32.6173L8.96106 32.4608L8.89399 30.9405C8.82692 29.4649 8.84928 29.4425 9.45293 29.2189C11.4204 28.5035 12.4265 27.162 12.4265 25.2616C12.4265 23.2047 11.5546 21.8856 9.81066 21.2819C8.98342 20.9913 8.96106 20.9689 8.89399 19.8063C8.84928 19.158 8.87163 18.3978 8.96106 18.1072L9.07285 17.5929H22.7111H36.3493V19.3592Z" fill="#369FFF" stroke="#369FFF" stroke-width="1.2"/>
</svg>
