<svg width="36" height="27" viewBox="0 0 36 27" fill="none" xmlns="http://www.w3.org/2000/svg">
<path d="M3.50056 0.709038C2.19679 0.898294 1.46079 1.42401 0.97713 2.5175C0.577587 3.4007 0.577587 3.94744 0.619644 13.6416C0.68273 23.5671 0.703758 23.8405 1.12433 24.4083C1.35564 24.7237 1.81827 25.1863 2.1337 25.4176C2.70148 25.8592 2.95382 25.8592 16.8748 25.9223C26.3166 25.9644 31.4686 25.9223 32.2677 25.7541C33.1509 25.6069 33.6556 25.3756 34.1182 24.913L34.7491 24.2821L34.8121 13.4944C34.8542 3.1063 34.8542 2.70675 34.4547 2.05487C34.2233 1.67635 33.7187 1.21372 33.3401 1.00344C32.6883 0.645952 31.6999 0.624924 18.557 0.603895C10.8185 0.582867 4.02628 0.624924 3.50056 0.709038ZM33.0668 2.5175C33.5504 2.98013 33.5925 3.16938 33.5925 5.14607V7.24893H17.758H1.92342L1.94445 5.81899C1.9865 3.37967 2.02856 3.1063 2.49119 2.53853L2.91176 1.99178H17.7369H32.5621L33.0668 2.5175ZM33.5925 16.0179C33.5925 23.4199 33.5925 23.5251 33.1299 24.0087L32.6883 24.4924H17.9052H3.12205L2.53325 23.9877L1.94445 23.483L1.90239 16.1861C1.86033 12.1696 1.90239 8.80505 1.96547 8.69991C2.02856 8.59476 8.77874 8.51065 17.8421 8.51065H33.5925V16.0179Z" fill="#369FFF" stroke="#369FFF" stroke-width="1.2"/>
<path d="M26.1201 13.7073C23.7649 14.3592 23.3233 17.7448 25.4472 19.0275C27.9496 20.5626 30.9146 17.5976 29.3795 15.0952C28.7066 13.9596 27.3187 13.3708 26.1201 13.7073ZM28.0757 15.5158C28.7066 16.0835 28.6856 17.0088 28.0127 17.6607C27.0033 18.6911 25.3841 17.9971 25.3841 16.5251C25.3841 14.969 26.8561 14.4223 28.0757 15.5158Z" fill="#369FFF" stroke="#369FFF" stroke-width="1.2"/>
</svg>
