<svg width="34" height="34" viewBox="0 0 34 34" fill="none" xmlns="http://www.w3.org/2000/svg">
<path d="M3.82107 1.22516C2.45725 1.94061 1.31701 3.28207 0.892213 4.69061C0.668636 5.40605 0.601562 8.35727 0.601562 16.8085C0.601562 27.965 0.62392 27.9874 1.11579 29.1052C1.71945 30.4467 2.72555 31.5422 3.95522 32.1906C4.82717 32.6825 5.05075 32.6825 16.4532 32.7496C29.376 32.8166 29.5772 32.7943 31.254 31.3634C31.7682 30.9162 32.4166 30.0666 32.7073 29.3959L33.2438 28.2109V16.9203C33.2438 8.40199 33.1768 5.40605 32.9532 4.69061C32.5284 3.28207 31.3881 1.94061 30.0243 1.22516L28.8394 0.599144H16.9227H5.00603L3.82107 1.22516ZM28.7499 2.2089C29.9573 2.58898 31.1869 3.84101 31.5447 5.09305C31.7459 5.83085 31.7906 8.93857 31.7459 17.278L31.6788 28.4569L31.0751 29.3735C30.7174 29.9101 30.0914 30.4691 29.5101 30.7597C28.5487 31.2292 28.2804 31.2292 16.9898 31.2292C4.24587 31.2292 4.51416 31.2516 3.21742 29.7983C2.83733 29.3512 2.41254 28.591 2.27839 28.1215C2.12189 27.5178 2.05481 23.5158 2.09953 16.2048C2.1666 5.56256 2.18896 5.16012 2.63612 4.31053C3.1727 3.28207 3.84343 2.72313 5.09547 2.27597C6.28042 1.85118 27.3414 1.7841 28.7499 2.2089Z" fill="#949494" stroke="#949494" stroke-width="1.2"/>
<path d="M8.40791 7.0142C8.13962 7.05891 7.69246 7.34956 7.40181 7.66257C6.90994 8.19915 6.86523 8.44509 6.79816 11.0609C6.70872 14.191 6.95466 15.063 8.00547 15.5548C8.31848 15.689 9.81645 15.8008 11.4709 15.8008H14.3998L15.0482 15.1524L15.6965 14.504V11.441C15.6965 9.69712 15.5847 8.19915 15.4506 7.93086C15.0258 7.14834 13.8856 6.85769 11.2921 6.88005C9.97295 6.90241 8.65385 6.96948 8.40791 7.0142ZM14.3104 11.1951C14.3551 12.9166 14.288 13.9451 14.1091 14.1463C13.9303 14.3699 13.2148 14.437 11.1579 14.3922L8.43027 14.3475L8.3632 11.374L8.29612 8.40037L11.2697 8.46745L14.2433 8.53452L14.3104 11.1951Z" fill="#949494" stroke="#949494" stroke-width="1.2"/>
<path d="M19.3182 7.19306C18.1556 7.70728 17.8874 8.66867 17.9768 11.8211L18.0439 14.504L18.7817 15.1524C19.4971 15.8008 19.5195 15.8008 22.4036 15.8008C23.991 15.8008 25.5337 15.7114 25.8467 15.5772C26.8528 15.1971 27.0987 14.3252 27.0987 11.2398C27.0987 8.44509 27.0987 8.42273 26.4504 7.70728L25.802 6.96948L22.9178 6.90241C20.7715 6.85769 19.8772 6.92476 19.3182 7.19306ZM25.4219 11.441V14.3475H22.5154H19.6089L19.5418 11.687C19.5195 10.2113 19.5418 8.86989 19.5865 8.71338C19.676 8.46745 20.3467 8.42273 22.5601 8.46745L25.4219 8.53452V11.441Z" fill="#949494" stroke="#949494" stroke-width="1.2"/>
<path d="M7.37386 18.709L6.70312 19.3798L6.79256 22.5322C6.85963 25.6623 6.85963 25.6846 7.48565 26.2212C8.0893 26.7355 8.24581 26.7578 11.3088 26.7578C14.4613 26.7578 14.5283 26.7578 15.1096 26.1765C15.6909 25.5952 15.6909 25.5281 15.6909 22.3981V19.2009L14.9978 18.6196C14.3271 18.0607 14.2153 18.0383 11.1747 18.0383H8.04459L7.37386 18.709ZM14.2377 22.3981V25.3046H11.3312H8.42467L8.3576 22.644C8.33524 21.1684 8.3576 19.8269 8.40231 19.6704C8.49174 19.4245 9.16247 19.3798 11.3759 19.4245L14.2377 19.4916V22.3981Z" fill="#949494" stroke="#949494" stroke-width="1.2"/>
</svg>
