<svg width="34" height="34" viewBox="0 0 34 34" fill="none" xmlns="http://www.w3.org/2000/svg">
<path d="M13.8647 0.892696C5.56994 2.39067 -0.310141 10.35 0.718314 18.6C1.23254 22.6468 2.61872 25.4638 5.41344 28.2586C9.05775 31.9252 13.7752 33.5797 18.761 32.976C24.5516 32.2606 29.1126 29.1081 31.572 24.1224C32.824 21.596 33.2264 19.8968 33.2264 16.9679C33.2488 13.9943 32.8687 12.4069 31.4378 9.52278C30.6106 7.82359 30.074 7.08579 28.5984 5.61018C24.4622 1.49636 19.4317 -0.1134 13.8647 0.892696ZM20.5049 2.45774C24.5069 3.39676 28.3972 6.48213 30.1858 10.1488C31.4378 12.6976 31.8179 14.2626 31.8179 16.9679C31.7955 19.472 31.4378 21.1712 30.4541 23.3175C26.9663 30.7626 17.3972 33.8256 9.81791 29.8907C7.62685 28.7728 4.89921 26.0451 3.78132 23.8541C1.05368 18.5777 1.56791 12.1386 5.12279 7.75652C8.9236 3.03904 14.6248 1.07156 20.5049 2.45774Z" fill="#949494" stroke="#949494" stroke-width="1.2"/>
<path d="M16.3045 7.82336C16.1033 8.04694 16.1033 16.677 16.3268 16.9677C16.774 17.616 22.4081 22.4453 22.6988 22.4453C22.8777 22.4453 23.1459 22.3112 23.2801 22.1323C23.6155 21.7299 23.3024 21.3721 20.0606 18.5327L17.6012 16.364L17.4894 12.0713C17.3777 7.97987 17.3553 7.801 16.9305 7.73393C16.6622 7.68921 16.3939 7.73393 16.3045 7.82336Z" fill="#949494" stroke="#949494" stroke-width="1.2"/>
</svg>
