<svg width="30" height="28" viewBox="0 0 30 28" fill="none" xmlns="http://www.w3.org/2000/svg">
<path d="M5.9227 0.749205C3.70929 1.21872 1.74181 2.94026 1.004 5.06425C0.646278 6.0927 0.601562 7.07644 0.601562 13.9403C0.601562 20.7594 0.646278 21.7878 1.004 22.7939C1.51823 24.2695 2.61376 25.5216 4.08937 26.3488L5.29669 27.0195H9.65644C13.8597 27.0195 14.0609 26.9972 15.1117 26.4606C16.4755 25.7675 17.7947 24.2919 18.2642 22.9281C18.6666 21.7878 18.9796 18.1435 18.7337 17.2268C18.5772 16.5785 17.9959 16.2878 17.5711 16.6455C17.3475 16.8244 17.2581 17.5175 17.2581 19.172C17.2581 22.1232 17.0121 22.9281 15.7377 24.2025C14.2845 25.6557 13.4573 25.8569 9.18693 25.7451C6.16864 25.6781 5.63205 25.611 4.80482 25.1862C3.68693 24.5825 2.56904 23.2634 2.27839 22.2126C2.14425 21.7878 2.05481 18.0988 2.05481 13.9179C2.05481 5.57847 2.12189 5.0866 3.46335 3.67807C4.78246 2.29189 5.52026 2.09067 9.61173 2.09067C12.4064 2.09067 13.4349 2.1801 14.0833 2.44839C16.0508 3.25327 17.2581 5.26546 17.2581 7.72482C17.2581 9.49108 17.3922 9.91587 17.9512 9.91587C18.7113 9.91587 18.9125 8.9992 18.6442 7.00937C18.2195 4.03579 16.9451 2.1801 14.5975 1.12929C13.7255 0.749205 13.0325 0.659775 10.2154 0.615059C8.38205 0.570343 6.43693 0.637417 5.9227 0.749205Z" fill="#949494" stroke="#949494" stroke-width="1.2"/>
<path d="M23.448 8.06001C23.068 8.44009 23.4257 9.02139 25.0131 10.6311L26.757 12.375H18.2163C9.27324 12.375 8.98259 12.3974 9.34031 13.3588C9.47446 13.6718 10.3464 13.7165 18.0598 13.7165C22.7773 13.7165 26.6452 13.7836 26.6452 13.8954C26.6452 13.9848 25.885 14.812 24.9684 15.7287C23.2468 17.4279 22.9115 18.2104 23.8281 18.3669C24.1188 18.434 25.0131 17.6962 26.7793 15.9299C28.1879 14.5214 29.3281 13.2917 29.3281 13.1576C29.3281 12.7775 24.32 7.9035 23.9399 7.9035C23.7387 7.9035 23.5151 7.97058 23.448 8.06001Z" fill="#949494" stroke="#949494" stroke-width="1.2"/>
</svg>
