<svg width="32" height="36" viewBox="0 0 32 36" fill="none" xmlns="http://www.w3.org/2000/svg">
<path d="M1.67473 1.04751C1.27229 1.29344 0.869855 1.76295 0.780424 2.09832C0.690993 2.43369 0.601562 9.5658 0.601562 17.9276C0.601562 32.3036 0.62392 33.1756 1.004 33.7792C1.83124 35.0312 1.80888 35.0312 15.5142 35.0312C23.4959 35.0312 28.4146 34.9418 28.9288 34.8077C30.5162 34.3605 30.4491 34.8971 30.4491 21.8849V10.1695L26.0894 5.51905C23.6747 2.97027 21.5508 0.801575 21.3719 0.734501C21.1707 0.667427 16.8333 0.600353 11.7134 0.600353C2.83734 0.600353 2.34547 0.622711 1.67473 1.04751ZM19.941 6.12271L20.0528 10.2142L20.6788 10.8178L21.2825 11.4439L25.1951 11.5109L29.1077 11.6004V22.4215C29.1077 32.5272 29.0853 33.265 28.7276 33.4215C28.504 33.5109 22.5569 33.578 15.5142 33.578H2.68083L2.25603 33.0414C1.8536 32.5495 1.83124 31.9682 1.83124 17.7264C1.83124 2.36662 1.83124 2.38897 2.72555 2.09832C2.90441 2.05361 6.83937 2.00889 11.4451 2.03125L19.8292 2.05361L19.941 6.12271ZM27.8109 9.38694L28.504 10.2589L25.1727 10.1695C23.3394 10.1471 21.7073 10.013 21.5731 9.92352C21.3495 9.78938 21.2825 8.78328 21.2825 6.12271V2.50076L24.189 5.51905C25.7987 7.17352 27.4085 8.91743 27.8109 9.38694Z" fill="#949494" stroke="#949494" stroke-width="1.2"/>
<path d="M22.3108 16.8329C21.9978 17.1236 21.9531 18.0179 21.9531 23.0484C21.9531 27.2963 22.0202 28.9732 22.2214 29.1744C22.6015 29.5545 23.2275 29.5098 23.384 29.085C23.4511 28.8837 23.5182 26.089 23.5182 22.8472C23.5182 17.2354 23.4958 16.9224 23.0934 16.6988C22.758 16.5423 22.5791 16.5646 22.3108 16.8329Z" fill="#949494" stroke="#949494" stroke-width="1.2"/>
<path d="M15.073 20.3194C14.8718 20.5206 14.8047 21.8398 14.8047 24.9028C14.8047 28.9272 14.827 29.2178 15.2295 29.4414C15.5649 29.5979 15.7437 29.5755 16.012 29.3072C16.3027 29.0166 16.3697 28.2788 16.3697 24.7686C16.3697 20.6324 16.2803 20.0511 15.5872 20.0511C15.4531 20.0511 15.2295 20.1629 15.073 20.3194Z" fill="#949494" stroke="#949494" stroke-width="1.2"/>
<path d="M7.89432 24.8357C7.71546 25.0369 7.64839 25.8641 7.6931 27.0938C7.73782 28.7035 7.82725 29.106 8.16261 29.3072C8.8557 29.732 9.21343 28.9271 9.21343 27.0267C9.21343 25.3275 8.96749 24.5227 8.45326 24.5227C8.2744 24.5227 8.02847 24.6568 7.89432 24.8357Z" fill="#949494" stroke="#949494" stroke-width="1.2"/>
</svg>
