<svg width="32" height="32" viewBox="0 0 32 32" fill="none" xmlns="http://www.w3.org/2000/svg">
<path d="M12.9449 1.0295C12.4725 1.39918 12.4109 1.58402 12.4109 2.8163V4.19235L11.2608 4.64418L10.1107 5.09602L9.28914 4.4388C8.65246 3.92535 8.26224 3.78159 7.56395 3.78159C6.74243 3.78159 6.57812 3.88428 5.3253 5.11656C3.1072 7.29359 2.88128 8.09457 4.17518 9.49115L4.95562 10.3537L4.46271 11.4628L3.9698 12.5719L2.94289 12.4486C2.01868 12.3254 1.85438 12.387 1.25878 12.921L0.601562 13.4961V16.0017C0.601562 18.4868 0.601562 18.5073 1.17663 19.0002C1.649 19.3905 1.97761 19.4932 2.94289 19.4932H4.1341L4.48325 20.4174L4.85293 21.3416L4.15464 22.2042C3.64119 22.8614 3.47688 23.2722 3.47688 23.9088C3.47688 24.6687 3.62065 24.9357 4.77078 26.2296C6.63974 28.3245 7.54341 28.5504 9.18645 27.2565L9.96689 26.6404L11.1992 27.0922L12.4109 27.5441V28.6326C12.4109 29.413 12.5341 29.8649 12.8422 30.2551C13.253 30.7891 13.294 30.7891 15.7997 30.7891C18.3053 30.7891 18.3464 30.7891 18.7572 30.2551C19.0652 29.8649 19.1885 29.413 19.1885 28.6326V27.5646L20.318 27.1333L21.4271 26.702L22.4951 27.4003C23.0701 27.7905 23.6657 28.1191 23.8095 28.1191C24.4873 28.1191 25.3293 27.6057 26.4384 26.5172C28.4716 24.5455 28.6565 23.7856 27.4858 22.2658L26.7464 21.3005L27.0956 20.3968L27.4447 19.4932H28.5332C29.4164 19.4932 29.7655 19.3905 30.2174 19.0002C30.7719 18.5073 30.7924 18.4457 30.854 16.0428C30.9157 13.6809 30.9157 13.5782 30.4227 13.0032C29.9709 12.4692 29.7655 12.4075 28.7181 12.4075H27.5474L27.1367 11.4423L26.7464 10.4975L27.4858 9.42954C27.8966 8.83394 28.2252 8.17672 28.2252 7.9508C28.2252 7.27305 27.6912 6.51314 26.2741 5.11656C25.0418 3.88428 24.8569 3.78159 24.0354 3.78159C23.3782 3.78159 22.9674 3.92535 22.3718 4.37719L21.5914 4.99333L20.4413 4.58257L19.2911 4.17181L19.1885 2.77522C19.0447 0.762501 18.7777 0.598196 15.7997 0.598196C13.787 0.598196 13.4173 0.659811 12.9449 1.0295ZM17.9562 3.37083L18.0589 4.80849L19.1885 5.36301C19.8046 5.65055 20.6467 6.02023 21.078 6.164C21.8173 6.41045 21.8789 6.38991 22.7826 5.65055C23.4809 5.05494 23.8506 4.91118 24.1997 4.99333C24.7337 5.11656 26.9929 7.45789 26.9929 7.84811C26.9929 7.99188 26.6232 8.5464 26.1714 9.10093C25.7195 9.63492 25.3499 10.1894 25.3704 10.3332C25.3704 10.4564 25.6785 11.2574 26.0276 12.0995L26.7054 13.6398L28.1841 13.7014L29.6834 13.7631L29.6218 15.9606L29.5601 18.1582L28.1225 18.2609L26.6848 18.3636L26.0276 19.6985C25.6579 20.4379 25.3704 21.1567 25.3704 21.321C25.3499 21.4648 25.7195 22.0399 26.1714 22.5739C26.6232 23.1078 26.9929 23.6829 26.9929 23.8267C26.9929 24.1758 24.323 26.8868 23.9738 26.8868C23.8506 26.8868 23.2961 26.5172 22.7826 26.0653C22.2692 25.6135 21.7557 25.2438 21.6736 25.2438C21.386 25.2438 18.5312 26.4555 18.2232 26.702C18.0589 26.8458 17.9562 27.4003 17.9562 28.2218C17.9562 29.7211 17.9151 29.7622 15.6559 29.7622C13.7048 29.7622 13.6432 29.7211 13.6432 28.3861C13.6432 27.77 13.561 27.1128 13.4584 26.9074C13.3351 26.702 12.4725 26.2502 11.5072 25.8599L9.76151 25.2027L8.77569 26.0448C8.22116 26.4966 7.62556 26.8868 7.44072 26.8868C7.0505 26.8868 4.60647 24.3607 4.60647 23.9499C4.60647 23.7856 4.97616 23.1695 5.44853 22.5739L6.29059 21.5264L5.73606 20.1504C5.42799 19.3905 5.09939 18.6511 4.97616 18.5073C4.83239 18.3636 4.23679 18.2609 3.37419 18.2609C2.28568 18.2609 1.95707 18.1787 1.85438 17.9323C1.66954 17.4599 1.71061 14.297 1.89546 14.0095C1.97761 13.8657 2.65536 13.7425 3.47688 13.7014L4.89401 13.6398L5.57176 12.0995C5.92091 11.2574 6.22898 10.4564 6.22898 10.3127C6.24951 10.1894 5.87983 9.63492 5.42799 9.12147C4.97616 8.60802 4.60647 8.05349 4.60647 7.90973C4.60647 7.47843 7.07103 4.91118 7.48179 4.91118C7.68717 4.91118 8.28278 5.28086 8.8373 5.71216C9.80259 6.53368 9.80259 6.53368 10.542 6.22561C10.9527 6.04077 11.651 5.75323 12.1028 5.58893C13.4994 5.0344 13.6432 4.80849 13.6432 3.22706V1.80994L15.7586 1.87155L17.8535 1.93317L17.9562 3.37083Z" fill="#949494" stroke="#949494" stroke-width="1.2"/>
<path d="M14.7276 10.0687C11.3594 10.7054 9.20289 14.0736 10.0655 17.3597C11.4826 22.8434 18.979 23.4595 21.2998 18.2839C22.2034 16.2712 21.7516 13.5807 20.2318 11.835C18.9995 10.4589 16.6582 9.69903 14.7276 10.0687ZM17.9315 11.6707C19.6157 12.5333 20.8274 14.813 20.4988 16.5587C20.1907 18.2839 18.9379 19.8243 17.4386 20.3172C16.2063 20.7279 14.2347 20.502 13.2489 19.8448C11.9344 18.9822 11.2978 17.8526 11.2156 16.2301C11.0924 14.1147 11.9344 12.5743 13.7007 11.7118C14.8508 11.1367 16.843 11.1162 17.9315 11.6707Z" fill="#949494" stroke="#949494" stroke-width="1.2"/>
</svg>
