<svg width="57" height="24" viewBox="0 0 57 24" fill="none" xmlns="http://www.w3.org/2000/svg">
<rect width="56.7778" height="23.9531" rx="11.9766" fill="#318EF2"/>
<path d="M13.5253 9.06929C14.267 9.06929 14.9078 9.20917 15.4478 9.48892C15.9942 9.76216 16.4106 10.1558 16.6969 10.6697C16.9896 11.1837 17.136 11.7887 17.136 12.4848C17.136 13.181 16.9896 13.786 16.6969 14.2999C16.4106 14.8074 15.9942 15.1977 15.4478 15.471C14.9078 15.7377 14.267 15.8711 13.5253 15.8711H11.4077V9.06929H13.5253ZM13.5253 15.1392C14.4036 15.1392 15.0737 14.9082 15.5356 14.4463C15.9975 13.9779 16.2285 13.3241 16.2285 12.4848C16.2285 11.6391 15.9942 10.9787 15.5258 10.5038C15.0639 10.0289 14.3971 9.79144 13.5253 9.79144H12.2957V15.1392H13.5253ZM23.1867 12.9923C23.1867 13.1614 23.1769 13.3403 23.1574 13.529H18.8831C18.9157 14.056 19.0946 14.4691 19.4198 14.7684C19.7516 15.0611 20.1517 15.2075 20.6202 15.2075C21.004 15.2075 21.3228 15.1197 21.5765 14.944C21.8367 14.7619 22.0189 14.5211 22.123 14.2219H23.0794C22.9362 14.7358 22.65 15.1555 22.2206 15.4807C21.7912 15.7995 21.2577 15.9589 20.6202 15.9589C20.1127 15.9589 19.6573 15.8451 19.254 15.6174C18.8571 15.3897 18.5448 15.0676 18.3171 14.6513C18.0894 14.2284 17.9756 13.7404 17.9756 13.1875C17.9756 12.6345 18.0862 12.1498 18.3074 11.7334C18.5286 11.317 18.8376 10.9983 19.2344 10.7771C19.6378 10.5494 20.0997 10.4355 20.6202 10.4355C21.1276 10.4355 21.5765 10.5461 21.9669 10.7673C22.3572 10.9885 22.6565 11.2943 22.8647 11.6846C23.0794 12.0685 23.1867 12.5043 23.1867 12.9923ZM22.2694 12.8069C22.2694 12.4686 22.1946 12.1791 22.0449 11.9383C21.8953 11.6911 21.6904 11.5057 21.4301 11.3821C21.1764 11.252 20.8934 11.1869 20.5811 11.1869C20.1322 11.1869 19.7484 11.3301 19.4296 11.6163C19.1173 11.9026 18.9384 12.2994 18.8929 12.8069H22.2694ZM26.5351 11.2552H25.4128V15.8711H24.5248V11.2552H23.8319V10.5233H24.5248V10.1427C24.5248 9.54422 24.6777 9.10833 24.9834 8.83509C25.2957 8.55534 25.7934 8.41546 26.4765 8.41546V9.15712C26.0862 9.15712 25.8097 9.23519 25.647 9.39133C25.4909 9.54096 25.4128 9.79144 25.4128 10.1427V10.5233H26.5351V11.2552ZM27.2387 13.1777C27.2387 12.6312 27.3493 12.153 27.5705 11.7432C27.7917 11.3268 28.0942 11.0048 28.478 10.7771C28.8684 10.5494 29.301 10.4355 29.7759 10.4355C30.2444 10.4355 30.651 10.5363 30.9958 10.738C31.3406 10.9397 31.5976 11.1934 31.7667 11.4992V10.5233H32.6645V15.8711H31.7667V14.8757C31.5911 15.188 31.3276 15.4482 30.9763 15.6564C30.6315 15.8581 30.2281 15.9589 29.7662 15.9589C29.2913 15.9589 28.8619 15.8418 28.478 15.6076C28.0942 15.3734 27.7917 15.0449 27.5705 14.622C27.3493 14.1991 27.2387 13.7177 27.2387 13.1777ZM31.7667 13.1875C31.7667 12.7841 31.6854 12.4328 31.5227 12.1335C31.3601 11.8343 31.1389 11.6066 30.8592 11.4504C30.5859 11.2878 30.2834 11.2064 29.9516 11.2064C29.6198 11.2064 29.3173 11.2845 29.044 11.4407C28.7708 11.5968 28.5529 11.8245 28.3902 12.1238C28.2276 12.423 28.1462 12.7743 28.1462 13.1777C28.1462 13.5876 28.2276 13.9454 28.3902 14.2512C28.5529 14.5504 28.7708 14.7814 29.044 14.944C29.3173 15.1002 29.6198 15.1782 29.9516 15.1782C30.2834 15.1782 30.5859 15.1002 30.8592 14.944C31.1389 14.7814 31.3601 14.5504 31.5227 14.2512C31.6854 13.9454 31.7667 13.5908 31.7667 13.1875ZM38.9079 10.5233V15.8711H38.0199V15.0806C37.8507 15.3539 37.6133 15.5686 37.3075 15.7247C37.0082 15.8743 36.6764 15.9492 36.3121 15.9492C35.8958 15.9492 35.5217 15.8646 35.1899 15.6954C34.8581 15.5198 34.5946 15.2595 34.3994 14.9147C34.2108 14.5699 34.1164 14.1503 34.1164 13.6559V10.5233H34.9947V13.5388C34.9947 14.0657 35.1281 14.4723 35.3948 14.7586C35.6615 15.0384 36.0259 15.1782 36.4878 15.1782C36.9627 15.1782 37.3368 15.0318 37.61 14.7391C37.8833 14.4463 38.0199 14.0202 38.0199 13.4607V10.5233H38.9079ZM41.2954 8.64967V15.8711H40.4073V8.64967H41.2954ZM43.8921 11.2552V14.4073C43.8921 14.6675 43.9474 14.8529 44.058 14.9635C44.1686 15.0676 44.3605 15.1197 44.6338 15.1197H45.2876V15.8711H44.4874C43.9929 15.8711 43.6221 15.7572 43.3749 15.5295C43.1277 15.3018 43.0041 14.9278 43.0041 14.4073V11.2552H42.3112V10.5233H43.0041V9.17664H43.8921V10.5233H45.2876V11.2552H43.8921Z" fill="white"/>
</svg>
