<svg width="103" height="18" viewBox="0 0 103 18" fill="none" xmlns="http://www.w3.org/2000/svg">
<g clip-path="url(#clip0_5843_3023)">
<path d="M54.1816 0.0742188C49.3758 0.0742188 45.4766 3.82447 45.4766 8.45288C45.4766 13.3739 49.2065 17.0523 54.1816 17.0523C59.0327 17.0523 62.863 13.3251 62.863 8.54956C62.863 3.80225 59.0583 0.0742188 54.1816 0.0742188Z" fill="url(#paint0_linear_5843_3023)"/>
<g filter="url(#filter0_i_5843_3023)">
<path d="M54.1816 0.0742188C49.3758 0.0742188 45.4766 3.82447 45.4766 8.45288C45.4766 13.3739 49.2065 17.0523 54.1816 17.0523C59.0327 17.0523 62.863 13.3251 62.863 8.54956C62.863 3.80225 59.0583 0.0742188 54.1816 0.0742188Z" fill="black"/>
</g>
<path d="M4.7657 0.379437H0.0859375V16.6844H4.74125C7.21129 16.6844 8.99759 16.0999 10.5647 14.8031C12.4239 13.2628 13.5265 10.9402 13.5265 8.53971C13.5265 3.72594 9.9264 0.379437 4.7657 0.379437ZM8.48739 12.6254C7.48122 13.5322 6.18568 13.9242 4.12685 13.9242H3.27157V3.14043H4.12685C6.18568 3.14043 7.43152 3.50755 8.48739 4.45997C9.58854 5.43802 10.2452 6.95253 10.2452 8.51649C10.2452 10.0838 9.58854 11.6512 8.48739 12.6254ZM14.9961 16.6844H18.1768V0.379437H14.9965L14.9961 16.6844ZM25.9632 6.63386C24.0517 5.92644 23.4892 5.45984 23.4892 4.58288C23.4892 3.55519 24.4907 2.77351 25.8636 2.77351C26.8181 2.77351 27.6012 3.16445 28.4358 4.09065L30.0981 1.91817C28.7274 0.71773 27.088 0.107402 25.2995 0.107402C22.4143 0.107402 20.2097 2.11314 20.2097 4.77544C20.2097 7.0266 21.2369 8.17459 24.224 9.25312C25.4728 9.6909 26.1077 9.98296 26.4267 10.1825C27.063 10.5983 27.3826 11.183 27.3826 11.867C27.3826 13.1893 26.3291 14.1658 24.9075 14.1658C23.3898 14.1658 22.1674 13.4087 21.4327 11.9909L19.3791 13.9734C20.8448 16.1219 22.6074 17.0785 25.033 17.0785C28.3371 17.0785 30.6608 14.8752 30.6608 11.7223C30.6608 9.13022 29.5867 7.9558 25.9632 6.63386ZM31.664 8.53991C31.664 13.3371 35.4345 17.0523 40.282 17.0523C41.6525 17.0523 42.8272 16.7816 44.2729 16.0997V12.357C42.9984 13.6297 41.8722 14.1418 40.4273 14.1418C37.2218 14.1418 34.944 11.8185 34.944 8.51649C34.944 5.38858 37.293 2.91884 40.282 2.91884C41.7972 2.91884 42.9495 3.4563 44.2729 4.75203V1.00978C42.8777 0.303171 41.7255 0.0117188 40.3548 0.0117188C35.5319 0.0117188 31.664 3.802 31.664 8.53991ZM70.0696 11.3319L65.7124 0.379437H62.2364L69.166 17.1009H70.8779L77.9283 0.379237H74.4782L70.0696 11.3319ZM79.3758 16.6846H88.4065V13.9242H82.5572V9.52016H88.1826V6.75936H82.5572V3.14023H88.4065V0.379637H79.3756L79.3758 16.6846ZM101.009 5.19141C101.009 2.13696 98.9068 0.379437 95.233 0.379437H90.5084V16.6844H93.6936V10.1313H94.1104L98.5141 16.6844H102.431L97.287 9.81641C99.6893 9.32559 101.009 7.68677 101.009 5.19141ZM94.62 7.88414H93.6936V2.94346H94.6709C96.6578 2.94346 97.7343 3.77718 97.7343 5.36396C97.7343 7.00077 96.6578 7.88414 94.62 7.88414Z" fill="#0B1015"/>
</g>
<defs>
<filter id="filter0_i_5843_3023" x="45.4766" y="0.0742188" width="18.4157" height="18.0095" filterUnits="userSpaceOnUse" color-interpolation-filters="sRGB">
<feFlood flood-opacity="0" result="BackgroundImageFix"/>
<feBlend mode="normal" in="SourceGraphic" in2="BackgroundImageFix" result="shape"/>
<feColorMatrix in="SourceAlpha" type="matrix" values="0 0 0 0 0 0 0 0 0 0 0 0 0 0 0 0 0 0 127 0" result="hardAlpha"/>
<feOffset dx="1.03289" dy="1.03289"/>
<feGaussianBlur stdDeviation="1.37719"/>
<feComposite in2="hardAlpha" operator="arithmetic" k2="-1" k3="1"/>
<feColorMatrix type="matrix" values="0 0 0 0 0 0 0 0 0 0 0 0 0 0 0 0 0 0 0.5 0"/>
<feBlend mode="normal" in2="shape" result="effect1_innerShadow_5843_3023"/>
</filter>
<linearGradient id="paint0_linear_5843_3023" x1="383.017" y1="153.947" x2="1556.46" y2="1394.67" gradientUnits="userSpaceOnUse">
<stop stop-color="#F34F26"/>
<stop offset="1" stop-color="#F69E35"/>
</linearGradient>
<clipPath id="clip0_5843_3023">
<rect width="102.545" height="17.2243" fill="white"/>
</clipPath>
</defs>
</svg>
