<svg width="65" height="40" viewBox="0 0 65 40" fill="none" xmlns="http://www.w3.org/2000/svg">
<g clip-path="url(#clip0_5843_3015)">
<path d="M23.5859 4.26953H41.0701V35.6772H23.5859V4.26953Z" fill="#FF5F00"/>
<path d="M24.7001 19.9766C24.7001 13.5953 27.6973 7.93514 32.3041 4.27267C28.9185 1.60917 24.6447 0 19.9823 0C8.93627 0 0 8.93386 0 19.9766C0 31.0194 8.93627 39.9533 19.982 39.9533C24.6445 39.9533 28.9183 38.3441 32.3041 35.6803C27.6973 32.0735 24.7001 26.358 24.7001 19.9766Z" fill="#EB001B"/>
<path d="M64.6635 19.9766C64.6635 31.0191 55.7272 39.9533 44.6815 39.9533C40.019 39.9533 35.7452 38.3441 32.3594 35.6803C37.0218 32.0181 39.9637 26.358 39.9637 19.9766C39.9637 13.5953 36.9662 7.93514 32.3594 4.27267C35.745 1.60917 40.019 0 44.6815 0C55.7272 0 64.6635 8.98947 64.6635 19.9766Z" fill="#F79E1B"/>
</g>
<defs>
<clipPath id="clip0_5843_3015">
<rect width="64.7194" height="39.944" fill="white"/>
</clipPath>
</defs>
</svg>
