<svg width="38" height="38" viewBox="0 0 38 38" fill="none" xmlns="http://www.w3.org/2000/svg">
<path d="M33.25 19C33.25 18.0552 32.8747 17.149 32.2066 16.4809C31.5385 15.8128 30.6323 15.4375 29.6875 15.4375H23.75C23.75 16.6973 23.2496 17.9055 22.3588 18.7963C21.468 19.6871 20.2598 20.1875 19 20.1875C17.7402 20.1875 16.532 19.6871 15.6412 18.7963C14.7504 17.9055 14.25 16.6973 14.25 15.4375H8.3125C7.36767 15.4375 6.46153 15.8128 5.79343 16.4809C5.12533 17.149 4.75 18.0552 4.75 19M33.25 19V28.5C33.25 29.4448 32.8747 30.351 32.2066 31.0191C31.5385 31.6872 30.6323 32.0625 29.6875 32.0625H8.3125C7.36767 32.0625 6.46153 31.6872 5.79343 31.0191C5.12533 30.351 4.75 29.4448 4.75 28.5V19M33.25 19V14.25M4.75 19V14.25M33.25 14.25C33.25 13.3052 32.8747 12.399 32.2066 11.7309C31.5385 11.0628 30.6323 10.6875 29.6875 10.6875H8.3125C7.36767 10.6875 6.46153 11.0628 5.79343 11.7309C5.12533 12.399 4.75 13.3052 4.75 14.25M33.25 14.25V9.5C33.25 8.55517 32.8747 7.64903 32.2066 6.98093C31.5385 6.31283 30.6323 5.9375 29.6875 5.9375H8.3125C7.36767 5.9375 6.46153 6.31283 5.79343 6.98093C5.12533 7.64903 4.75 8.55517 4.75 9.5V14.25" stroke="#369FFF" stroke-width="3" stroke-linecap="round" stroke-linejoin="round"/>
</svg>
