<svg width="136" height="24" viewBox="0 0 136 24" fill="none" xmlns="http://www.w3.org/2000/svg">
<rect width="135.755" height="23.4961" rx="11.7481" fill="#318EF2"/>
<path d="M12.4307 15.7701C11.9904 15.7701 11.5947 15.6936 11.2437 15.5404C10.8991 15.3809 10.6279 15.1639 10.4301 14.8895C10.2322 14.6087 10.1301 14.2864 10.1238 13.9226H11.0523C11.0842 14.2353 11.2118 14.5002 11.4352 14.7172C11.6649 14.9278 11.9968 15.0331 12.4307 15.0331C12.8455 15.0331 13.171 14.9309 13.4071 14.7267C13.6496 14.5161 13.7709 14.2481 13.7709 13.9226C13.7709 13.6674 13.7007 13.46 13.5603 13.3004C13.4199 13.1409 13.2444 13.0196 13.0338 12.9367C12.8232 12.8537 12.5392 12.7644 12.1818 12.6686C11.7415 12.5538 11.3873 12.4389 11.1193 12.324C10.8576 12.2092 10.6311 12.0305 10.4396 11.788C10.2546 11.5391 10.162 11.2072 10.162 10.7924C10.162 10.4287 10.2546 10.1064 10.4396 9.82561C10.6247 9.54482 10.8832 9.32784 11.215 9.17468C11.5533 9.02152 11.9393 8.94494 12.3733 8.94494C12.9987 8.94494 13.5092 9.10129 13.9049 9.41399C14.3069 9.7267 14.5335 10.1415 14.5845 10.6584H13.6273C13.5954 10.4032 13.4614 10.1798 13.2252 9.98834C12.9891 9.79051 12.6764 9.6916 12.2871 9.6916C11.9234 9.6916 11.6266 9.78732 11.3969 9.97877C11.1672 10.1638 11.0523 10.4255 11.0523 10.7637C11.0523 11.0062 11.1193 11.2041 11.2533 11.3572C11.3937 11.5104 11.5628 11.6284 11.7607 11.7114C11.9649 11.788 12.2489 11.8773 12.6126 11.9794C13.0529 12.1007 13.4071 12.2219 13.6752 12.3432C13.9432 12.458 14.1729 12.6399 14.3644 12.8888C14.5558 13.1313 14.6515 13.4632 14.6515 13.8844C14.6515 14.2098 14.5654 14.5161 14.3931 14.8033C14.2208 15.0905 13.9655 15.3234 13.6273 15.5021C13.2891 15.6808 12.8902 15.7701 12.4307 15.7701ZM20.7197 12.8792C20.7197 13.0452 20.7101 13.2207 20.691 13.4057H16.4982C16.5301 13.9226 16.7056 14.3279 17.0247 14.6214C17.3502 14.9086 17.7426 15.0522 18.2021 15.0522C18.5786 15.0522 18.8913 14.966 19.1402 14.7937C19.3955 14.6151 19.5742 14.3789 19.6763 14.0854H20.6144C20.474 14.5895 20.1932 15.0011 19.772 15.3202C19.3508 15.6329 18.8275 15.7893 18.2021 15.7893C17.7044 15.7893 17.2576 15.6776 16.862 15.4542C16.4727 15.2309 16.1664 14.915 15.943 14.5066C15.7197 14.0918 15.608 13.6131 15.608 13.0707C15.608 12.5282 15.7165 12.0528 15.9334 11.6444C16.1504 11.236 16.4535 10.9233 16.8428 10.7063C17.2385 10.4829 17.6916 10.3712 18.2021 10.3712C18.6999 10.3712 19.1402 10.4797 19.5231 10.6967C19.906 10.9137 20.1996 11.2136 20.4038 11.5965C20.6144 11.973 20.7197 12.4006 20.7197 12.8792ZM19.8199 12.6974C19.8199 12.3655 19.7465 12.0815 19.5997 11.8454C19.4529 11.6029 19.2519 11.421 18.9966 11.2998C18.7478 11.1721 18.4702 11.1083 18.1638 11.1083C17.7235 11.1083 17.347 11.2487 17.0343 11.5295C16.728 11.8103 16.5525 12.1996 16.5078 12.6974H19.8199ZM22.9321 11.1753V14.2673C22.9321 14.5225 22.9863 14.7044 23.0948 14.8129C23.2033 14.915 23.3915 14.966 23.6596 14.966H24.3009V15.7031H23.516C23.031 15.7031 22.6672 15.5914 22.4247 15.3681C22.1822 15.1447 22.061 14.7778 22.061 14.2673V11.1753H21.3813V10.4574H22.061V9.13639H22.9321V10.4574H24.3009V11.1753H22.9321ZM27.5829 13.0611C27.5829 12.5251 27.6914 12.056 27.9084 11.654C28.1254 11.2455 28.4221 10.9296 28.7987 10.7063C29.1815 10.4829 29.6059 10.3712 30.0718 10.3712C30.5313 10.3712 30.9301 10.4702 31.2684 10.668C31.6066 10.8658 31.8587 11.1147 32.0246 11.4146V10.4574H32.9053V15.7031H32.0246V14.7267C31.8523 15.0331 31.5938 15.2883 31.2492 15.4925C30.911 15.6904 30.5153 15.7893 30.0622 15.7893C29.5964 15.7893 29.1752 15.6744 28.7987 15.4447C28.4221 15.2149 28.1254 14.8927 27.9084 14.4778C27.6914 14.063 27.5829 13.5908 27.5829 13.0611ZM32.0246 13.0707C32.0246 12.675 31.9448 12.3304 31.7853 12.0369C31.6257 11.7433 31.4088 11.5199 31.1343 11.3668C30.8663 11.2072 30.5696 11.1275 30.2441 11.1275C29.9186 11.1275 29.6219 11.2041 29.3539 11.3572C29.0858 11.5104 28.872 11.7337 28.7125 12.0273C28.553 12.3208 28.4732 12.6655 28.4732 13.0611C28.4732 13.4632 28.553 13.8142 28.7125 14.1141C28.872 14.4076 29.0858 14.6342 29.3539 14.7937C29.6219 14.9469 29.9186 15.0235 30.2441 15.0235C30.5696 15.0235 30.8663 14.9469 31.1343 14.7937C31.4088 14.6342 31.6257 14.4076 31.7853 14.1141C31.9448 13.8142 32.0246 13.4664 32.0246 13.0707ZM36.2344 15.7893C35.8323 15.7893 35.4718 15.7223 35.1527 15.5883C34.8336 15.4479 34.5815 15.2564 34.3965 15.0139C34.2114 14.765 34.1093 14.481 34.0901 14.162H34.99C35.0155 14.4236 35.1367 14.6374 35.3537 14.8033C35.5771 14.9692 35.8674 15.0522 36.2248 15.0522C36.5567 15.0522 36.8183 14.9788 37.0098 14.832C37.2012 14.6852 37.2969 14.5002 37.2969 14.2768C37.2969 14.0471 37.1948 13.878 36.9906 13.7695C36.7864 13.6546 36.4705 13.5429 36.0429 13.4344C35.6537 13.3323 35.3346 13.2302 35.0857 13.1281C34.8432 13.0196 34.6326 12.8633 34.4539 12.6591C34.2816 12.4485 34.1954 12.1741 34.1954 11.8358C34.1954 11.5678 34.2752 11.3221 34.4348 11.0988C34.5943 10.8754 34.8208 10.6999 35.1144 10.5723C35.408 10.4383 35.743 10.3712 36.1195 10.3712C36.7002 10.3712 37.1693 10.518 37.5267 10.8116C37.884 11.1051 38.0755 11.5072 38.101 12.0177H37.2299C37.2108 11.7433 37.0991 11.5231 36.8949 11.3572C36.6971 11.1913 36.429 11.1083 36.0908 11.1083C35.7781 11.1083 35.5292 11.1753 35.3441 11.3093C35.1591 11.4434 35.0665 11.6189 35.0665 11.8358C35.0665 12.0081 35.1208 12.1517 35.2293 12.2666C35.3441 12.3751 35.4845 12.4644 35.6505 12.5346C35.8228 12.5984 36.0589 12.6718 36.3588 12.7548C36.7353 12.8569 37.0417 12.959 37.2778 13.0611C37.5139 13.1568 37.7149 13.3036 37.8809 13.5015C38.0532 13.6993 38.1425 13.9577 38.1489 14.2768C38.1489 14.564 38.0691 14.8225 37.9096 15.0522C37.75 15.2819 37.5235 15.4638 37.2299 15.5978C36.9428 15.7255 36.6109 15.7893 36.2344 15.7893ZM42.8017 11.4242C42.974 11.1243 43.2293 10.8754 43.5675 10.6776C43.9121 10.4734 44.311 10.3712 44.7641 10.3712C45.2299 10.3712 45.6511 10.4829 46.0276 10.7063C46.4105 10.9296 46.7105 11.2455 46.9275 11.654C47.1444 12.056 47.2529 12.5251 47.2529 13.0611C47.2529 13.5908 47.1444 14.063 46.9275 14.4778C46.7105 14.8927 46.4105 15.2149 46.0276 15.4447C45.6511 15.6744 45.2299 15.7893 44.7641 15.7893C44.3174 15.7893 43.9217 15.6904 43.5771 15.4925C43.2389 15.2883 42.9804 15.0362 42.8017 14.7363V18.192H41.9306V10.4574H42.8017V11.4242ZM46.3627 13.0611C46.3627 12.6655 46.2829 12.3208 46.1234 12.0273C45.9638 11.7337 45.7469 11.5104 45.4724 11.3572C45.2044 11.2041 44.9077 11.1275 44.5822 11.1275C44.2631 11.1275 43.9664 11.2072 43.692 11.3668C43.4239 11.5199 43.207 11.7465 43.041 12.0464C42.8815 12.34 42.8017 12.6814 42.8017 13.0707C42.8017 13.4664 42.8815 13.8142 43.041 14.1141C43.207 14.4076 43.4239 14.6342 43.692 14.7937C43.9664 14.9469 44.2631 15.0235 44.5822 15.0235C44.9077 15.0235 45.2044 14.9469 45.4724 14.7937C45.7469 14.6342 45.9638 14.4076 46.1234 14.1141C46.2829 13.8142 46.3627 13.4632 46.3627 13.0611ZM48.0741 13.0611C48.0741 12.5251 48.1826 12.056 48.3995 11.654C48.6165 11.2455 48.9133 10.9296 49.2898 10.7063C49.6727 10.4829 50.0971 10.3712 50.5629 10.3712C51.0224 10.3712 51.4213 10.4702 51.7595 10.668C52.0977 10.8658 52.3498 11.1147 52.5157 11.4146V10.4574H53.3964V15.7031H52.5157V14.7267C52.3434 15.0331 52.0849 15.2883 51.7403 15.4925C51.4021 15.6904 51.0064 15.7893 50.5533 15.7893C50.0875 15.7893 49.6663 15.6744 49.2898 15.4447C48.9133 15.2149 48.6165 14.8927 48.3995 14.4778C48.1826 14.063 48.0741 13.5908 48.0741 13.0611ZM52.5157 13.0707C52.5157 12.675 52.4359 12.3304 52.2764 12.0369C52.1169 11.7433 51.8999 11.5199 51.6255 11.3668C51.3574 11.2072 51.0607 11.1275 50.7352 11.1275C50.4098 11.1275 50.113 11.2041 49.845 11.3572C49.577 11.5104 49.3632 11.7337 49.2036 12.0273C49.0441 12.3208 48.9643 12.6655 48.9643 13.0611C48.9643 13.4632 49.0441 13.8142 49.2036 14.1141C49.3632 14.4076 49.577 14.6342 49.845 14.7937C50.113 14.9469 50.4098 15.0235 50.7352 15.0235C51.0607 15.0235 51.3574 14.9469 51.6255 14.7937C51.8999 14.6342 52.1169 14.4076 52.2764 14.1141C52.4359 13.8142 52.5157 13.4664 52.5157 13.0707ZM59.3867 10.4574L56.2277 18.1728H55.3279L56.3618 15.6457L54.2462 10.4574H55.2131L56.8595 14.7076L58.4869 10.4574H59.3867ZM66.5706 10.3617C66.979 10.3617 67.3428 10.4478 67.6619 10.6201C67.9809 10.7861 68.233 11.0381 68.4181 11.3764C68.6032 11.7146 68.6957 12.1262 68.6957 12.6112V15.7031H67.8342V12.7357C67.8342 12.2124 67.7033 11.8135 67.4417 11.5391C67.1864 11.2583 66.8386 11.1179 66.3983 11.1179C65.9452 11.1179 65.5846 11.2647 65.3166 11.5582C65.0486 11.8454 64.9146 12.2634 64.9146 12.8122V15.7031H64.053V12.7357C64.053 12.2124 63.9222 11.8135 63.6606 11.5391C63.4053 11.2583 63.0575 11.1179 62.6172 11.1179C62.1641 11.1179 61.8035 11.2647 61.5355 11.5582C61.2674 11.8454 61.1334 12.2634 61.1334 12.8122V15.7031H60.2623V10.4574H61.1334V11.2136C61.3057 10.9392 61.5355 10.7286 61.8226 10.5818C62.1162 10.4351 62.4385 10.3617 62.7895 10.3617C63.2298 10.3617 63.6191 10.4606 63.9573 10.6584C64.2955 10.8563 64.5476 11.1466 64.7135 11.5295C64.8603 11.1594 65.1028 10.8722 65.441 10.668C65.7793 10.4638 66.1558 10.3617 66.5706 10.3617ZM74.9109 12.8792C74.9109 13.0452 74.9013 13.2207 74.8821 13.4057H70.6894C70.7213 13.9226 70.8968 14.3279 71.2159 14.6214C71.5413 14.9086 71.9338 15.0522 72.3933 15.0522C72.7698 15.0522 73.0825 14.966 73.3314 14.7937C73.5867 14.6151 73.7654 14.3789 73.8675 14.0854H74.8056C74.6652 14.5895 74.3844 15.0011 73.9632 15.3202C73.542 15.6329 73.0187 15.7893 72.3933 15.7893C71.8955 15.7893 71.4488 15.6776 71.0531 15.4542C70.6639 15.2309 70.3575 14.915 70.1342 14.5066C69.9108 14.0918 69.7991 13.6131 69.7991 13.0707C69.7991 12.5282 69.9076 12.0528 70.1246 11.6444C70.3416 11.236 70.6447 10.9233 71.034 10.7063C71.4297 10.4829 71.8828 10.3712 72.3933 10.3712C72.8911 10.3712 73.3314 10.4797 73.7143 10.6967C74.0972 10.9137 74.3908 11.2136 74.595 11.5965C74.8056 11.973 74.9109 12.4006 74.9109 12.8792ZM74.011 12.6974C74.011 12.3655 73.9377 12.0815 73.7909 11.8454C73.6441 11.6029 73.4431 11.421 73.1878 11.2998C72.9389 11.1721 72.6613 11.1083 72.355 11.1083C71.9147 11.1083 71.5382 11.2487 71.2255 11.5295C70.9191 11.8103 70.7436 12.1996 70.699 12.6974H74.011ZM78.6165 10.3617C79.2547 10.3617 79.7716 10.5563 80.1673 10.9456C80.5629 11.3285 80.7608 11.8837 80.7608 12.6112V15.7031H79.8993V12.7357C79.8993 12.2124 79.7684 11.8135 79.5068 11.5391C79.2451 11.2583 78.8878 11.1179 78.4347 11.1179C77.9752 11.1179 77.6082 11.2615 77.3338 11.5487C77.0658 11.8358 76.9318 12.2538 76.9318 12.8027V15.7031H76.0607V10.4574H76.9318V11.2041C77.1041 10.936 77.337 10.7286 77.6306 10.5818C77.9305 10.4351 78.2592 10.3617 78.6165 10.3617ZM83.2463 11.1753V14.2673C83.2463 14.5225 83.3005 14.7044 83.409 14.8129C83.5175 14.915 83.7057 14.966 83.9738 14.966H84.6151V15.7031H83.8302C83.3452 15.7031 82.9814 15.5914 82.7389 15.3681C82.4964 15.1447 82.3752 14.7778 82.3752 14.2673V11.1753H81.6955V10.4574H82.3752V9.13639H83.2463V10.4574H84.6151V11.1753H83.2463ZM94.5309 10.3617C94.9393 10.3617 95.3031 10.4478 95.6222 10.6201C95.9412 10.7861 96.1933 11.0381 96.3784 11.3764C96.5635 11.7146 96.656 12.1262 96.656 12.6112V15.7031H95.7945V12.7357C95.7945 12.2124 95.6636 11.8135 95.402 11.5391C95.1467 11.2583 94.7989 11.1179 94.3586 11.1179C93.9055 11.1179 93.5449 11.2647 93.2769 11.5582C93.0089 11.8454 92.8749 12.2634 92.8749 12.8122V15.7031H92.0133V12.7357C92.0133 12.2124 91.8825 11.8135 91.6209 11.5391C91.3656 11.2583 91.0178 11.1179 90.5775 11.1179C90.1244 11.1179 89.7638 11.2647 89.4958 11.5582C89.2277 11.8454 89.0937 12.2634 89.0937 12.8122V15.7031H88.2226V10.4574H89.0937V11.2136C89.266 10.9392 89.4958 10.7286 89.7829 10.5818C90.0765 10.4351 90.3988 10.3617 90.7498 10.3617C91.1901 10.3617 91.5794 10.4606 91.9176 10.6584C92.2558 10.8563 92.5079 11.1466 92.6738 11.5295C92.8206 11.1594 93.0631 10.8722 93.4013 10.668C93.7396 10.4638 94.1161 10.3617 94.5309 10.3617ZM102.871 12.8792C102.871 13.0452 102.862 13.2207 102.842 13.4057H98.6497C98.6816 13.9226 98.8571 14.3279 99.1762 14.6214C99.5016 14.9086 99.8941 15.0522 100.354 15.0522C100.73 15.0522 101.043 14.966 101.292 14.7937C101.547 14.6151 101.726 14.3789 101.828 14.0854H102.766C102.625 14.5895 102.345 15.0011 101.923 15.3202C101.502 15.6329 100.979 15.7893 100.354 15.7893C99.8558 15.7893 99.4091 15.6776 99.0134 15.4542C98.6242 15.2309 98.3178 14.915 98.0945 14.5066C97.8711 14.0918 97.7594 13.6131 97.7594 13.0707C97.7594 12.5282 97.8679 12.0528 98.0849 11.6444C98.3019 11.236 98.605 10.9233 98.9943 10.7063C99.39 10.4829 99.8431 10.3712 100.354 10.3712C100.851 10.3712 101.292 10.4797 101.675 10.6967C102.057 10.9137 102.351 11.2136 102.555 11.5965C102.766 11.973 102.871 12.4006 102.871 12.8792ZM101.971 12.6974C101.971 12.3655 101.898 12.0815 101.751 11.8454C101.604 11.6029 101.403 11.421 101.148 11.2998C100.899 11.1721 100.622 11.1083 100.315 11.1083C99.875 11.1083 99.4984 11.2487 99.1857 11.5295C98.8794 11.8103 98.7039 12.1996 98.6593 12.6974H101.971ZM105.084 11.1753V14.2673C105.084 14.5225 105.138 14.7044 105.246 14.8129C105.355 14.915 105.543 14.966 105.811 14.966H106.452V15.7031H105.667C105.182 15.7031 104.819 15.5914 104.576 15.3681C104.334 15.1447 104.212 14.7778 104.212 14.2673V11.1753H103.533V10.4574H104.212V9.13639H105.084V10.4574H106.452V11.1753H105.084ZM110.112 10.3617C110.507 10.3617 110.865 10.4478 111.184 10.6201C111.503 10.7861 111.752 11.0381 111.93 11.3764C112.115 11.7146 112.208 12.1262 112.208 12.6112V15.7031H111.346V12.7357C111.346 12.2124 111.216 11.8135 110.954 11.5391C110.692 11.2583 110.335 11.1179 109.882 11.1179C109.422 11.1179 109.055 11.2615 108.781 11.5487C108.513 11.8358 108.379 12.2538 108.379 12.8027V15.7031H107.508V8.61948H108.379V11.2041C108.551 10.936 108.787 10.7286 109.087 10.5818C109.394 10.4351 109.735 10.3617 110.112 10.3617ZM115.919 15.7893C115.427 15.7893 114.981 15.6776 114.579 15.4542C114.183 15.2309 113.87 14.915 113.64 14.5066C113.417 14.0918 113.305 13.6131 113.305 13.0707C113.305 12.5346 113.42 12.0624 113.65 11.654C113.886 11.2392 114.205 10.9233 114.607 10.7063C115.009 10.4829 115.459 10.3712 115.957 10.3712C116.455 10.3712 116.905 10.4829 117.307 10.7063C117.709 10.9233 118.025 11.236 118.254 11.6444C118.49 12.0528 118.609 12.5282 118.609 13.0707C118.609 13.6131 118.487 14.0918 118.245 14.5066C118.009 14.915 117.686 15.2309 117.278 15.4542C116.87 15.6776 116.416 15.7893 115.919 15.7893ZM115.919 15.0235C116.231 15.0235 116.525 14.9501 116.799 14.8033C117.074 14.6565 117.294 14.4364 117.46 14.1428C117.632 13.8493 117.718 13.4919 117.718 13.0707C117.718 12.6495 117.635 12.2921 117.469 11.9986C117.304 11.705 117.087 11.488 116.818 11.3476C116.55 11.2009 116.26 11.1275 115.947 11.1275C115.628 11.1275 115.335 11.2009 115.067 11.3476C114.805 11.488 114.594 11.705 114.435 11.9986C114.275 12.2921 114.196 12.6495 114.196 13.0707C114.196 13.4983 114.272 13.8588 114.425 14.1524C114.585 14.4459 114.796 14.6661 115.057 14.8129C115.319 14.9533 115.606 15.0235 115.919 15.0235ZM119.428 13.0611C119.428 12.5251 119.537 12.056 119.754 11.654C119.971 11.2455 120.268 10.9296 120.644 10.7063C121.027 10.4829 121.455 10.3712 121.927 10.3712C122.335 10.3712 122.715 10.467 123.066 10.6584C123.417 10.8435 123.685 11.0892 123.87 11.3955V8.61948H124.751V15.7031H123.87V14.7172C123.698 15.0299 123.442 15.2883 123.104 15.4925C122.766 15.6904 122.37 15.7893 121.917 15.7893C121.451 15.7893 121.027 15.6744 120.644 15.4447C120.268 15.2149 119.971 14.8927 119.754 14.4778C119.537 14.063 119.428 13.5908 119.428 13.0611ZM123.87 13.0707C123.87 12.675 123.79 12.3304 123.631 12.0369C123.471 11.7433 123.254 11.5199 122.98 11.3668C122.712 11.2072 122.415 11.1275 122.09 11.1275C121.764 11.1275 121.467 11.2041 121.199 11.3572C120.931 11.5104 120.718 11.7337 120.558 12.0273C120.398 12.3208 120.319 12.6655 120.319 13.0611C120.319 13.4632 120.398 13.8142 120.558 14.1141C120.718 14.4076 120.931 14.6342 121.199 14.7937C121.467 14.9469 121.764 15.0235 122.09 15.0235C122.415 15.0235 122.712 14.9469 122.98 14.7937C123.254 14.6342 123.471 14.4076 123.631 14.1141C123.79 13.8142 123.87 13.4664 123.87 13.0707Z" fill="white"/>
</svg>
