<svg width="82" height="26" viewBox="0 0 82 26" fill="none" xmlns="http://www.w3.org/2000/svg">
<g clip-path="url(#clip0_5843_3013)">
<path d="M43.6875 8.1074C43.6431 11.6424 46.8069 13.615 49.1902 14.7879C51.6388 15.9912 52.4613 16.7629 52.4516 17.8391C52.4334 19.486 50.4984 20.2129 48.6878 20.2411C45.5288 20.2905 43.692 19.3798 42.2319 18.6909L41.0939 24.0686C42.5589 24.7504 45.2717 25.345 48.0847 25.3711C54.6881 25.3711 59.0081 22.0792 59.0315 16.9753C59.0574 10.4977 50.1598 10.1392 50.2206 7.24391C50.2416 6.36599 51.0711 5.42913 52.8887 5.19093C53.7884 5.0706 56.272 4.97851 59.0878 6.28802L60.1929 1.08497C58.6786 0.528135 56.7324 -0.00506401 54.3093 -0.00506401C48.0942 -0.00506401 43.7227 3.33164 43.6875 8.1074ZM70.8124 0.443104C69.6066 0.443104 68.5905 1.15342 68.137 2.24345L58.7045 24.9889H65.3029L66.616 21.3241H74.6792L75.4409 24.9889H81.2567L76.1816 0.443104H70.8124ZM71.7355 7.07385L73.6397 16.2911H68.4245L71.7355 7.07385ZM35.6872 0.443411L30.486 24.9886H36.7738L41.9726 0.442799L35.6872 0.443411ZM26.3854 0.443411L19.8407 17.15L17.1933 2.94456C16.8827 1.35878 15.6559 0.443104 14.2936 0.443104H3.59516L3.44531 1.15588C5.64166 1.6372 8.1371 2.41351 9.64895 3.24416C10.5742 3.75157 10.838 4.19514 11.142 5.40089L16.1562 24.9889H22.8009L32.9881 0.443104L26.3854 0.443411Z" fill="#3D40BC"/>
</g>
<defs>
<clipPath id="clip0_5843_3013">
<rect width="81.2544" height="25.4781" fill="white"/>
</clipPath>
</defs>
</svg>
