<svg width="39" height="36" viewBox="0 0 39 36" fill="none" xmlns="http://www.w3.org/2000/svg">
<path d="M37.7438 12.6073H35.2982V6.30403C35.2982 5.96969 35.1654 5.64904 34.9289 5.41262C34.6925 5.1762 34.3719 5.04338 34.0375 5.04338H3.78195C3.4476 5.04338 3.12695 4.91057 2.89053 4.67415C2.65412 4.43773 2.5213 4.11708 2.5213 3.78273C2.5213 3.44839 2.65412 3.12774 2.89053 2.89132C3.12695 2.6549 3.4476 2.52209 3.78195 2.52209H33.5333C33.8676 2.52209 34.1883 2.38927 34.4247 2.15285C34.6611 1.91643 34.7939 1.59578 34.7939 1.26144C34.7939 0.927092 34.6611 0.606441 34.4247 0.370023C34.1883 0.133606 33.8676 0.000787467 33.5333 0.000787467H3.78195C3.2952 -0.00924753 2.81125 0.076713 2.35773 0.253759C1.90421 0.430804 1.49002 0.695466 1.13882 1.03262C0.787609 1.36978 0.506269 1.77283 0.310868 2.21875C0.115466 2.66466 0.00983227 3.14471 0 3.63146V30.1051C0.00165005 30.7899 0.138374 31.4676 0.402341 32.0995C0.666308 32.7314 1.05233 33.3049 1.53831 33.7874C2.02428 34.2699 2.60066 34.6517 3.23443 34.9111C3.8682 35.1705 4.54691 35.3023 5.23169 35.299H34.0375C34.3719 35.299 34.6925 35.1661 34.9289 34.9297C35.1654 34.6933 35.2982 34.3727 35.2982 34.0383V27.7351H37.7438C37.903 27.7471 38.0629 27.7265 38.2137 27.6746C38.3646 27.6227 38.5033 27.5405 38.6214 27.4331C38.7394 27.3257 38.8342 27.1954 38.9001 27.05C38.966 26.9047 39.0015 26.7474 39.0045 26.5879V13.9814C39.0086 13.6349 38.8806 13.2999 38.6463 13.0446C38.4121 12.7893 38.0894 12.6329 37.7438 12.6073ZM36.5588 25.2138H25.7425C24.4505 25.1678 23.2297 24.6109 22.348 23.6654C21.4663 22.7199 20.996 21.4632 21.0402 20.1712C20.996 18.8792 21.4663 17.6224 22.348 16.677C23.2297 15.7315 24.4505 15.1746 25.7425 15.1286H36.5588V25.2138Z" fill="white"/>
<path d="M26.5238 21.9577C27.5681 21.9577 28.4148 21.1111 28.4148 20.0668C28.4148 19.0224 27.5681 18.1758 26.5238 18.1758C25.4794 18.1758 24.6328 19.0224 24.6328 20.0668C24.6328 21.1111 25.4794 21.9577 26.5238 21.9577Z" fill="white"/>
</svg>
