<svg width="21" height="18" viewBox="0 0 21 18" fill="none" xmlns="http://www.w3.org/2000/svg">
<path d="M20.6002 6.69958C20.588 6.64279 20.57 6.58738 20.5465 6.53421L18.5181 1.8008C18.0504 0.707112 16.9127 0 15.6182 0H4.99919C3.70577 0 2.56698 0.707112 2.09987 1.8008L0.0692694 6.53421C0.0230907 6.64098 -0.000491171 6.75615 7.75452e-06 6.87247V16.3221C7.75452e-06 16.55 0.0905156 16.7685 0.25162 16.9296C0.412725 17.0907 0.63123 17.1812 0.859066 17.1812H2.57718C2.80502 17.1812 3.02353 17.0907 3.18463 16.9296C3.34573 16.7685 3.43624 16.55 3.43624 16.3221V15.4631H17.1812V16.3221C17.1812 16.55 17.2717 16.7685 17.4328 16.9296C17.5939 17.0907 17.8124 17.1812 18.0402 17.1812H19.7584C19.9862 17.1812 20.2047 17.0907 20.3658 16.9296C20.5269 16.7685 20.6174 16.55 20.6174 16.3221V6.87247C20.6175 6.81441 20.6118 6.75648 20.6002 6.69958ZM4.2953 12.0268C3.95549 12.0268 3.62331 11.9261 3.34077 11.7373C3.05822 11.5485 2.83801 11.2801 2.70797 10.9662C2.57793 10.6523 2.5439 10.3068 2.6102 9.97352C2.67649 9.64023 2.84013 9.3341 3.08041 9.09381C3.32069 8.85353 3.62683 8.68989 3.96011 8.6236C4.2934 8.55731 4.63885 8.59133 4.9528 8.72137C5.26674 8.85141 5.53507 9.07163 5.72386 9.35417C5.91265 9.63671 6.01342 9.96889 6.01342 10.3087C6.01342 10.7644 5.8324 11.2014 5.51019 11.5236C5.18798 11.8458 4.75097 12.0268 4.2953 12.0268ZM16.3221 12.0268C15.9823 12.0268 15.6501 11.9261 15.3676 11.7373C15.085 11.5485 14.8648 11.2801 14.7348 10.9662C14.6047 10.6523 14.5707 10.3068 14.637 9.97352C14.7033 9.64023 14.8669 9.3341 15.1072 9.09381C15.3475 8.85353 15.6537 8.68989 15.9869 8.6236C16.3202 8.55731 16.6657 8.59133 16.9796 8.72137C17.2936 8.85141 17.5619 9.07163 17.7507 9.35417C17.9395 9.63671 18.0402 9.96889 18.0402 10.3087C18.0402 10.7644 17.8592 11.2014 17.537 11.5236C17.2148 11.8458 16.7778 12.0268 16.3221 12.0268ZM2.16161 6.01341L3.67732 2.47785C3.87168 2.02362 4.40268 1.71812 4.99919 1.71812H15.6182C16.2142 1.71812 16.7457 2.02362 16.9401 2.47785L18.4558 6.01341H2.16161Z" fill="white"/>
</svg>
