<svg width="67" height="67" viewBox="0 0 67 67" fill="none" xmlns="http://www.w3.org/2000/svg">
<path d="M17.6443 21.4381V18.9855H24.2625V46.8984H21.4984V21.4381H17.6443ZM29.5567 32.6889C29.5567 28.2249 30.2445 24.7601 31.62 22.2945C32.9955 19.8289 35.4611 18.5962 39.0167 18.5962C42.5724 18.5962 45.0379 19.8289 46.4135 22.2945C47.789 24.7601 48.4768 28.2249 48.4768 32.6889C48.4768 37.2308 47.789 40.7475 46.4135 43.239C45.0379 45.7305 42.5724 46.9763 39.0167 46.9763C35.4352 46.9763 32.9566 45.7305 31.5811 43.239C30.2315 40.7475 29.5567 37.2308 29.5567 32.6889ZM45.7906 32.6889C45.7906 30.2752 45.6219 28.2379 45.2845 26.5769C44.9471 24.9158 44.2853 23.5792 43.2991 22.567C42.3128 21.5549 40.8854 21.0488 39.0167 21.0488C37.1481 21.0488 35.7206 21.5549 34.7344 22.567C33.7482 23.5792 33.0864 24.9158 32.749 26.5769C32.4116 28.2379 32.2429 30.2752 32.2429 32.6889C32.2429 35.1804 32.4116 37.2697 32.749 38.9567C33.0864 40.6177 33.7482 41.9543 34.7344 42.9665C35.7206 43.9787 37.1481 44.4848 39.0167 44.4848C40.8854 44.4848 42.3128 43.9787 43.2991 42.9665C44.2853 41.9543 44.9471 40.6177 45.2845 38.9567C45.6219 37.2697 45.7906 35.1804 45.7906 32.6889Z" fill="#333333"/>
<circle cx="33.307" cy="33.307" r="32.4419" stroke="#A7A7A7" stroke-width="1.73023"/>
</svg>
