<svg width="44" height="44" viewBox="0 0 44 44" fill="none" xmlns="http://www.w3.org/2000/svg">
<path d="M30.1 19.2214C28.29 19.2214 27.55 17.9414 28.45 16.3714C28.97 15.4614 28.66 14.3014 27.75 13.7814L26.02 12.7914C25.23 12.3214 24.21 12.6014 23.74 13.3914L23.63 13.5814C22.73 15.1514 21.25 15.1514 20.34 13.5814L20.23 13.3914C19.78 12.6014 18.76 12.3214 17.97 12.7914L16.24 13.7814C15.33 14.3014 15.02 15.4714 15.54 16.3814C16.45 17.9414 15.71 19.2214 13.9 19.2214C12.86 19.2214 12 20.0714 12 21.1214V22.8814C12 23.9214 12.85 24.7814 13.9 24.7814C15.71 24.7814 16.45 26.0614 15.54 27.6314C15.02 28.5414 15.33 29.7014 16.24 30.2214L17.97 31.2114C18.76 31.6814 19.78 31.4014 20.25 30.6114L20.36 30.4214C21.26 28.8514 22.74 28.8514 23.65 30.4214L23.76 30.6114C24.23 31.4014 25.25 31.6814 26.04 31.2114L27.77 30.2214C28.68 29.7014 28.99 28.5314 28.47 27.6314C27.56 26.0614 28.3 24.7814 30.11 24.7814C31.15 24.7814 32.01 23.9314 32.01 22.8814V21.1214C32 20.0814 31.15 19.2214 30.1 19.2214ZM22 25.2514C20.21 25.2514 18.75 23.7914 18.75 22.0014C18.75 20.2114 20.21 18.7514 22 18.7514C23.79 18.7514 25.25 20.2114 25.25 22.0014C25.25 23.7914 23.79 25.2514 22 25.2514Z" fill="#3D5278"/>
<rect opacity="0.8" x="0.5" y="0.5" width="43" height="43" rx="21.5" stroke="#C3D4E9" stroke-opacity="0.4"/>
</svg>
