<svg width="698" height="205" viewBox="0 0 698 205" fill="none" xmlns="http://www.w3.org/2000/svg">
<path d="M70.126 22.0205C59.4601 24.0988 49.9269 29.3891 42.1399 37.4663C36.1934 43.6541 32.3235 49.8891 29.775 57.5412C27.7457 63.5401 27.2266 67.0354 27.2266 74.6403C27.2266 79.7417 27.4625 83.0009 27.9817 85.3626C33.3618 109.027 52.0506 125.654 76.0252 128.063C85.5112 129.008 95.422 127.071 104.53 122.584C123.833 113.042 135.348 93.5815 134.357 72.0896C133.224 47.4329 115.81 27.1691 91.3161 21.9732C87.1158 21.0758 74.6566 21.123 70.126 22.0205ZM93.2982 36.4744C102.029 39.4974 109.061 44.835 113.922 52.1564C116.282 55.6518 118.453 59.903 118.453 60.9894C118.453 61.2728 103.634 61.4145 80.6502 61.4145H42.895L43.1782 60.3281C43.7917 58.3914 47.2368 52.2036 49.219 49.7002C53.2305 44.4571 60.0264 39.4502 66.3032 37.0884C71.9193 34.9629 74.7038 34.5377 81.8773 34.6795C88.0125 34.7739 88.8148 34.9156 93.2982 36.4744ZM84.3314 68.9721C88.5316 71.5228 88.2013 78.4191 83.8122 80.4974C78.0074 83.2371 72.0609 77.4271 74.7982 71.6645C76.4028 68.2636 81.0278 66.941 84.3314 68.9721ZM49.0774 76.0101C59.6961 79.3165 68.6629 89.4721 72.1081 102.037C73.052 105.39 74.3262 113.751 73.9487 114.129C73.8543 114.223 72.2025 113.893 70.2675 113.326C62.5749 111.2 54.5047 106.099 49.8325 100.383C44.594 93.9122 41.1488 85.6933 40.6769 78.4663L40.4409 74.4986L43.2253 74.782C44.7828 74.9237 47.3784 75.4905 49.0774 76.0101ZM121.048 77.0965C120.482 81.7255 119.444 86.3546 118.217 89.3776C114.488 98.5412 107.504 106.099 98.8671 110.397C95.8939 111.909 90.7026 113.704 88.7204 113.94C87.635 114.082 87.5878 113.987 87.6821 111.72C88.2957 100.336 93.8174 88.6218 101.84 81.9617C106.985 77.7106 113.969 74.782 119.302 74.6875L121.332 74.6403L121.048 77.0965Z" fill="black"/>
<path d="M474.54 51.488C462.128 54.1332 453.019 63.2496 450.896 75.1056C448.536 88.3786 454.718 100.99 466.422 106.753C471.944 109.445 475.389 110.248 481.855 110.201C491.105 110.201 497.854 107.792 503.564 102.502L506.632 99.6678L503.8 97.0698C502.243 95.6056 499.883 93.48 498.514 92.2991L496.06 90.1263L494.031 92.0629C490.161 95.8417 485.206 97.3533 479.92 96.4558C476.05 95.7945 474.493 95.0387 471.897 92.7242C466.8 88.0952 465.526 79.3567 468.877 72.4604C471.661 66.745 477.891 63.8636 485.253 64.8083C488.556 65.2334 491.199 66.5088 493.937 69.0595C496.391 71.3268 495.966 71.5157 502.384 65.5168L506.585 61.5491L504.178 59.2346C501.11 56.306 497.476 54.086 493.087 52.5744C490.114 51.488 488.698 51.2991 483.035 51.2046C479.401 51.1102 475.578 51.2519 474.54 51.488Z" fill="#0164B5"/>
<path d="M171.539 53.4743C171.209 54.3246 165.593 67.1252 159.08 81.8626C152.567 96.5999 147.234 108.787 147.234 108.881C147.234 109.023 150.916 109.117 155.446 109.117H163.658L165.074 105.669C165.876 103.827 166.867 101.371 167.292 100.237L168.094 98.2531L180.176 98.3476L192.258 98.4893L194.381 103.78L196.505 109.117H204.953C212.693 109.117 213.4 109.07 213.117 108.314C212.928 107.889 207.265 95.0411 200.516 79.737L188.199 51.9628H180.176H172.2L171.539 53.4743ZM183.951 77.5642L187.255 85.972H180.176C173.616 85.972 173.097 85.9248 173.38 85.1218C175.692 78.8395 180.034 68.5895 180.27 68.8257C180.459 69.0619 182.111 72.9824 183.951 77.5642Z" fill="black"/>
<path d="M224.648 80.4928V109.117H232.671H240.694V101.56V94.002H245.083H249.425L254.569 101.56L259.714 109.117H268.397C275.429 109.117 276.987 109.023 276.703 108.503C276.515 108.172 273.777 104.158 270.71 99.6702L265.094 91.4513L266.415 90.5066C271.89 86.6333 274.721 82.3822 275.712 76.6195C277.223 67.8338 273.022 59.1898 265.424 55.3637C259.43 52.3407 258.959 52.2934 241.072 52.0573L224.648 51.8683V80.4928ZM254.853 65.7554C259.336 67.6448 261.035 74.3994 258.015 78.2255C256.174 80.5872 253.862 81.2485 246.971 81.2485H240.694V72.9352V64.5746L246.971 64.8107C250.936 64.9997 253.814 65.3303 254.853 65.7554Z" fill="black"/>
<path d="M291.188 80.54V109.117H314.077H336.966V102.74V96.3637H322.1H307.233V91.4041V86.4444H319.976H332.718V80.3038V74.1633H319.976H307.233V69.4398V64.7163H321.628H336.022V58.3395V51.9628H313.605H291.188V80.54Z" fill="black"/>
<path d="M370.219 53.4743C369.889 54.3246 364.273 67.1252 357.76 81.8626C351.247 96.5999 345.914 108.787 345.914 108.881C345.914 109.023 349.595 109.117 354.126 109.117H362.338L363.753 105.669C364.556 103.827 365.547 101.371 365.972 100.237L366.774 98.2531L378.856 98.3476L390.937 98.4893L393.061 103.78L395.185 109.117H403.632C411.372 109.117 412.08 109.07 411.797 108.314C411.608 107.889 405.945 95.0411 399.196 79.737L386.879 51.9628H378.856H370.88L370.219 53.4743ZM382.631 77.5642L385.935 85.972H378.856C372.296 85.972 371.776 85.9248 372.06 85.1218C374.372 78.8395 378.714 68.5895 378.95 68.8257C379.139 69.0619 380.79 72.9824 382.631 77.5642Z" fill="black"/>
<path d="M525.834 80.2094C519.038 95.7024 513.469 108.55 513.469 108.739C513.469 108.975 517.15 109.117 521.681 109.117H529.892L532.016 103.78L534.14 98.4893L546.174 98.3476L558.209 98.2531L559.011 100.237C559.436 101.371 560.427 103.827 561.229 105.669L562.645 109.117H571.14C575.859 109.117 579.54 108.928 579.446 108.692C579.399 108.456 573.688 95.608 566.845 80.1149L554.386 51.9628H546.316L538.246 52.01L525.834 80.2094ZM549.761 77.1391C551.602 81.7209 553.112 85.5941 553.112 85.7358C553.112 85.8776 550.044 85.972 546.269 85.972C542.493 85.972 539.425 85.8303 539.425 85.5941C539.425 85.0746 546.127 68.4478 546.269 68.5895C546.363 68.684 547.92 72.51 549.761 77.1391Z" fill="#0164B5"/>
<path d="M590.383 80.4928V109.117H598.642H606.901V101.56V93.9547L611.195 94.0964L615.537 94.2382L620.587 101.56L625.59 108.881L634.462 109.023L643.335 109.117L639.181 103.118C636.916 99.7647 634.132 95.7497 632.999 94.1909L630.97 91.2623L632.999 90.0815C639.417 86.3027 643.099 77.9893 641.872 70.1011C640.88 63.5826 637.247 58.3868 631.63 55.411C625.873 52.3407 625.259 52.2934 607.042 52.0573L590.383 51.8683V80.4928ZM621.531 66.2278C624.315 67.6448 625.448 69.7232 625.448 73.2186C625.448 76.3833 624.315 78.6034 621.908 80.0676C620.587 80.8706 619.313 81.0596 613.649 81.154L606.901 81.343V73.2658V65.1886H613.178C618.746 65.1886 619.69 65.3303 621.531 66.2278Z" fill="#0164B5"/>
<path d="M35.5412 116.913C36.7682 119.322 44.744 130.989 53.1917 142.656C62.4418 155.504 65.8398 160.511 69.4737 166.746C72.1638 171.281 76.7416 180.397 78.7709 185.168L79.9036 187.766L80.6115 186.112C87.7378 170.005 91.7021 163.392 108.078 140.578C115.582 130.092 123.322 118.802 124.832 116.205C125.068 115.827 123.181 117.433 120.726 119.794C112.043 128.061 103.17 132.737 91.183 135.382C86.1332 136.516 73.9099 136.516 68.6714 135.382C56.165 132.642 46.7262 127.588 38.2784 118.991C35.8243 116.535 35.022 115.921 35.5412 116.913Z" fill="black"/>
<path d="M396.438 155.888V170.531H518.198H639.959V155.888V141.246H518.198H396.438V155.888Z" fill="#0164B5"/>
<path d="M160.772 142.381C157.374 143.609 155.722 145.971 155.722 149.56C155.722 151.45 155.958 151.969 157.516 153.528C158.79 154.804 160.111 155.559 162.093 156.126C170.305 158.393 171.296 158.913 171.296 161.18C171.296 163.117 169.55 164.676 166.907 165.054C163.792 165.526 160.914 164.865 156.572 162.597C156.383 162.503 155.911 163.07 155.533 163.873C154.778 165.243 154.826 165.29 156.336 166.234C158.743 167.699 163.556 168.785 166.482 168.502C171.768 167.935 175.072 165.101 175.072 161.133C175.072 157.118 173.042 155.323 166.341 153.481C161.48 152.206 160.064 151.403 159.687 150.033C159.262 148.191 159.639 147.246 161.338 146.112C163.698 144.506 167.71 144.743 172.287 146.632C173.326 147.057 174.505 144.128 173.562 143.514C170.966 141.814 164.076 141.247 160.772 142.381Z" fill="black"/>
<path d="M190.041 141.996C189.853 142.185 189.711 148.136 189.711 155.269V168.164H199.386H209.06V166.511V164.858H201.273H193.439L193.581 160.701L193.722 156.591L200.235 156.45L206.701 156.308V154.702V153.049H200.094H193.486V149.27V145.538L200.943 145.397L208.353 145.255V143.602V141.949L199.339 141.807C194.43 141.76 190.23 141.854 190.041 141.996Z" fill="black"/>
<path d="M224.188 154.891V168.164H226.075H227.963V164.149V160.134H231.927H235.844L238.629 164.149C241.366 168.117 241.413 168.164 243.443 168.164C244.528 168.164 245.425 168.07 245.425 167.928C245.425 167.786 244.103 165.85 242.499 163.582C240.705 161.032 239.809 159.426 240.186 159.284C241.225 158.953 243.584 156.733 244.245 155.458C245.944 152.104 245.472 148.089 243.018 145.302C240.753 142.704 238.534 142.09 230.936 141.807L224.188 141.571V154.891ZM238.346 146.2C240.328 147.239 241.177 148.703 241.177 151.159C241.177 155.363 238.865 156.828 232.21 156.828H227.963V151.159V145.491H232.446C235.561 145.491 237.402 145.727 238.346 146.2Z" fill="black"/>
<path d="M256.792 142.269C256.792 142.6 259.293 148.504 262.361 155.401L267.882 167.918H269.959H271.988L277.557 155.165C280.672 148.174 283.173 142.269 283.173 142.08C283.173 141.844 282.371 141.703 281.333 141.703H279.539L274.867 152.33C271.469 160.03 270.053 162.817 269.77 162.297C269.534 161.966 267.363 157.196 265.004 151.811L260.709 141.939L258.727 141.797C257.311 141.703 256.745 141.844 256.792 142.269Z" fill="black"/>
<path d="M296.375 154.891V168.164H298.263H300.151L300.056 155.033L299.915 141.949L298.168 141.807L296.375 141.665V154.891Z" fill="black"/>
<path d="M324.093 142.37C317.628 144.684 313.994 150.872 315.221 157.579C315.787 160.555 316.826 162.492 319.138 164.712C323.15 168.585 330.04 169.624 335.137 167.074C338.96 165.231 339.337 164.617 337.78 163.106C336.6 161.925 336.505 161.878 335.703 162.633C332.305 165.657 325.415 165.515 321.922 162.35C319.327 159.941 318.241 154.462 319.704 151.014C322.111 145.251 330.748 143.267 335.373 147.424C336.317 148.321 336.364 148.321 337.638 146.951L338.96 145.582L337.355 144.354C334.004 141.803 328.152 140.953 324.093 142.37Z" fill="black"/>
<path d="M353.5 154.938V168.164H362.231H370.962V166.511V164.858H364.119H357.276V160.606V156.355H363.93H370.537L370.395 154.797L370.254 153.285L363.788 153.143L357.276 153.002V149.27V145.491H364.119H370.962V143.602V141.712H362.231H353.5V154.938Z" fill="black"/>
</svg>
