<svg width="24" height="31" viewBox="0 0 24 31" fill="none" xmlns="http://www.w3.org/2000/svg">
<path d="M10.8969 9.50889L5.94248 20.1814C5.59252 20.9676 5.56569 21.8598 5.86776 22.6656C6.16984 23.4713 6.7766 24.126 7.55712 24.4883C8.33764 24.8507 9.22933 24.8916 10.0398 24.6023C10.8502 24.313 11.5144 23.7166 11.889 22.9419L18.3926 8.95746C18.7103 8.29418 18.8932 7.57442 18.9308 6.83991C18.9683 6.10541 18.8596 5.37076 18.6111 4.67856C18.3625 3.98637 17.9791 3.35039 17.4829 2.80749C16.9867 2.2646 16.3878 1.82559 15.7207 1.51591C15.0536 1.20623 14.3317 1.03205 13.5968 1.00346C12.8618 0.97487 12.1286 1.09244 11.4394 1.34935C10.7503 1.60627 10.119 1.99742 9.58219 2.50012C9.04536 3.00283 8.61365 3.6071 8.31209 4.27789L1.7744 18.3611C1.32486 19.2938 1.06524 20.3067 1.01062 21.3407C0.956008 22.3747 1.10749 23.4092 1.45626 24.3842C1.80503 25.3591 2.34413 26.255 3.04222 27.0198C3.74031 27.7845 4.58346 28.4029 5.52264 28.8389C6.46183 29.2748 7.47832 29.5198 8.51301 29.5594C9.54771 29.5991 10.58 29.4326 11.5498 29.0698C12.5196 28.707 13.4075 28.155 14.1621 27.4459C14.9167 26.7368 15.5227 25.8848 15.9451 24.9394L22.0543 11.7792" stroke="#A0A0A0" stroke-width="2" stroke-miterlimit="10" stroke-linecap="round"/>
</svg>
