<svg width="33" height="33" viewBox="0 0 33 33" fill="none" xmlns="http://www.w3.org/2000/svg">
<path d="M6.875 15.125L8.9375 8.9375H24.0625L26.125 15.125M24.0625 22C23.5155 22 22.9909 21.7827 22.6041 21.3959C22.2173 21.0091 22 20.4845 22 19.9375C22 19.3905 22.2173 18.8659 22.6041 18.4791C22.9909 18.0923 23.5155 17.875 24.0625 17.875C24.6095 17.875 25.1341 18.0923 25.5209 18.4791C25.9077 18.8659 26.125 19.3905 26.125 19.9375C26.125 20.4845 25.9077 21.0091 25.5209 21.3959C25.1341 21.7827 24.6095 22 24.0625 22ZM8.9375 22C8.39049 22 7.86589 21.7827 7.47909 21.3959C7.0923 21.0091 6.875 20.4845 6.875 19.9375C6.875 19.3905 7.0923 18.8659 7.47909 18.4791C7.86589 18.0923 8.39049 17.875 8.9375 17.875C9.48451 17.875 10.0091 18.0923 10.3959 18.4791C10.7827 18.8659 11 19.3905 11 19.9375C11 20.4845 10.7827 21.0091 10.3959 21.3959C10.0091 21.7827 9.48451 22 8.9375 22ZM26.015 8.25C25.74 7.4525 24.97 6.875 24.0625 6.875H8.9375C8.03 6.875 7.26 7.4525 6.985 8.25L4.125 16.5V27.5C4.125 27.8647 4.26987 28.2144 4.52773 28.4723C4.78559 28.7301 5.13533 28.875 5.5 28.875H6.875C7.23967 28.875 7.58941 28.7301 7.84727 28.4723C8.10513 28.2144 8.25 27.8647 8.25 27.5V26.125H24.75V27.5C24.75 27.8647 24.8949 28.2144 25.1527 28.4723C25.4106 28.7301 25.7603 28.875 26.125 28.875H27.5C27.8647 28.875 28.2144 28.7301 28.4723 28.4723C28.7301 28.2144 28.875 27.8647 28.875 27.5V16.5L26.015 8.25Z" fill="black"/>
</svg>
