<svg width="26" height="32" viewBox="0 0 26 32" fill="none" xmlns="http://www.w3.org/2000/svg">
<path d="M18.7991 19.5824C18.7991 21.3057 18.3291 25.0655 15.3526 29.452L14.0993 21.9323L15.5093 18.9558C14.5693 18.9558 13.6294 18.7991 12.5328 18.7991C11.4361 18.7991 10.4962 18.9558 9.55622 18.9558L10.9662 21.9323L9.71288 29.452C6.73635 25.2222 6.26638 21.3057 6.26638 19.5824C2.50655 20.679 0 22.7156 0 25.0655V31.3319H25.0655V25.0655C25.0655 22.7156 22.559 20.679 18.7991 19.5824ZM3.13319 3.91648C3.13319 1.72325 7.36299 0 12.5328 0C17.7025 0 21.9323 1.72325 21.9323 3.91648C21.9323 4.54312 21.619 5.0131 21.149 5.48308C19.7391 4.07314 16.4492 3.13319 12.5328 3.13319C8.61627 3.13319 5.32642 4.07314 3.91648 5.48308C3.44651 5.0131 3.13319 4.54312 3.13319 3.91648ZM18.6425 8.45961C18.7991 8.77293 18.7991 9.08624 18.7991 9.39956C18.7991 12.8461 15.9793 15.6659 12.5328 15.6659C9.08624 15.6659 6.26638 12.8461 6.26638 9.39956C6.26638 9.08624 6.26638 8.77293 6.42304 8.45961C7.98963 9.08624 10.1829 9.39956 12.5328 9.39956C14.8826 9.39956 17.0759 9.08624 18.6425 8.45961ZM19.7391 6.42303C18.0158 7.20633 15.5093 7.83297 12.5328 7.83297C9.55622 7.83297 7.04967 7.20633 5.32642 6.42303C6.42303 5.48308 9.08624 4.69978 12.5328 4.69978C15.9793 4.69978 18.6425 5.48308 19.7391 6.42303Z" fill="#FCD818"/>
</svg>
