<svg width="27" height="24" viewBox="0 0 27 24" fill="none" xmlns="http://www.w3.org/2000/svg">
<path d="M2.90393 8.71179L5.08188 2.17795H21.0535L23.2314 8.71179M21.0535 15.9716C20.4759 15.9716 19.9219 15.7422 19.5135 15.3337C19.105 14.9253 18.8755 14.3713 18.8755 13.7937C18.8755 13.216 19.105 12.6621 19.5135 12.2536C19.9219 11.8452 20.4759 11.6157 21.0535 11.6157C21.6311 11.6157 22.1851 11.8452 22.5935 12.2536C23.002 12.6621 23.2314 13.216 23.2314 13.7937C23.2314 14.3713 23.002 14.9253 22.5935 15.3337C22.1851 15.7422 21.6311 15.9716 21.0535 15.9716ZM5.08188 15.9716C4.50425 15.9716 3.95028 15.7422 3.54184 15.3337C3.13339 14.9253 2.90393 14.3713 2.90393 13.7937C2.90393 13.216 3.13339 12.6621 3.54184 12.2536C3.95028 11.8452 4.50425 11.6157 5.08188 11.6157C5.6595 11.6157 6.21347 11.8452 6.62192 12.2536C7.03036 12.6621 7.25982 13.216 7.25982 13.7937C7.25982 14.3713 7.03036 14.9253 6.62192 15.3337C6.21347 15.7422 5.6595 15.9716 5.08188 15.9716ZM23.1153 1.45197C22.8249 0.609825 22.0118 0 21.0535 0H5.08188C4.12358 0 3.31048 0.609825 3.02009 1.45197L0 10.1638V21.7795C0 22.1646 0.152974 22.5339 0.425271 22.8062C0.697567 23.0785 1.06688 23.2314 1.45196 23.2314H2.90393C3.28902 23.2314 3.65833 23.0785 3.93062 22.8062C4.20292 22.5339 4.3559 22.1646 4.3559 21.7795V20.3275H21.7795V21.7795C21.7795 22.1646 21.9324 22.5339 22.2047 22.8062C22.477 23.0785 22.8464 23.2314 23.2314 23.2314H24.6834C25.0685 23.2314 25.4378 23.0785 25.7101 22.8062C25.9824 22.5339 26.1354 22.1646 26.1354 21.7795V10.1638L23.1153 1.45197Z" fill="#FCD818"/>
</svg>
