<svg width="19" height="27" viewBox="0 0 19 27" fill="none" xmlns="http://www.w3.org/2000/svg">
<path d="M3.14918 0.585079L4.58518 0.126413C5.92918 -0.30292 7.36651 0.391746 7.94251 1.74908L9.08918 4.45308C9.58918 5.63041 9.31185 7.01575 8.40385 7.87708L5.87985 10.2744C6.0354 11.7091 6.51718 13.1211 7.32518 14.5104C8.09354 15.8542 9.12309 17.0307 10.3532 17.9704L13.3878 16.9571C14.5372 16.5744 15.7892 17.0157 16.4945 18.0517L18.1372 20.4651C18.9585 21.6704 18.8105 23.3317 17.7932 24.3531L16.7025 25.4477C15.6172 26.5371 14.0678 26.9331 12.6332 26.4851C9.24829 25.4291 6.13585 22.2944 3.29585 17.0811C0.45229 11.8589 -0.551265 7.42863 0.285179 3.79041C0.637179 2.25975 1.72785 1.03975 3.15185 0.585079" fill="black"/>
</svg>
