<svg width="55" height="55" viewBox="0 0 55 55" fill="none" xmlns="http://www.w3.org/2000/svg">
<path fill-rule="evenodd" clip-rule="evenodd" d="M13.7496 32.0846C16.2809 32.0846 18.333 34.1367 18.333 36.668C18.333 39.1993 16.2809 41.2513 13.7496 41.2513C11.2184 41.2513 9.16638 39.1993 9.16638 36.668C9.16638 34.1367 11.2184 32.0846 13.7496 32.0846ZM40.1039 32.0846C42.6352 32.0846 44.6871 34.1367 44.6871 36.668C44.6871 39.1993 42.6352 41.2513 40.1039 41.2513C37.5726 41.2513 35.5205 39.1993 35.5205 36.668C35.5205 34.1367 37.5726 32.0846 40.1039 32.0846ZM30.5551 16.043L31.1664 16.5013L39.9595 23.0967L46.9446 24.844C48.865 25.3242 50.2458 26.9764 50.4017 28.9224L50.4164 29.2906V37.3114L48.6804 37.7454L46.8042 38.2145C46.9206 37.7072 46.9792 37.1884 46.9789 36.668C46.9789 32.871 43.9008 29.793 40.1039 29.793C36.3069 29.793 33.2289 32.871 33.2289 36.668C33.2289 37.4715 33.3667 38.2429 33.6201 38.9597H20.2334C20.4932 38.2236 20.6255 37.4486 20.6246 36.668C20.6246 32.871 17.5467 29.793 13.7496 29.793C9.95271 29.793 6.87464 32.871 6.87464 36.668C6.87464 37.0164 6.90064 37.3588 6.95059 37.6933L4.58301 35.3255V24.38L5.11421 23.7425L10.8433 16.8675L11.5305 16.043H30.5551ZM29.0283 20.6263H13.6764L9.85753 25.2096H32.083L33.3927 23.8999L29.0283 20.6263Z" fill="#FABB09"/>
</svg>
