<svg width="34" height="43" viewBox="0 0 34 43" fill="none" xmlns="http://www.w3.org/2000/svg">
<path d="M14.5904 0.101871C12.9242 0.349201 10.1829 1.28551 8.69579 2.1335C2.71156 5.4901 -0.782231 12.1856 0.149445 18.4748C1.02737 24.3047 6.93994 34.3569 13.0496 40.3988C16.2925 43.5964 17.0809 43.72 19.8042 41.4587C23.2264 38.6145 27.7772 32.5019 30.8052 26.7074C33.3315 21.8844 34.1557 19.0048 33.9765 15.6482C33.5106 7.15073 26.3976 0.331532 17.6363 0.0135384C16.5613 -0.0217934 15.1817 0.0135384 14.5904 0.101871ZM19.9117 10.4013C21.2913 11.0727 22.4918 12.2916 23.1726 13.7049C23.6564 14.7296 23.728 15.0299 23.728 16.4432C23.728 17.8565 23.6564 18.1569 23.1547 19.2168C20.6463 24.4461 13.2467 24.4461 10.7741 19.2168C10.0933 17.8035 10.0037 15.6306 10.5591 14.1819C11.2579 12.327 12.5479 11.0197 14.4292 10.2423C15.3429 9.87135 15.7192 9.81835 17.1884 9.85368C18.6396 9.90668 19.0517 9.97734 19.9117 10.4013Z" fill="#FABB09"/>
</svg>
