<svg width="43" height="43" viewBox="0 0 43 43" fill="none" xmlns="http://www.w3.org/2000/svg">
<path d="M18.494 0.114204C9.73332 1.50027 2.96289 7.47104 0.706086 15.8408C-1.23086 23.0732 0.883787 30.9454 6.2326 36.2764C12.7009 42.7625 22.3679 44.3796 30.5955 40.3636C36.9394 37.2716 41.2753 31.3896 42.3237 24.4593C43.3366 17.7066 41.1687 11.0961 36.3708 6.31598C33.2432 3.18843 29.7069 1.26926 25.4243 0.380756C23.7362 0.0253525 20.0045 -0.11681 18.494 0.114204ZM25.2111 4.27242C33.1721 6.20936 38.6809 13.1042 38.6986 21.1718C38.6986 26.0408 37.046 30.128 33.6875 33.5398C30.6488 36.6318 26.6327 38.4088 22.1902 38.6221C16.9658 38.8886 12.0612 36.8984 8.50718 33.1133C7.08556 31.5851 6.44584 30.6433 5.50402 28.653C1.59459 20.3722 4.88207 10.332 12.9497 5.97835C14.5313 5.12538 15.864 4.64559 17.872 4.18356C19.7201 3.77485 23.3275 3.81039 25.2111 4.27242Z" fill="#FABB09"/>
<path d="M19.9692 9.33434L19.3828 9.84967L19.3295 15.5183C19.2939 19.2145 19.3295 21.4003 19.4539 21.8267C19.6316 22.4132 19.987 22.6797 24.003 25.2208C26.402 26.7491 28.5344 27.993 28.7476 28.0107C29.6539 28.0996 30.0093 27.993 30.5069 27.4954C30.9156 27.0689 31.0222 26.8201 31.0222 26.1982C31.0222 25.7717 30.9156 25.2919 30.7734 25.132C30.649 24.9721 28.9253 23.7992 26.9173 22.5375L23.2922 20.2452L23.2034 14.9497L23.1145 9.67197L22.6169 9.24548C21.8706 8.60576 20.7333 8.65907 19.9692 9.33434Z" fill="#FABB09"/>
</svg>
