<svg width="49" height="49" viewBox="0 0 49 49" fill="none" xmlns="http://www.w3.org/2000/svg">
<path d="M32.666 29.6107C32.666 31.8565 32.0535 36.7565 28.1743 42.4732L26.541 32.6732L28.3785 28.794C27.1535 28.794 25.9285 28.5898 24.4993 28.5898C23.0702 28.5898 21.8452 28.794 20.6202 28.794L22.4577 32.6732L20.8243 42.4732C16.9452 36.9607 16.3327 31.8565 16.3327 29.6107C11.4327 31.0398 8.16602 33.694 8.16602 36.7565V44.9232H40.8327V36.7565C40.8327 33.694 37.566 31.0398 32.666 29.6107ZM12.2493 9.19401C12.2493 6.33568 17.7618 4.08984 24.4993 4.08984C31.2368 4.08984 36.7493 6.33568 36.7493 9.19401C36.7493 10.0107 36.341 10.6232 35.7285 11.2357C33.891 9.39818 29.6035 8.17318 24.4993 8.17318C19.3952 8.17318 15.1077 9.39818 13.2702 11.2357C12.6577 10.6232 12.2493 10.0107 12.2493 9.19401ZM32.4618 15.1148C32.666 15.5232 32.666 15.9315 32.666 16.3398C32.666 20.8315 28.991 24.5065 24.4993 24.5065C20.0077 24.5065 16.3327 20.8315 16.3327 16.3398C16.3327 15.9315 16.3327 15.5232 16.5368 15.1148C18.5785 15.9315 21.4368 16.3398 24.4993 16.3398C27.5618 16.3398 30.4202 15.9315 32.4618 15.1148ZM33.891 12.4607C31.6452 13.4815 28.3785 14.2982 24.4993 14.2982C20.6202 14.2982 17.3535 13.4815 15.1077 12.4607C16.5368 11.2357 20.0077 10.2148 24.4993 10.2148C28.991 10.2148 32.4618 11.2357 33.891 12.4607Z" fill="#FABB09"/>
</svg>
