<svg width="45" height="46" viewBox="0 0 45 46" fill="none" xmlns="http://www.w3.org/2000/svg">
<path d="M19.1646 0.196831C15.3934 0.902039 12.1405 2.59453 9.44167 5.22143C6.68923 7.91884 4.81256 11.6035 4.36574 15.1825C4.24063 16.1874 4.16913 16.2755 2.86441 17.5625C1.45244 18.9553 0.540916 20.4715 0.165583 22.023C-0.0667662 23.0103 -0.0488932 25.5666 0.183456 26.5716C0.50517 27.9643 1.45244 29.6039 2.59631 30.7499C4.36574 32.5306 6.20666 33.1829 9.20932 33.0595C10.8715 33.0066 10.8894 33.0066 11.5507 32.3366L12.2299 31.6843L12.2835 24.7557C12.3192 20.1894 12.2835 17.6331 12.1405 17.1923C12.0333 16.8397 11.7115 16.3461 11.4077 16.0992C10.9251 15.6937 10.6928 15.6409 9.51316 15.6409H8.17269L8.2978 14.9004C8.70888 12.4851 9.99573 10.1755 12.0511 8.13041C14.2495 5.92664 16.5372 4.69252 19.5399 4.05783C21.363 3.6876 25.0269 3.82864 26.707 4.35755C29.4416 5.2038 32.1225 6.98444 33.7489 9.02954C35.0537 10.6691 36.1975 13.0492 36.5193 14.7946L36.6444 15.4646H35.6077C34.3566 15.4646 33.4809 15.8524 32.9268 16.681C32.5157 17.2805 32.5157 17.2981 32.5157 24.2267C32.5157 30.362 32.5515 31.2612 32.8195 31.8077C33.1949 32.6187 34.017 33.0947 35.0001 33.0947C35.8937 33.0947 35.8937 33.1123 34.9643 34.6814C33.9813 36.3387 32.0868 38.0312 30.1743 38.9656C29.245 39.4239 28.387 39.7942 28.2441 39.7942C28.119 39.7942 27.69 39.4416 27.2968 39.0008C25.9742 37.5199 25.5989 37.4141 21.7919 37.4141C18.7356 37.4141 18.4318 37.4494 17.7705 37.802C16.1798 38.6482 15.3576 39.9705 15.3576 41.6806C15.3755 43.0029 15.8045 43.9373 16.8411 44.8364C17.985 45.8413 18.6999 46 21.9885 46C25.2593 45.9824 26.1172 45.7532 27.2968 44.4838C27.833 43.902 28.1904 43.7081 28.9411 43.5318C30.4603 43.1792 33.0162 41.8922 34.5175 40.711C36.8052 38.9127 38.521 36.6031 39.7185 33.7294C40.1832 32.6011 40.4156 32.2485 41.0411 31.843C42.7927 30.6441 44.2761 28.3522 44.7587 26.1308C45.0804 24.5793 45.0804 23.9799 44.7587 22.4285C44.3476 20.5068 43.5434 19.0787 42.0599 17.6331C40.7909 16.3813 40.773 16.3637 40.5586 15.0767C40.2726 13.3137 39.6113 11.4449 38.664 9.6466C36.2333 5.0275 32.1404 1.80117 27.0287 0.461281C25.2235 -0.0147324 21.0412 -0.155773 19.1646 0.196831Z" fill="#FABB09"/>
</svg>
