<svg width="92" height="60" viewBox="0 0 92 60" fill="none" xmlns="http://www.w3.org/2000/svg">
<path d="M8.51803 59.6262C3.81366 59.6262 0 55.8125 0 51.1082V29.0232C0 27.9225 0.213303 26.8323 0.628112 25.8129L10.6991 1.06154C10.9603 0.419707 11.5841 0 12.2771 0H31.9253C33.049 0 33.8648 1.06882 33.5686 2.15276L26.9545 26.3516H32.2957C37.0001 26.3516 40.8138 30.1653 40.8138 34.8697V51.1081C40.8138 55.8125 37.0001 59.6262 32.2957 59.6262H8.51803ZM59.6989 59.6262C54.9946 59.6262 51.1809 55.8125 51.1809 51.1082V29.0232C51.1809 27.9225 51.3942 26.8323 51.809 25.8129L61.88 1.06154C62.1412 0.419707 62.765 0 63.458 0H83.1062C84.2299 0 85.0457 1.06882 84.7495 2.15276L78.1354 26.3516H83.4766C88.181 26.3516 91.9947 30.1653 91.9947 34.8697V51.1081C91.9947 55.8125 88.181 59.6262 83.4766 59.6262H59.6989Z" fill="black"/>
</svg>
