<svg width="52" height="52" viewBox="0 0 52 52" fill="none" xmlns="http://www.w3.org/2000/svg">
<path d="M46.4347 21.3822H44.7194V21.2939H25.5539V29.8119H37.5888C35.833 34.7704 31.1151 38.3299 25.5539 38.3299C18.4977 38.3299 12.7768 32.609 12.7768 25.5529C12.7768 18.4968 18.4977 12.7758 25.5539 12.7758C28.8109 12.7758 31.7741 14.0046 34.0303 16.0116L40.0537 9.98831C36.2504 6.44375 31.163 4.25781 25.5539 4.25781C13.7937 4.25781 4.25879 13.7927 4.25879 25.5529C4.25879 37.3131 13.7937 46.8479 25.5539 46.8479C37.314 46.8479 46.8489 37.3131 46.8489 25.5529C46.8489 24.125 46.702 22.7313 46.4347 21.3822Z" fill="#FFC107"/>
<path d="M6.71387 15.6411L13.7104 20.7721C15.6035 16.0851 20.1883 12.7758 25.5536 12.7758C28.8107 12.7758 31.7739 14.0046 34.0301 16.0116L40.0534 9.98831C36.2501 6.44375 31.1627 4.25781 25.5536 4.25781C17.3742 4.25781 10.2808 8.87565 6.71387 15.6411Z" fill="#FF3D00"/>
<path d="M25.5546 46.8496C31.0551 46.8496 36.0531 44.7446 39.8319 41.3214L33.2411 35.7443C31.0316 37.4256 28.331 38.3346 25.5546 38.3316C20.0158 38.3316 15.3127 34.7998 13.541 29.8711L6.59668 35.2215C10.121 42.1179 17.2783 46.8496 25.5546 46.8496Z" fill="#4CAF50"/>
<path d="M46.4346 21.3813H44.7193V21.293H25.5537V29.811H37.5886C36.7487 32.1709 35.2359 34.2331 33.237 35.7427L33.2402 35.7406L39.831 41.3178C39.3646 41.7416 46.8488 36.1995 46.8488 25.552C46.8488 24.1241 46.7018 22.7304 46.4346 21.3813Z" fill="#1976D2"/>
</svg>
