<svg width="107" height="87" viewBox="0 0 107 87" fill="none" xmlns="http://www.w3.org/2000/svg">
<rect x="0.5" y="0.5" width="106" height="86" rx="11.5" fill="white" fill-opacity="0.25" stroke="#BDBDBD"/>
<path d="M50.4375 61.875C50.4375 61.875 47.375 61.875 47.375 58.8125C47.375 55.75 50.4375 46.5625 62.6875 46.5625C74.9375 46.5625 78 55.75 78 58.8125C78 61.875 74.9375 61.875 74.9375 61.875H50.4375ZM62.6875 43.5C65.1242 43.5 67.4611 42.532 69.184 40.809C70.907 39.0861 71.875 36.7492 71.875 34.3125C71.875 31.8758 70.907 29.5389 69.184 27.816C67.4611 26.093 65.1242 25.125 62.6875 25.125C60.2508 25.125 57.9139 26.093 56.191 27.816C54.468 29.5389 53.5 31.8758 53.5 34.3125C53.5 36.7492 54.468 39.0861 56.191 40.809C57.9139 42.532 60.2508 43.5 62.6875 43.5ZM44.974 61.875C44.5202 60.9189 44.2938 59.8707 44.3125 58.8125C44.3125 54.6628 46.395 50.3906 50.2415 47.42C48.3219 46.8272 46.3214 46.5379 44.3125 46.5625C32.0625 46.5625 29 55.75 29 58.8125C29 61.875 32.0625 61.875 32.0625 61.875H44.974ZM42.7812 43.5C44.8118 43.5 46.7592 42.6934 48.195 41.2575C49.6309 39.8217 50.4375 37.8743 50.4375 35.8438C50.4375 33.8132 49.6309 31.8658 48.195 30.43C46.7592 28.9941 44.8118 28.1875 42.7812 28.1875C40.7507 28.1875 38.8033 28.9941 37.3675 30.43C35.9316 31.8658 35.125 33.8132 35.125 35.8438C35.125 37.8743 35.9316 39.8217 37.3675 41.2575C38.8033 42.6934 40.7507 43.5 42.7812 43.5Z" fill="white"/>
</svg>
