<svg width="107" height="87" viewBox="0 0 107 87" fill="none" xmlns="http://www.w3.org/2000/svg">
<rect x="0.5" y="0.5" width="106" height="86" rx="11.5" fill="white" fill-opacity="0.25" stroke="#BDBDBD"/>
<path fill-rule="evenodd" clip-rule="evenodd" d="M38.2506 48.5846C41.058 48.5846 43.334 50.8605 43.334 53.668C43.334 56.4754 41.058 58.7513 38.2506 58.7513C35.4432 58.7513 33.1674 56.4754 33.1674 53.668C33.1674 50.8605 35.4432 48.5846 38.2506 48.5846ZM67.4799 48.5846C70.2873 48.5846 72.5631 50.8605 72.5631 53.668C72.5631 56.4754 70.2873 58.7513 67.4799 58.7513C64.6724 58.7513 62.3965 56.4754 62.3965 53.668C62.3965 50.8605 64.6724 48.5846 67.4799 48.5846ZM56.8895 30.793L57.5674 31.3013L67.3197 38.6162L75.0669 40.5542C77.1967 41.0867 78.7282 42.9191 78.901 45.0775L78.9174 45.4858V54.3816L76.9921 54.863L74.9111 55.3832C75.0402 54.8206 75.1052 54.2452 75.1049 53.668C75.1049 49.4568 71.691 46.043 67.4799 46.043C63.2687 46.043 59.8549 49.4568 59.8549 53.668C59.8549 54.5591 60.0077 55.4147 60.2888 56.2097H45.4417C45.7298 55.3933 45.8766 54.5337 45.8756 53.668C45.8756 49.4568 42.4619 46.043 38.2506 46.043C34.0395 46.043 30.6256 49.4568 30.6256 53.668C30.6256 54.0545 30.6544 54.4342 30.7098 54.8052L28.084 52.1791V40.0395L28.6731 39.3325L35.0273 31.7075L35.7894 30.793H56.8895ZM55.196 35.8763H38.1694L33.9339 40.9596H58.584L60.0366 39.507L55.196 35.8763Z" fill="white"/>
</svg>
