<svg width="107" height="87" viewBox="0 0 107 87" fill="none" xmlns="http://www.w3.org/2000/svg">
<rect x="0.5" y="0.5" width="106" height="86" rx="11.5" fill="white" fill-opacity="0.25" stroke="#BDBDBD"/>
<path d="M62.7077 50.1245V64.1548C62.7077 64.3354 62.6598 64.5128 62.5689 64.6689C62.478 64.8249 62.3473 64.9541 62.1902 65.0431C62.033 65.1322 61.8551 65.178 61.6745 65.1758C61.4939 65.1736 61.3171 65.1235 61.1621 65.0307L52.4993 59.8326L43.8366 65.0307C43.6815 65.1236 43.5045 65.1737 43.3237 65.1758C43.1429 65.1779 42.9648 65.1319 42.8076 65.0426C42.6504 64.9533 42.5198 64.8239 42.429 64.6675C42.3382 64.5112 42.2906 64.3335 42.291 64.1528V50.1265C39.6494 48.0115 37.7299 45.1283 36.7978 41.8752C35.8657 38.6221 35.9671 35.1598 37.0878 31.9668C38.2086 28.7738 40.2934 26.0078 43.0542 24.0509C45.8149 22.094 49.1154 21.043 52.4993 21.043C55.8833 21.043 59.1838 22.094 61.9445 24.0509C64.7053 26.0078 66.7901 28.7738 67.9109 31.9668C69.0316 35.1598 69.133 38.6221 68.2009 41.8752C67.2688 45.1283 65.3493 48.0115 62.7077 50.1265M52.4993 49.6243C55.7483 49.6243 58.8641 48.3336 61.1614 46.0363C63.4587 43.739 64.7493 40.6232 64.7493 37.3743C64.7493 34.1254 63.4587 31.0095 61.1614 28.7122C58.8641 26.4149 55.7483 25.1243 52.4993 25.1243C49.2504 25.1243 46.1346 26.4149 43.8373 28.7122C41.54 31.0095 40.2493 34.1254 40.2493 37.3743C40.2493 40.6232 41.54 43.739 43.8373 46.0363C46.1346 48.3336 49.2504 49.6243 52.4993 49.6243ZM52.4993 45.5409C50.3334 45.5409 48.2562 44.6805 46.7246 43.149C45.1931 41.6174 44.3327 39.5402 44.3327 37.3743C44.3327 35.2083 45.1931 33.1311 46.7246 31.5996C48.2562 30.068 50.3334 29.2076 52.4993 29.2076C54.6653 29.2076 56.7425 30.068 58.2741 31.5996C59.8056 33.1311 60.666 35.2083 60.666 37.3743C60.666 39.5402 59.8056 41.6174 58.2741 43.149C56.7425 44.6805 54.6653 45.5409 52.4993 45.5409Z" fill="white"/>
</svg>
