<svg width="107" height="87" viewBox="0 0 107 87" fill="none" xmlns="http://www.w3.org/2000/svg">
<rect x="0.5" y="0.5" width="106" height="86" rx="11.5" fill="white" fill-opacity="0.25" stroke="#BDBDBD"/>
<path d="M53.5 22.0625C45.0465 22.0625 38.1875 28.2363 38.1875 35.8438C38.1875 48.0938 53.5 64.9375 53.5 64.9375C53.5 64.9375 68.8125 48.0938 68.8125 35.8438C68.8125 28.2363 61.9535 22.0625 53.5 22.0625ZM53.5 43.5C52.2886 43.5 51.1044 43.1408 50.0971 42.4678C49.0899 41.7947 48.3048 40.8381 47.8412 39.7189C47.3777 38.5997 47.2564 37.3682 47.4927 36.1801C47.729 34.9919 48.3124 33.9006 49.169 33.044C50.0256 32.1874 51.1169 31.604 52.3051 31.3677C53.4932 31.1314 54.7247 31.2527 55.8439 31.7162C56.9631 32.1798 57.9197 32.9649 58.5928 33.9721C59.2658 34.9794 59.625 36.1636 59.625 37.375C59.6232 38.9989 58.9773 40.5558 57.8291 41.7041C56.6808 42.8523 55.1239 43.4982 53.5 43.5Z" fill="white"/>
</svg>
