<svg width="8" height="12" viewBox="0 0 8 12" fill="none" xmlns="http://www.w3.org/2000/svg">
<path d="M6.8749 1.72088H5.97259C5.87396 1.23522 5.61051 0.79858 5.22677 0.484953C4.84304 0.17133 4.36272 0 3.86713 0C3.37155 0 2.89122 0.17133 2.50752 0.484953C2.12381 0.79858 1.86032 1.23522 1.7617 1.72088H0.859363C0.631449 1.72088 0.412865 1.81143 0.251703 1.97259C0.090541 2.13375 0 2.35233 0 2.58025V9.02548C0 9.25339 0.090541 9.47201 0.251703 9.63315C0.412865 9.7943 0.631449 9.88484 0.859363 9.88484V10.7442C0.859363 10.8582 0.904636 10.9675 0.985217 11.048C1.0658 11.1287 1.17509 11.1739 1.28905 11.1739C1.40301 11.1739 1.5123 11.1287 1.59288 11.048C1.67346 10.9675 1.71873 10.8582 1.71873 10.7442V9.88484H6.01554V10.7442C6.01554 10.8582 6.06081 10.9675 6.14143 11.048C6.222 11.1287 6.33129 11.1739 6.44522 11.1739C6.5592 11.1739 6.66849 11.1287 6.74906 11.048C6.82968 10.9675 6.8749 10.8582 6.8749 10.7442V9.88484C7.10287 9.88484 7.32144 9.7943 7.48258 9.63315C7.64377 9.47201 7.73432 9.25339 7.73432 9.02548V2.58025C7.73432 2.35233 7.64377 2.13375 7.48258 1.97259C7.32144 1.81143 7.10287 1.72088 6.8749 1.72088ZM3.86713 0.861517C4.13311 0.862268 4.3923 0.945255 4.60922 1.09911C4.82615 1.25296 4.99019 1.47015 5.07885 1.72088H2.65542C2.74407 1.47015 2.90812 1.25296 3.12504 1.09911C3.34197 0.945255 3.60121 0.862268 3.86713 0.861517ZM4.7265 3.8693H3.00777C2.89384 3.8693 2.78455 3.82403 2.70393 3.74345C2.62337 3.66287 2.5781 3.55358 2.5781 3.43962C2.5781 3.32566 2.62337 3.21636 2.70393 3.13578C2.78455 3.0552 2.89384 3.00993 3.00777 3.00993H4.7265C4.84048 3.00993 4.94976 3.0552 5.03033 3.13578C5.11091 3.21636 5.15618 3.32566 5.15618 3.43962C5.15618 3.55358 5.11091 3.66287 5.03033 3.74345C4.94976 3.82403 4.84048 3.8693 4.7265 3.8693Z" fill="#0164B5"/>
</svg>
