<svg width="20" height="20" viewBox="0 0 20 20" fill="none" xmlns="http://www.w3.org/2000/svg">
<path d="M5.46811 0C5.64705 0 5.81867 0.0710861 5.9452 0.19762C6.07174 0.324154 6.14282 0.495772 6.14282 0.674718V1.93644H13.3883V0.683393C13.3883 0.504447 13.4594 0.332829 13.5859 0.206295C13.7125 0.0797611 13.8841 0.00867494 14.063 0.00867494C14.242 0.00867494 14.4136 0.0797611 14.5401 0.206295C14.6667 0.332829 14.7378 0.504447 14.7378 0.683393V1.93644H17.3499C17.861 1.93644 18.3512 2.13941 18.7127 2.50073C19.0742 2.86205 19.2774 3.35213 19.2777 3.86324V17.3509C19.2774 17.862 19.0742 18.352 18.7127 18.7134C18.3512 19.0747 17.861 19.2777 17.3499 19.2777H1.92777C1.41666 19.2777 0.926468 19.0747 0.56497 18.7134C0.203472 18.352 0.000255554 17.862 0 17.3509L0 3.86324C0.000255554 3.35213 0.203472 2.86205 0.56497 2.50073C0.926468 2.13941 1.41666 1.93644 1.92777 1.93644H4.79339V0.673754C4.79364 0.494975 4.86484 0.323605 4.99135 0.197279C5.11786 0.0709536 5.28933 -1.82428e-07 5.46811 0ZM1.34944 7.46238V17.3509C1.34944 17.4268 1.36439 17.502 1.39346 17.5722C1.42252 17.6423 1.46512 17.7061 1.51882 17.7598C1.57253 17.8135 1.63628 17.8561 1.70645 17.8852C1.77661 17.9142 1.85182 17.9292 1.92777 17.9292H17.3499C17.4258 17.9292 17.501 17.9142 17.5712 17.8852C17.6414 17.8561 17.7051 17.8135 17.7588 17.7598C17.8125 17.7061 17.8551 17.6423 17.8842 17.5722C17.9133 17.502 17.9282 17.4268 17.9282 17.3509V7.47587L1.34944 7.46238ZM6.42621 14.091V15.6968H4.81941V14.091H6.42621ZM10.4417 14.091V15.6968H8.83591V14.091H10.4417ZM14.4582 14.091V15.6968H12.8514V14.091H14.4582ZM6.42621 10.2576V11.8635H4.81941V10.2576H6.42621ZM10.4417 10.2576V11.8635H8.83591V10.2576H10.4417ZM14.4582 10.2576V11.8635H12.8514V10.2576H14.4582ZM4.79339 3.28491H1.92777C1.85182 3.28491 1.77661 3.29987 1.70645 3.32893C1.63628 3.358 1.57253 3.4006 1.51882 3.4543C1.46512 3.508 1.42252 3.57176 1.39346 3.64192C1.36439 3.71209 1.34944 3.78729 1.34944 3.86324V6.11391L17.9282 6.1274V3.86324C17.9282 3.78729 17.9133 3.71209 17.8842 3.64192C17.8551 3.57176 17.8125 3.508 17.7588 3.4543C17.7051 3.4006 17.6414 3.358 17.5712 3.32893C17.501 3.29987 17.4258 3.28491 17.3499 3.28491H14.7378V4.18036C14.7378 4.3593 14.6667 4.53092 14.5401 4.65746C14.4136 4.78399 14.242 4.85508 14.063 4.85508C13.8841 4.85508 13.7125 4.78399 13.5859 4.65746C13.4594 4.53092 13.3883 4.3593 13.3883 4.18036V3.28491H6.14282V4.17168C6.14282 4.35063 6.07174 4.52225 5.9452 4.64878C5.81867 4.77532 5.64705 4.8464 5.46811 4.8464C5.28916 4.8464 5.11754 4.77532 4.99101 4.64878C4.86447 4.52225 4.79339 4.35063 4.79339 4.17168V3.28491Z" fill="#5E5E5E"/>
</svg>
