<svg width="10" height="10" viewBox="0 0 10 10" fill="none" xmlns="http://www.w3.org/2000/svg">
<path d="M7.52589 2.79385C7.492 2.78901 7.4581 2.78901 7.42421 2.79385C6.67369 2.76964 6.07812 2.1547 6.07812 1.39935C6.07812 0.629463 6.70275 0 7.47747 0C8.24735 0 8.87682 0.624621 8.87682 1.39935C8.87197 2.1547 8.27641 2.76964 7.52589 2.79385Z" fill="#0164B5"/>
<path d="M9.10693 6.14716C8.56463 6.51032 7.80443 6.64589 7.10233 6.5539C7.28633 6.15685 7.38317 5.71622 7.38801 5.25139C7.38801 4.76719 7.28149 4.30719 7.07812 3.90531C7.79474 3.80847 8.55494 3.94404 9.10209 4.30719C9.86713 4.81077 9.86713 5.63875 9.10693 6.14716Z" fill="#0164B5"/>
<path d="M2.15858 2.79385C2.19248 2.78901 2.22637 2.78901 2.26027 2.79385C3.01078 2.76964 3.60635 2.1547 3.60635 1.39935C3.60635 0.624621 2.98173 0 2.207 0C1.43712 0 0.8125 0.624621 0.8125 1.39935C0.8125 2.1547 1.40807 2.76964 2.15858 2.79385Z" fill="#0164B5"/>
<path d="M2.20554 5.25148C2.20554 5.72116 2.30723 6.16662 2.49122 6.56851C1.8085 6.64114 1.09672 6.49588 0.57378 6.1521C-0.19126 5.64369 -0.19126 4.8157 0.57378 4.30729C1.09188 3.95866 1.82302 3.81824 2.51059 3.89571C2.31207 4.30244 2.20554 4.76244 2.20554 5.25148Z" fill="#0164B5"/>
<path d="M4.90829 6.71319C4.86955 6.70835 4.82597 6.70835 4.78239 6.71319C3.89146 6.68414 3.17969 5.95299 3.17969 5.05238C3.18453 4.13239 3.92535 3.38672 4.85018 3.38672C5.77017 3.38672 6.51584 4.13239 6.51584 5.05238C6.511 5.95299 5.80406 6.68414 4.90829 6.71319Z" fill="#0164B5"/>
<path d="M3.34523 7.7145C2.61409 8.20354 2.61409 9.00732 3.34523 9.49152C4.17806 10.0484 5.54351 10.0484 6.37634 9.49152C7.10748 9.00248 7.10748 8.1987 6.37634 7.7145C5.54835 7.15767 4.1829 7.15767 3.34523 7.7145Z" fill="#0164B5"/>
</svg>
