<svg width="22" height="22" viewBox="0 0 22 22" fill="none" xmlns="http://www.w3.org/2000/svg">
<path d="M10.6055 19.8829C8.77061 19.8829 6.97692 19.3388 5.45127 18.3194C3.92561 17.2999 2.73651 15.851 2.03433 14.1558C1.33214 12.4606 1.14842 10.5952 1.50639 8.79558C1.86436 6.99594 2.74794 5.34287 4.04541 4.04541C5.34287 2.74794 6.99594 1.86436 8.79558 1.50639C10.5952 1.14842 12.4606 1.33214 14.1558 2.03433C15.851 2.73651 17.2999 3.92561 18.3194 5.45127C19.3388 6.97692 19.8829 8.77061 19.8829 10.6055C19.8829 13.066 18.9054 15.4257 17.1656 17.1656C15.4257 18.9054 13.066 19.8829 10.6055 19.8829ZM10.6055 2.65347C9.03274 2.65347 7.49529 3.11985 6.18759 3.99363C4.87988 4.86741 3.86065 6.10935 3.25878 7.56239C2.65691 9.01543 2.49943 10.6143 2.80626 12.1569C3.11309 13.6994 3.87045 15.1163 4.98256 16.2284C6.09468 17.3405 7.51159 18.0979 9.05414 18.4047C10.5967 18.7116 12.1956 18.5541 13.6486 17.9522C15.1017 17.3503 16.3436 16.3311 17.2174 15.0234C18.0912 13.7157 18.5575 12.1783 18.5575 10.6055C18.5575 8.49649 17.7197 6.47386 16.2284 4.98256C14.7371 3.49127 12.7145 2.65347 10.6055 2.65347Z" fill="#5E5E5E"/>
<path d="M13.6496 14.5807L9.94531 10.8763V4.64062H11.2707V10.3263L14.584 13.6463L13.6496 14.5807Z" fill="#5E5E5E"/>
</svg>
