<svg width="84" height="84" viewBox="0 0 84 84" fill="none" xmlns="http://www.w3.org/2000/svg">
<rect width="83.3333" height="83.3333" rx="8.33333" fill="#FCD617"/>
<path d="M30.0557 31.5911C29.5973 31.6969 29.1962 31.9305 28.8523 32.292C28.5085 32.6534 28.2837 33.0634 28.1779 33.5218C28.1603 33.61 28.1426 34.4916 28.125 36.1667C28.125 37.8417 28.125 39.6755 28.125 41.668C28.125 43.6604 28.125 45.4942 28.125 47.1693C28.1426 48.8443 28.1603 49.726 28.1779 49.8141C28.2837 50.2902 28.5129 50.7046 28.8656 51.0572C29.2182 51.4099 29.6326 51.6391 30.1086 51.7449C30.2497 51.7801 31.5104 51.7978 33.8908 51.7978C36.2535 51.8154 38.8455 51.8242 41.6667 51.8242C44.4878 51.8242 47.0798 51.8154 49.4425 51.7978C51.8229 51.7978 53.0836 51.7801 53.2247 51.7449C53.7008 51.6391 54.1151 51.4099 54.4678 51.0572C54.8204 50.7046 55.0496 50.2902 55.1554 49.8141C55.1731 49.726 55.1907 48.8443 55.2083 47.1693C55.2083 45.4942 55.2083 43.6604 55.2083 41.668C55.2083 39.6755 55.2083 37.8417 55.2083 36.1667C55.1907 34.4916 55.1731 33.61 55.1554 33.5218C55.0496 33.0457 54.8248 32.6314 54.481 32.2787C54.1372 31.9261 53.7272 31.6969 53.2511 31.5911C53.1277 31.5558 51.867 31.5382 49.469 31.5382C47.0886 31.5205 44.479 31.5117 41.6402 31.5117C38.8014 31.5117 36.1918 31.5205 33.8114 31.5382C31.4311 31.5558 30.1792 31.5734 30.0557 31.5911ZM53.066 33.2044C53.1365 33.2221 53.2071 33.2617 53.2776 33.3234C53.3481 33.3852 53.401 33.4425 53.4363 33.4954C53.5068 33.5835 53.5509 33.6585 53.5685 33.7202C53.5862 33.7819 53.595 33.8745 53.595 33.9979C53.595 34.1037 53.5862 34.1918 53.5685 34.2624C53.5509 34.3329 53.5244 34.3946 53.4892 34.4475C53.4715 34.4828 52.872 34.906 51.6907 35.717C50.5093 36.5105 49.2045 37.3833 47.7763 38.3354C46.3481 39.2876 45.0345 40.1604 43.8354 40.9539C42.6364 41.7473 41.9929 42.1529 41.9047 42.1705C41.8518 42.2058 41.7901 42.2234 41.7196 42.2234C41.649 42.2234 41.5785 42.2234 41.508 42.2234C41.4551 42.2058 40.8291 41.8002 39.6301 41.0068C38.4135 40.2133 37.0867 39.3405 35.6496 38.3883C34.2126 37.4362 32.8946 36.5546 31.6956 35.7435C30.4966 34.9324 29.8794 34.5004 29.8442 34.4475C29.7031 34.2359 29.6722 34.0023 29.7516 33.7466C29.8309 33.491 30.0028 33.3102 30.2673 33.2044C30.3731 33.1515 30.955 33.1207 32.0129 33.1119C33.0709 33.103 36.2888 33.0986 41.6667 33.0986C47.0798 33.0986 50.3065 33.103 51.3468 33.1119C52.3872 33.1207 52.9602 33.1515 53.066 33.2044ZM35.1074 39.9224C36.5709 40.9098 37.8493 41.7605 38.9425 42.4746C40.0357 43.1888 40.6175 43.5634 40.6881 43.5987C41.0055 43.7398 41.3405 43.8103 41.6931 43.8103C42.0458 43.8103 42.3808 43.731 42.6982 43.5723C42.7863 43.537 43.3726 43.1623 44.457 42.4482C45.5414 41.7341 46.8065 40.901 48.2524 39.9488C49.6982 38.979 50.9413 38.1503 51.9816 37.4626C53.0219 36.775 53.5509 36.4223 53.5685 36.4047C53.5862 36.3871 53.5994 36.8147 53.6082 37.6875C53.617 38.5603 53.6214 40.3367 53.6214 43.0168L53.595 49.629L53.4363 49.8406C53.401 49.8935 53.3481 49.9508 53.2776 50.0125C53.2071 50.0742 53.1365 50.1139 53.066 50.1315C52.9602 50.1844 52.3872 50.2153 51.3468 50.2241C50.3065 50.2329 47.0798 50.2373 41.6667 50.2373C36.2535 50.2373 33.0268 50.2329 31.9865 50.2241C30.9462 50.2153 30.3731 50.1844 30.2673 50.1315C30.1968 50.1139 30.1263 50.0742 30.0557 50.0125C29.9852 49.9508 29.9323 49.8935 29.8971 49.8406L29.7384 49.629L29.7119 43.0168C29.7119 41.1831 29.7163 39.6182 29.7251 38.3222C29.734 37.0262 29.7384 36.3783 29.7384 36.3783C29.7384 36.3783 30.2629 36.7265 31.3121 37.423C32.3612 38.1195 33.6263 38.9526 35.1074 39.9224Z" fill="black"/>
</svg>
