<svg width="84" height="84" viewBox="0 0 84 84" fill="none" xmlns="http://www.w3.org/2000/svg">
<rect width="83.3333" height="83.3333" rx="8.33333" fill="#FCD617"/>
<path d="M40.5016 29.0208C39.8315 29.1089 39.1615 29.2632 38.4915 29.4836C37.8215 29.704 37.1955 29.9817 36.6136 30.3167C35.4499 31.0044 34.4625 31.8992 33.6514 33.0013C32.8403 34.1033 32.2673 35.3331 31.9322 36.6908C31.7559 37.3785 31.6501 38.0838 31.6149 38.8067C31.5972 39.512 31.6457 40.2173 31.7603 40.9226C31.8749 41.6279 32.0645 42.3067 32.329 42.9591C32.5935 43.6292 32.9197 44.2551 33.3076 44.837C33.4134 44.9781 33.8189 45.507 34.5242 46.4239C35.2471 47.3408 36.0229 48.3326 36.8517 49.3994C37.6804 50.4661 38.4562 51.4491 39.1791 52.3484C39.8844 53.2476 40.2812 53.7413 40.3693 53.8295C40.4222 53.8824 40.4972 53.9441 40.5941 54.0146C40.6911 54.0852 40.7837 54.1469 40.8719 54.1998C40.9953 54.2527 41.1011 54.288 41.1892 54.3056C41.2774 54.3232 41.4096 54.332 41.586 54.332C41.8504 54.332 42.0753 54.2924 42.2604 54.213C42.4455 54.1337 42.6175 54.0058 42.7761 53.8295C42.829 53.7766 43.1817 53.3534 43.8341 52.56C44.4689 51.7489 45.183 50.8408 45.9764 49.8358C46.7699 48.8307 47.5281 47.8698 48.251 46.9529C48.9563 46.0536 49.4147 45.4629 49.6263 45.1808C50.0848 44.5813 50.4639 43.9554 50.7636 43.303C51.0634 42.6506 51.2926 41.9761 51.4513 41.2797C51.61 40.5832 51.6893 39.8735 51.6893 39.1506C51.6893 38.4453 51.6188 37.7223 51.4777 36.9818C51.319 36.2236 51.059 35.4654 50.6975 34.7072C50.336 33.949 49.9084 33.2702 49.4147 32.6707C49.1855 32.3885 48.8681 32.0579 48.4626 31.6788C48.057 31.2997 47.7132 31.0044 47.4311 30.7928C46.9198 30.4402 46.3203 30.114 45.6326 29.8142C44.9449 29.5145 44.2925 29.3029 43.6754 29.1794C43.1641 29.0737 42.6263 29.0075 42.062 28.9811C41.4978 28.9546 40.9776 28.9679 40.5016 29.0208ZM42.4588 30.7135C43.0054 30.7664 43.5035 30.8589 43.9531 30.9912C44.4027 31.1234 44.8656 31.3041 45.3417 31.5334C46.5054 32.0976 47.4884 32.9175 48.2907 33.9931C49.0929 35.0687 49.6263 36.2765 49.8908 37.6165C49.9613 37.9868 49.9966 38.5026 49.9966 39.1638C49.9966 39.825 49.9525 40.3407 49.8644 40.711C49.7586 41.2576 49.5822 41.813 49.3354 42.3773C49.0885 42.9415 48.8152 43.4352 48.5155 43.8584C48.4626 43.9289 48.1011 44.3962 47.4311 45.2602C46.7611 46.1242 46.0161 47.0675 45.1962 48.0902C44.3763 49.1128 43.6137 50.0738 42.9084 50.9731C42.2031 51.8547 41.7976 52.366 41.6918 52.5071L41.586 52.6658L38.3328 48.5398C37.4335 47.3937 36.6401 46.3798 35.9524 45.4982C35.2648 44.6166 34.8768 44.1141 34.7887 43.9906C34.6124 43.7438 34.4184 43.4044 34.2068 42.9724C33.9952 42.5404 33.8365 42.1657 33.7307 41.8483C33.4486 41.002 33.3076 40.1159 33.3076 39.1902C33.3076 38.2645 33.4486 37.3697 33.7307 36.5057C33.8365 36.1707 34.0173 35.7519 34.2729 35.2494C34.5286 34.7469 34.7622 34.3457 34.9738 34.046C35.4146 33.4465 35.9083 32.9263 36.4549 32.4855C37.0192 32.0271 37.6231 31.6568 38.2667 31.3747C38.9103 31.0926 39.5847 30.8898 40.29 30.7664C40.9953 30.6606 41.7182 30.6429 42.4588 30.7135ZM40.7132 34.2576C40.0079 34.3986 39.3599 34.7028 38.7692 35.17C38.1785 35.6373 37.7245 36.1971 37.4071 36.8495C37.2484 37.1845 37.1382 37.4931 37.0765 37.7752C37.0148 38.0573 36.9839 38.4012 36.9839 38.8067C36.9839 39.0888 36.9927 39.3048 37.0104 39.4547C37.028 39.6046 37.0633 39.7589 37.1162 39.9176C37.3806 40.9579 37.9272 41.7998 38.756 42.4434C39.5847 43.087 40.528 43.4088 41.586 43.4088C42.4852 43.4088 43.3095 43.1707 44.0589 42.6947C44.8083 42.2186 45.3769 41.575 45.7648 40.7639C45.9235 40.4289 46.0337 40.1203 46.0954 39.8382C46.1572 39.5561 46.188 39.2035 46.188 38.7803C46.188 38.4629 46.1792 38.2337 46.1616 38.0926C46.1439 37.9516 46.0999 37.7752 46.0293 37.5636C45.7825 36.7173 45.3461 36.0032 44.7201 35.4213C44.0942 34.8394 43.3668 34.4603 42.5381 34.284C42.3265 34.2488 42.018 34.2267 41.6124 34.2179C41.2069 34.2091 40.9071 34.2223 40.7132 34.2576ZM42.4852 36.0032C43.1729 36.2148 43.7107 36.6512 44.0986 37.3124C44.4865 37.9736 44.6011 38.6568 44.4424 39.3621C44.2132 40.473 43.5608 41.2047 42.4852 41.5574C41.4096 41.91 40.4487 41.7072 39.6023 40.9491C39.1439 40.5082 38.8529 39.9661 38.7295 39.3225C38.6061 38.6789 38.6854 38.0662 38.9676 37.4843C39.091 37.2551 39.2849 37.0082 39.5494 36.7437C39.8139 36.4792 40.0608 36.2941 40.29 36.1883C40.6426 36.012 40.9997 35.9106 41.3612 35.8842C41.7226 35.8577 42.0973 35.8974 42.4852 36.0032Z" fill="black"/>
</svg>
