<svg width="84" height="84" viewBox="0 0 84 84" fill="none" xmlns="http://www.w3.org/2000/svg">
<rect width="83.3333" height="83.3333" rx="8.33333" fill="#FCD617"/>
<path d="M34.3163 29.0509C34.0166 29.1567 33.6419 29.4035 33.1923 29.7914C32.7426 30.1793 32.2445 30.6819 31.6979 31.299C31.1689 31.9161 30.662 32.5597 30.1771 33.2297C29.6922 33.8998 29.3528 34.4376 29.1589 34.8431L28.9473 35.2398L29.0266 35.7688C29.15 36.8267 29.4498 37.9464 29.9259 39.1278C30.4019 40.3091 31.0191 41.4949 31.7773 42.6851C32.5355 43.8753 33.4171 45.0434 34.4221 46.1895C35.4272 47.3533 36.5204 48.42 37.7017 49.3898C38.5305 50.0775 39.368 50.7034 40.2144 51.2677C41.0783 51.8495 41.9291 52.3476 42.7666 52.762C43.6042 53.1764 44.4285 53.5158 45.2396 53.7803C46.033 54.0448 46.8 54.2211 47.5406 54.3092C47.7875 54.3445 47.9462 54.3577 48.0167 54.3489C48.0872 54.3401 48.2018 54.3092 48.3605 54.2563C48.6779 54.1329 49.0746 53.9037 49.5507 53.5687C50.0444 53.2337 50.5513 52.859 51.0715 52.4446C51.5916 52.0303 52.0809 51.6027 52.5394 51.1619C53.0155 50.7211 53.3946 50.3243 53.6767 49.9717C54.0117 49.5485 54.2189 49.2003 54.2982 48.927C54.3776 48.6537 54.3467 48.3671 54.2056 48.0674C54.0822 47.8205 53.9147 47.6001 53.7031 47.4062C53.4915 47.2122 53.0684 46.9036 52.4336 46.4805C51.7283 46.0044 51.1156 45.6121 50.5954 45.3035C50.0753 44.9949 49.5683 44.7172 49.0746 44.4704C48.2988 44.0825 47.7213 43.8709 47.3422 43.8356C46.9631 43.8003 46.5885 43.9326 46.2182 44.2323C46.1653 44.2852 46.0507 44.4087 45.8743 44.6026C45.698 44.7966 45.5217 44.9993 45.3454 45.2109C45.1514 45.4225 44.9839 45.6033 44.8429 45.7531C44.7018 45.903 44.6225 45.9868 44.6048 46.0044C44.5519 46.0044 44.3403 45.9295 43.9701 45.7796C43.5998 45.6297 43.2559 45.4754 42.9386 45.3167C41.8806 44.7525 40.9373 44.056 40.1086 43.2273C39.2798 42.3986 38.5834 41.4552 38.0191 40.3973C37.8604 40.0799 37.7062 39.7361 37.5563 39.3658C37.4064 38.9955 37.3315 38.7839 37.3315 38.731C37.3491 38.7134 37.4328 38.6341 37.5827 38.493C37.7326 38.3519 37.9133 38.1844 38.1249 37.9905C38.6892 37.5144 39.0594 37.1529 39.2358 36.9061C39.4121 36.6592 39.5002 36.3859 39.5002 36.0862C39.5002 35.6983 39.2798 35.0723 38.839 34.2083C38.3982 33.3443 37.7458 32.26 36.8818 30.9552C36.6526 30.6025 36.4366 30.2895 36.2338 30.0162C36.0311 29.7429 35.8944 29.571 35.8239 29.5005C35.5947 29.2889 35.3346 29.139 35.0437 29.0509C34.7527 28.9627 34.5103 28.9627 34.3163 29.0509ZM35.1098 31.299C35.533 31.8985 35.9605 32.5641 36.3925 33.2959C36.8245 34.0276 37.1904 34.7109 37.4902 35.3456C37.5783 35.5219 37.6533 35.6762 37.715 35.8085C37.7767 35.9407 37.8075 36.0068 37.8075 36.0068C37.8075 36.0245 37.7458 36.0906 37.6224 36.2052C37.499 36.3198 37.3491 36.4476 37.1728 36.5887C36.7496 36.9414 36.4058 37.2455 36.1413 37.5012C35.8768 37.7569 35.7005 37.9464 35.6123 38.0698L35.4536 38.2814L35.5594 38.7046C35.7357 39.4275 36.0443 40.2166 36.4851 41.0717C36.9259 41.9269 37.4196 42.6983 37.9662 43.386C38.8302 44.4439 39.8441 45.3608 41.0078 46.1366C42.1715 46.9125 43.3441 47.4502 44.5255 47.75C44.6489 47.7853 44.7635 47.8117 44.8693 47.8293C44.9751 47.847 45.0456 47.847 45.0809 47.8293C45.1691 47.8117 45.3542 47.6662 45.6363 47.3929C45.9184 47.1196 46.2358 46.7714 46.5885 46.3482C46.7824 46.119 46.9499 45.925 47.091 45.7664C47.232 45.6077 47.3026 45.5283 47.3026 45.5283C47.3202 45.5283 47.3951 45.5592 47.5274 45.6209C47.6596 45.6826 47.8139 45.7575 47.9902 45.8457C48.5897 46.1278 49.2598 46.4893 50.0003 46.9301C50.7409 47.3709 51.4109 47.8029 52.0104 48.2261L52.6187 48.6493L52.1956 49.1253C51.984 49.3545 51.6666 49.6675 51.2434 50.0642C50.8202 50.461 50.4411 50.8004 50.1061 51.0825C49.8593 51.2765 49.5198 51.5321 49.0879 51.8495C48.6559 52.1669 48.3517 52.3785 48.1754 52.4843L47.858 52.6694L47.5142 52.6165C46.6854 52.4755 45.8303 52.2286 44.9487 51.876C44.0494 51.5233 43.1457 51.0825 42.2377 50.5535C41.3296 50.0246 40.4259 49.4074 39.5267 48.7021C38.6274 47.9969 37.7635 47.2298 36.9347 46.4011C36.3352 45.8016 35.771 45.1757 35.242 44.5233C34.6954 43.8885 34.1929 43.2405 33.7345 42.5793C33.276 41.9181 32.8617 41.2525 32.4914 40.5824C32.1211 39.93 31.8125 39.2865 31.5657 38.6517C31.3717 38.1756 31.1998 37.6863 31.0499 37.1838C30.9001 36.6813 30.7898 36.2272 30.7193 35.8217L30.6664 35.4779L30.8516 35.1605C31.1689 34.6315 31.6715 33.9527 32.3591 33.1239C33.0468 32.2952 33.6551 31.6428 34.1841 31.1667C34.3075 31.0433 34.4177 30.9375 34.5147 30.8494C34.6117 30.7612 34.6602 30.7171 34.6602 30.7171C34.6778 30.7171 34.7263 30.7744 34.8056 30.889C34.885 31.0037 34.9864 31.1403 35.1098 31.299Z" fill="black"/>
</svg>
