<svg width="11" height="11" viewBox="0 0 11 11" fill="none" xmlns="http://www.w3.org/2000/svg">
<path d="M0.615337 0.0194187C0.55478 0.032876 0.48413 0.0631552 0.403387 0.110254C0.322644 0.157354 0.262087 0.204454 0.221715 0.251554C0.20153 0.278469 0.176298 0.313794 0.146019 0.35753C0.115741 0.401265 0.0905084 0.443318 0.0703227 0.48369C0.0434085 0.544248 0.026587 0.591348 0.0198585 0.62499C0.0131299 0.658633 0.00976562 0.71919 0.00976562 0.806662C0.00976562 0.900862 0.0131299 0.964783 0.0198585 0.998425C0.026587 1.03207 0.0467727 1.08253 0.0804156 1.14982C0.127516 1.24402 0.183026 1.3214 0.246948 1.38195C0.310869 1.44251 0.38993 1.49634 0.48413 1.54344L0.615337 1.604L7.5794 1.61409L3.85514 5.34844C2.0788 7.12479 1.01064 8.19631 0.650662 8.56302C0.290683 8.92972 0.097237 9.14336 0.0703227 9.20391C0.0434085 9.26447 0.026587 9.31325 0.0198585 9.35026C0.0131299 9.38727 0.00976562 9.44614 0.00976562 9.52688C0.00976562 9.62108 0.0131299 9.685 0.0198585 9.71865C0.026587 9.75229 0.0467727 9.80275 0.0804156 9.87004C0.127516 9.96424 0.183026 10.0416 0.246948 10.1022C0.310869 10.1627 0.38993 10.2166 0.48413 10.2637C0.544687 10.2906 0.591787 10.3074 0.625429 10.3141C0.659072 10.3209 0.719629 10.3242 0.807101 10.3242C0.887844 10.3242 0.946719 10.3209 0.983726 10.3141C1.02073 10.3074 1.06951 10.2906 1.13007 10.2637C1.19063 10.2367 1.40426 10.0433 1.77097 9.68332C2.13767 9.32334 3.2092 8.25518 4.98554 6.47884L8.7199 2.75458V6.23661L8.72999 9.71865L8.80064 9.87004C8.84774 9.96424 8.90325 10.0416 8.96717 10.1022C9.03109 10.1627 9.11015 10.2166 9.20435 10.2637C9.26491 10.2906 9.31201 10.3074 9.34565 10.3141C9.37929 10.3209 9.43985 10.3242 9.52732 10.3242C9.62152 10.3242 9.68544 10.3209 9.71909 10.3141C9.75273 10.3074 9.80319 10.2872 9.87048 10.2536C9.96468 10.2065 10.0421 10.151 10.1026 10.087C10.1632 10.0231 10.217 9.94405 10.2641 9.84985L10.3247 9.71865V0.614897L10.2641 0.48369C10.217 0.38949 10.1632 0.31043 10.1026 0.246509C10.0421 0.182587 9.96468 0.127076 9.87048 0.0799761L9.71909 0.00932598H5.20758C4.54146 0.00932598 3.92916 0.00932598 3.37068 0.00932598C2.81221 0.00932598 2.33112 0.00932598 1.92741 0.00932598C1.52369 0.00932598 1.20745 0.0126905 0.978679 0.0194187C0.749908 0.0194187 0.628794 0.0194187 0.615337 0.0194187Z" fill="white"/>
</svg>
