<svg width="14" height="14" viewBox="0 0 14 14" fill="none" xmlns="http://www.w3.org/2000/svg">
<path d="M13.15 3.73819C12.9997 3.1724 12.557 2.72679 11.9949 2.57557C10.9759 2.30078 6.89022 2.30078 6.89022 2.30078C6.89022 2.30078 2.80451 2.30078 1.78558 2.57557C1.22344 2.72682 0.780706 3.1724 0.63044 3.73819C0.357422 4.76374 0.357422 6.90343 0.357422 6.90343C0.357422 6.90343 0.357422 9.04313 0.63044 10.0687C0.780706 10.6345 1.22344 11.0615 1.78558 11.2127C2.80451 11.4875 6.89022 11.4875 6.89022 11.4875C6.89022 11.4875 10.9759 11.4875 11.9949 11.2127C12.557 11.0615 12.9997 10.6345 13.15 10.0687C13.423 9.04313 13.423 6.90343 13.423 6.90343C13.423 6.90343 13.423 4.76374 13.15 3.73819ZM5.55396 8.84612V4.96075L8.96881 6.90348L5.55396 8.84612Z" fill="white"/>
</svg>
