<svg width="14" height="14" viewBox="0 0 14 14" fill="none" xmlns="http://www.w3.org/2000/svg">
<path d="M6.89093 3.79774C5.17918 3.79774 3.79848 5.17844 3.79848 6.89019C3.79848 8.60194 5.17918 9.98264 6.89093 9.98264C8.60268 9.98264 9.98338 8.60194 9.98338 6.89019C9.98338 5.17844 8.60268 3.79774 6.89093 3.79774ZM6.89093 8.90069C5.78475 8.90069 4.88043 7.99906 4.88043 6.89019C4.88043 5.78132 5.78206 4.87969 6.89093 4.87969C7.9998 4.87969 8.90142 5.78132 8.90142 6.89019C8.90142 7.99906 7.9971 8.90069 6.89093 8.90069ZM10.8312 3.67124C10.8312 4.07227 10.5082 4.39255 10.1099 4.39255C9.70885 4.39255 9.38857 4.06957 9.38857 3.67124C9.38857 3.27291 9.71154 2.94994 10.1099 2.94994C10.5082 2.94994 10.8312 3.27291 10.8312 3.67124ZM12.8794 4.40331C12.8336 3.43709 12.6129 2.58122 11.9051 1.87606C11.1999 1.17091 10.344 0.950211 9.37781 0.901765C8.38198 0.845245 5.39719 0.845245 4.40136 0.901765C3.43783 0.947519 2.58195 1.16822 1.87411 1.87337C1.16626 2.57852 0.948258 3.4344 0.899812 4.40062C0.843292 5.39645 0.843292 8.38124 0.899812 9.37707C0.945566 10.3433 1.16626 11.1992 1.87411 11.9043C2.58195 12.6095 3.43514 12.8302 4.40136 12.8786C5.39719 12.9351 8.38198 12.9351 9.37781 12.8786C10.344 12.8329 11.1999 12.6122 11.9051 11.9043C12.6102 11.1992 12.8309 10.3433 12.8794 9.37707C12.9359 8.38124 12.9359 5.39914 12.8794 4.40331ZM11.5929 10.4456C11.3829 10.9731 10.9765 11.3795 10.4463 11.5921C9.65233 11.907 7.76833 11.8343 6.89093 11.8343C6.01352 11.8343 4.12683 11.9043 3.33555 11.5921C2.80803 11.3822 2.40163 10.9758 2.18901 10.4456C1.87411 9.65159 1.94678 7.76759 1.94678 6.89019C1.94678 6.01278 1.8768 4.12609 2.18901 3.33481C2.39894 2.80729 2.80534 2.40089 3.33555 2.18827C4.12952 1.87337 6.01352 1.94604 6.89093 1.94604C7.76833 1.94604 9.65502 1.87606 10.4463 2.18827C10.9738 2.3982 11.3802 2.8046 11.5929 3.33481C11.9077 4.12879 11.8351 6.01278 11.8351 6.89019C11.8351 7.76759 11.9077 9.65428 11.5929 10.4456Z" fill="white"/>
</svg>
