<svg width="20" height="20" viewBox="0 0 20 20" fill="none" xmlns="http://www.w3.org/2000/svg">
<path d="M17.549 13.267L14.7981 12.953C14.4746 12.915 14.1468 12.9508 13.8391 13.0577C13.5315 13.1646 13.2521 13.3399 13.0219 13.5703L11.0292 15.5631C7.95489 13.9991 5.45599 11.5002 3.89203 8.42593L5.89563 6.42233C6.36133 5.95663 6.58876 5.30682 6.51295 4.64617L6.19888 1.91696C6.1377 1.38854 5.88422 0.901103 5.48675 0.547572C5.08927 0.194041 4.57561 -0.000866496 4.04366 2.89596e-06H2.17003C0.94621 2.89596e-06 -0.0718332 1.01805 0.00397846 2.24186C0.577981 11.4909 7.97504 18.8771 17.2132 19.4511C18.437 19.5269 19.4551 18.5089 19.4551 17.2851V15.4114C19.4659 14.3176 18.6428 13.397 17.549 13.267Z" fill="#FABA09"/>
</svg>
