<svg width="20" height="16" viewBox="0 0 20 16" fill="none" xmlns="http://www.w3.org/2000/svg">
<path d="M1.75017 15.1623C1.25125 15.1623 0.835011 14.9955 0.50144 14.662C0.167869 14.3284 0.000722016 13.9118 0 13.4122V1.75017C0 1.25125 0.167147 0.835011 0.50144 0.50144C0.835734 0.167869 1.25161 0.000722016 1.74908 0H17.7453C18.2435 0 18.6594 0.167146 18.993 0.50144C19.3266 0.835733 19.4937 1.25198 19.4944 1.75017V13.4133C19.4944 13.9114 19.3273 14.3277 18.993 14.662C18.6587 14.9963 18.2428 15.1631 17.7453 15.1623H1.75017ZM9.74722 7.53785C9.83747 7.53785 9.92194 7.52413 10.0006 7.49669C10.0786 7.46925 10.1559 7.43568 10.2324 7.39597L18.0616 2.27002C18.1641 2.20792 18.2309 2.12309 18.2619 2.01551C18.293 1.90793 18.2872 1.80071 18.2446 1.69385C18.2172 1.5545 18.1262 1.45342 17.9717 1.3906C17.8179 1.32851 17.6688 1.34114 17.5244 1.42851L9.74722 6.49814L1.9711 1.42959C1.8267 1.34151 1.68085 1.32273 1.53356 1.37327C1.38627 1.42382 1.29169 1.52345 1.24981 1.67219C1.20793 1.78338 1.20252 1.89637 1.23356 2.01118C1.26461 2.12598 1.33104 2.21262 1.43284 2.2711L9.26202 7.39597C9.33855 7.43568 9.41581 7.46925 9.49379 7.49669C9.57249 7.52341 9.65696 7.53676 9.74722 7.53676" fill="#FABA09"/>
</svg>
