<svg width="54" height="53" viewBox="0 0 54 53" fill="none" xmlns="http://www.w3.org/2000/svg">
<path d="M10.1843 0.456799C5.96658 1.58839 3.4205 3.49152 1.82598 6.65484C0.051436 10.2039 0 10.744 0 26.5606C0 40.5769 0 40.7312 0.591514 42.8915C0.925849 44.1003 1.49165 45.6434 1.87742 46.312C3.44621 49.2182 6.60953 51.3785 10.6473 52.33C12.3961 52.7415 14.0678 52.793 27.1325 52.793C41.2774 52.793 41.7146 52.7673 43.6435 52.2272C49.7129 50.5041 52.6705 47.0321 53.6221 40.4483C53.8278 39.0081 53.8793 34.3017 53.8278 25.0175C53.7249 12.1071 53.6992 11.567 53.1591 9.76672C51.6932 4.90601 49.3786 2.43708 44.6979 0.79113L42.6919 0.0710258L27.3897 0.0195923C12.9104 -0.0318451 11.9846 -0.0061264 10.1843 0.456799ZM43.3863 3.7487C46.8068 4.90601 48.6071 6.68056 49.8158 10.1525L50.4073 11.9013V26.432V40.9627L49.6615 42.9687C48.7871 45.3605 47.244 47.2122 45.3152 48.1637C42.589 49.4753 41.4832 49.5782 27.0554 49.5782C12.6018 49.5782 11.2902 49.4753 8.43551 48.138C6.12089 47.0321 4.93786 45.5662 3.88342 42.5058C3.39478 41.0398 3.36906 40.2426 3.29191 27.3321C3.18903 12.4671 3.29191 11.0783 4.65496 8.30079C5.88943 5.83186 8.17833 4.18591 11.1873 3.56868C11.9589 3.41437 12.8333 3.23434 13.1162 3.18291C13.3991 3.13147 19.9315 3.10575 27.6469 3.13147C41.3803 3.18291 41.6889 3.18291 43.3863 3.7487Z" fill="#FF933A"/>
<path d="M17.8725 17.4314C17.1009 18.2029 16.8438 19.0516 16.8438 20.8262C16.8438 22.8065 17.6153 24.5553 18.5669 24.7868C20.3671 25.2497 21.473 23.7838 21.473 20.9548C21.473 19.0259 21.0101 17.6114 20.2385 17.1999C19.4156 16.7627 18.4383 16.8656 17.8725 17.4314Z" fill="#FF933A"/>
<path d="M33.2328 17.3818C32.5641 18.1276 32.2812 19.182 32.2812 20.9823C32.307 23.837 33.4128 25.2515 35.2131 24.7886C37.142 24.2999 37.5277 19.1049 35.7789 17.356C35.1874 16.7902 33.7729 16.7902 33.2328 17.3818Z" fill="#FF933A"/>
<path d="M15.3077 33.632C14.5876 34.3521 14.6647 35.2779 15.462 35.9209C16.1306 36.4609 16.4135 36.4609 27.1637 36.4609C38.171 36.4609 38.171 36.4609 38.7111 35.8951C39.354 35.175 39.3797 34.3006 38.7111 33.632C38.2224 33.1433 37.8624 33.1176 27.0094 33.1176C16.1564 33.1176 15.7963 33.1433 15.3077 33.632Z" fill="#FF933A"/>
</svg>
