<svg width="54" height="53" viewBox="0 0 54 53" fill="none" xmlns="http://www.w3.org/2000/svg">
<path d="M10.1586 0.45612C4.78355 1.89633 1.72311 5.03392 0.462924 10.4861C0.051436 12.2093 0 13.9324 0 26.5599C0 39.5989 0.025718 40.8334 0.488642 42.5051C2.16031 48.7803 5.83799 51.7636 12.9876 52.638C15.8423 52.998 37.9084 52.998 40.7631 52.638C47.8098 51.7636 51.436 48.9346 53.1591 42.968C53.7507 40.9877 53.7507 40.7305 53.7507 26.5599C53.7507 10.769 53.7249 10.5633 52.2076 7.21996C50.7159 3.97949 48.6071 2.17923 44.6208 0.764732L42.6919 0.0703468L27.3897 0.0189095C12.859 -0.0325241 11.9846 -0.00680542 10.1586 0.45612ZM41.8689 3.41369C46.8325 4.46813 49.25 6.85991 50.1501 11.6435C50.7159 14.5753 50.7159 38.5188 50.1501 41.2192C49.2757 45.3341 47.5526 47.3915 43.7721 48.7803L41.9204 49.4489H27.0039C13.0648 49.4489 11.9846 49.4232 10.673 48.9603C6.2752 47.4429 4.52637 45.5141 3.60052 41.142C3.03473 38.4931 3.06044 14.3438 3.62624 11.592C4.60353 6.88562 6.96958 4.44241 11.5988 3.43941C14.1963 2.89933 39.2971 2.87361 41.8689 3.41369Z" fill="#E3644C"/>
<path d="M17.6732 17.555C16.8503 18.6094 16.4902 20.4868 16.8503 22.1585C17.236 24.0102 17.9304 24.8846 19.0106 24.8846C20.888 24.8846 22.0453 21.8241 21.2223 18.9952C20.6565 16.9892 18.7277 16.2176 17.6732 17.555Z" fill="#E3644C"/>
<path d="M33.1259 17.4822C31.8142 18.8967 31.7114 22.4457 32.9458 24.0403C33.7431 25.0947 34.9776 25.1976 35.8263 24.2974C37.0607 22.9858 37.1893 19.591 36.0577 17.8937C35.3119 16.7878 33.9488 16.582 33.1259 17.4822Z" fill="#E3644C"/>
<path d="M24.1264 30.9316C21.2717 31.5489 18.1341 33.632 16.7968 35.8181C16.2053 36.8211 16.2053 37.3611 16.8482 38.0041C17.7741 38.9299 18.5456 38.6728 20.3973 36.7439C21.9661 35.1494 22.3004 34.9179 24.0235 34.4036C27.9841 33.1948 31.1217 34.2235 34.1564 37.7212C34.7737 38.4156 35.0309 38.5442 35.8281 38.467C36.5739 38.4156 36.8568 38.2355 37.114 37.6955C37.5769 36.6925 36.9854 35.5094 35.1337 33.8635C33.4106 32.3461 31.5846 31.4203 29.2443 30.9059C27.1611 30.4687 26.2096 30.4687 24.1264 30.9316Z" fill="#E3644C"/>
</svg>
