<svg width="13" height="13" viewBox="0 0 13 13" fill="none" xmlns="http://www.w3.org/2000/svg">
<path d="M12.1306 13C10.7613 13 9.35729 12.6571 7.91863 11.9714C6.47996 11.2856 5.14096 10.3228 3.90163 9.08294C2.67204 7.8436 1.71437 6.50704 1.02862 5.07325C0.342875 3.63946 0 2.23817 0 0.869375C0 0.625625 0.0812502 0.419792 0.24375 0.251875C0.40625 0.0839583 0.609375 0 0.853125 0H2.86244C3.08344 0 3.27627 0.0696041 3.44094 0.208812C3.6056 0.348021 3.71692 0.5265 3.77487 0.74425L4.17788 2.68125C4.21579 2.90875 4.20902 3.10727 4.15756 3.27681C4.1061 3.44635 4.01592 3.58529 3.887 3.69362L2.10438 5.356C2.43804 5.96104 2.80665 6.52329 3.21019 7.04275C3.61373 7.56221 4.04435 8.05431 4.50206 8.51906C4.97331 8.99031 5.48085 9.42906 6.02469 9.83531C6.56852 10.241 7.16544 10.624 7.81544 10.9842L9.55338 9.21537C9.68554 9.07292 9.83423 8.97894 9.99944 8.93344C10.1641 8.88848 10.3466 8.87954 10.5471 8.90662L12.2557 9.256C12.4767 9.31017 12.656 9.42148 12.7936 9.58994C12.9312 9.7584 13 9.95123 13 10.1684V12.1469C13 12.3906 12.916 12.5938 12.7481 12.7563C12.5802 12.9188 12.3744 13 12.1306 13Z" fill="white"/>
</svg>
