<svg width="26" height="27" viewBox="0 0 26 27" fill="none" xmlns="http://www.w3.org/2000/svg">
<path d="M18.3488 19.9675C18.8018 19.9675 19.1849 19.809 19.4979 19.4921C19.811 19.1742 19.9675 18.7887 19.9675 18.3356C19.9675 17.8816 19.809 17.4976 19.4921 17.1835C19.1742 16.8715 18.7882 16.7154 18.3342 16.7154C17.8811 16.7154 17.4981 16.8739 17.185 17.1908C16.871 17.5088 16.714 17.8947 16.714 18.3488C16.714 18.8018 16.8729 19.1849 17.1908 19.4979C17.5088 19.811 17.8957 19.9675 18.3488 19.9675ZM4.99771 19.9675C5.45174 19.9675 5.83576 19.809 6.14979 19.4921C6.46187 19.1742 6.61792 18.7887 6.61792 18.3356C6.61792 17.8816 6.45944 17.4976 6.1425 17.1835C5.82458 16.8715 5.43861 16.7154 4.98458 16.7154C4.53153 16.7154 4.14847 16.8739 3.83542 17.1908C3.52236 17.5088 3.36583 17.8947 3.36583 18.3488C3.36583 18.8018 3.52431 19.1849 3.84125 19.4979C4.15917 19.811 4.54465 19.9675 4.99771 19.9675ZM19.8435 11.6667C18.2267 11.6667 16.8525 11.1008 15.7208 9.96917C14.5882 8.83653 14.0219 7.45451 14.0219 5.82313C14.0219 4.21021 14.5872 2.83646 15.7179 1.70187C16.8486 0.567291 18.2316 0 19.8669 0C21.4837 0 22.8584 0.566319 23.991 1.69896C25.1237 2.83063 25.69 4.20875 25.69 5.83333C25.69 7.45792 25.1198 8.83653 23.9794 9.96917C22.839 11.1018 21.4603 11.6676 19.8435 11.6667ZM19.2952 6.73167H20.4167V2.35667H19.2938L19.2952 6.73167ZM19.8552 9.42375C20.0497 9.42375 20.2057 9.36007 20.3233 9.23271C20.4419 9.10535 20.5105 8.95368 20.529 8.77771C20.529 8.59104 20.4658 8.42771 20.3394 8.28771C20.213 8.14771 20.0516 8.07722 19.8552 8.07625C19.6588 8.07528 19.4984 8.13896 19.374 8.26729C19.2495 8.39563 19.1858 8.55653 19.1829 8.75C19.18 8.94347 19.2432 9.10389 19.3725 9.23125C19.5008 9.35958 19.6608 9.42375 19.8552 9.42375ZM0.729167 26.25C0.522083 26.25 0.349028 26.18 0.21 26.04C0.0709723 25.9 0.000972222 25.7269 0 25.5208V14.8079L2.89479 6.5625C2.96576 6.33111 3.10236 6.15125 3.30458 6.02292C3.50778 5.89653 3.73382 5.83333 3.98271 5.83333H10.57C10.5535 6.07639 10.5544 6.31944 10.5729 6.5625C10.5914 6.80556 10.6186 7.04861 10.6546 7.29167H4.21313L2.065 13.3496H14.7044C15.4141 14.0428 16.2133 14.576 17.1019 14.9494C17.9905 15.3227 18.9272 15.5094 19.9121 15.5094C20.5158 15.5094 21.104 15.4394 21.6767 15.2994C22.2503 15.1603 22.8025 14.9489 23.3333 14.665V25.5208C23.3333 25.7279 23.2633 25.901 23.1233 26.04C22.9833 26.179 22.8103 26.249 22.6042 26.25H22.2688C22.0617 26.25 21.8881 26.18 21.7481 26.04C21.6081 25.9 21.5381 25.7269 21.5381 25.5208V23.3333H1.79521V25.5208C1.79521 25.7279 1.72521 25.901 1.58521 26.04C1.44521 26.179 1.27215 26.249 1.06604 26.25H0.729167Z" fill="white"/>
</svg>
