<svg width="366" height="268" viewBox="0 0 366 268" fill="none" xmlns="http://www.w3.org/2000/svg">
<rect x="0.424316" y="0.424316" width="364.911" height="266.47" rx="9.71568" stroke="#D7D7D7" stroke-width="0.848631"/>
<rect x="72.0078" y="13.2773" width="0.926656" height="170.367" fill="#F3F3F3"/>
<rect x="107.797" y="13.2773" width="0.926656" height="170.367" fill="#F3F3F3"/>
<rect x="143.586" y="13.2773" width="0.926656" height="170.367" fill="#F3F3F3"/>
<rect x="179.375" y="13.2773" width="0.926656" height="170.367" fill="#F3F3F3"/>
<rect x="215.18" y="13.2773" width="0.926656" height="170.367" fill="#F3F3F3"/>
<rect x="250.961" y="13.2773" width="0.926656" height="170.367" fill="#F3F3F3"/>
<rect x="286.758" y="13.2773" width="0.926656" height="170.367" fill="#F3F3F3"/>
<rect x="322.555" y="13.2773" width="0.926656" height="170.367" fill="#F3F3F3"/>
<path d="M71.8824 203.159V204.122H66.8898V203.159H71.8824ZM75.9647 203.522C75.4975 203.338 75.1388 203.071 74.8886 202.721C74.6383 202.371 74.5132 201.945 74.5132 201.445C74.5132 200.994 74.6258 200.59 74.851 200.231C75.0762 199.864 75.4099 199.576 75.852 199.367C76.3025 199.151 76.8447 199.042 77.4787 199.042C78.1127 199.042 78.6507 199.151 79.0929 199.367C79.5433 199.576 79.8812 199.864 80.1064 200.231C80.34 200.59 80.4568 200.994 80.4568 201.445C80.4568 201.928 80.3275 202.354 80.0689 202.721C79.8103 203.08 79.4557 203.347 79.0053 203.522C79.5225 203.68 79.9312 203.96 80.2315 204.36C80.5402 204.752 80.6945 205.228 80.6945 205.787C80.6945 206.329 80.561 206.804 80.2941 207.213C80.0272 207.613 79.6476 207.926 79.1554 208.151C78.6716 208.368 78.1127 208.477 77.4787 208.477C76.8447 208.477 76.2858 208.368 75.802 208.151C75.3265 207.926 74.9553 207.613 74.6883 207.213C74.4214 206.804 74.2879 206.329 74.2879 205.787C74.2879 205.228 74.4381 204.748 74.7384 204.348C75.0387 203.947 75.4475 203.672 75.9647 203.522ZM79.3556 201.582C79.3556 201.073 79.1888 200.681 78.8551 200.406C78.5214 200.131 78.0626 199.993 77.4787 199.993C76.9031 199.993 76.4485 200.131 76.1148 200.406C75.7811 200.681 75.6143 201.078 75.6143 201.595C75.6143 202.062 75.7853 202.437 76.1273 202.721C76.4777 203.005 76.9281 203.146 77.4787 203.146C78.0376 203.146 78.4881 203.005 78.8301 202.721C79.1805 202.429 79.3556 202.049 79.3556 201.582ZM77.4787 204.022C76.8614 204.022 76.3567 204.168 75.9647 204.46C75.5726 204.744 75.3766 205.173 75.3766 205.749C75.3766 206.283 75.5642 206.713 75.9396 207.038C76.3234 207.363 76.8364 207.526 77.4787 207.526C78.121 207.526 78.6299 207.363 79.0053 207.038C79.3807 206.713 79.5684 206.283 79.5684 205.749C79.5684 205.19 79.3765 204.765 78.9928 204.473C78.609 204.172 78.1044 204.022 77.4787 204.022ZM82.6881 203.609C82.6881 202.175 82.9216 201.057 83.3888 200.256C83.8559 199.447 84.6734 199.042 85.8413 199.042C87.0008 199.042 87.8142 199.447 88.2813 200.256C88.7485 201.057 88.982 202.175 88.982 203.609C88.982 205.069 88.7485 206.204 88.2813 207.013C87.8142 207.822 87.0008 208.227 85.8413 208.227C84.6734 208.227 83.8559 207.822 83.3888 207.013C82.9216 206.204 82.6881 205.069 82.6881 203.609ZM87.8559 203.609C87.8559 202.884 87.8058 202.27 87.7057 201.77C87.614 201.261 87.4179 200.852 87.1176 200.544C86.8256 200.235 86.4002 200.081 85.8413 200.081C85.2741 200.081 84.8403 200.235 84.54 200.544C84.248 200.852 84.052 201.261 83.9519 201.77C83.8601 202.27 83.8142 202.884 83.8142 203.609C83.8142 204.36 83.8601 204.99 83.9519 205.499C84.052 206.008 84.248 206.416 84.54 206.725C84.8403 207.034 85.2741 207.188 85.8413 207.188C86.4002 207.188 86.8256 207.034 87.1176 206.725C87.4179 206.416 87.614 206.008 87.7057 205.499C87.8058 204.99 87.8559 204.36 87.8559 203.609Z" fill="black"/>
<path d="M107.25 203.159V204.122H102.257V203.159H107.25ZM115.248 200.068L111.77 208.227H110.619L114.147 200.181H109.317V199.205H115.248V200.068ZM116.992 203.609C116.992 202.175 117.226 201.057 117.693 200.256C118.16 199.447 118.978 199.042 120.145 199.042C121.305 199.042 122.118 199.447 122.585 200.256C123.053 201.057 123.286 202.175 123.286 203.609C123.286 205.069 123.053 206.204 122.585 207.013C122.118 207.822 121.305 208.227 120.145 208.227C118.978 208.227 118.16 207.822 117.693 207.013C117.226 206.204 116.992 205.069 116.992 203.609ZM122.16 203.609C122.16 202.884 122.11 202.27 122.01 201.77C121.918 201.261 121.722 200.852 121.422 200.544C121.13 200.235 120.704 200.081 120.145 200.081C119.578 200.081 119.144 200.235 118.844 200.544C118.552 200.852 118.356 201.261 118.256 201.77C118.164 202.27 118.118 202.884 118.118 203.609C118.118 204.36 118.164 204.99 118.256 205.499C118.356 206.008 118.552 206.416 118.844 206.725C119.144 207.034 119.578 207.188 120.145 207.188C120.704 207.188 121.13 207.034 121.422 206.725C121.722 206.416 121.918 206.008 122.01 205.499C122.11 204.99 122.16 204.36 122.16 203.609Z" fill="black"/>
<path d="M142.632 203.159V204.122H137.64V203.159H142.632ZM150.106 201.332C149.922 200.406 149.351 199.943 148.391 199.943C147.649 199.943 147.094 200.231 146.727 200.806C146.36 201.374 146.181 202.312 146.189 203.622C146.381 203.188 146.698 202.85 147.14 202.608C147.591 202.358 148.091 202.233 148.642 202.233C149.501 202.233 150.185 202.5 150.694 203.034C151.211 203.568 151.47 204.306 151.47 205.249C151.47 205.816 151.357 206.325 151.132 206.775C150.915 207.226 150.581 207.584 150.131 207.851C149.689 208.118 149.15 208.252 148.517 208.252C147.657 208.252 146.986 208.06 146.502 207.676C146.018 207.292 145.68 206.763 145.488 206.087C145.297 205.411 145.201 204.577 145.201 203.584C145.201 200.523 146.268 198.992 148.404 198.992C149.221 198.992 149.864 199.213 150.331 199.655C150.798 200.097 151.073 200.656 151.157 201.332H150.106ZM148.404 203.196C148.045 203.196 147.707 203.271 147.39 203.422C147.073 203.563 146.815 203.785 146.615 204.085C146.423 204.377 146.327 204.735 146.327 205.161C146.327 205.795 146.51 206.312 146.877 206.713C147.244 207.105 147.77 207.301 148.454 207.301C149.038 207.301 149.501 207.121 149.843 206.763C150.193 206.396 150.368 205.903 150.368 205.286C150.368 204.635 150.202 204.127 149.868 203.759C149.534 203.384 149.046 203.196 148.404 203.196ZM153.487 203.609C153.487 202.175 153.721 201.057 154.188 200.256C154.655 199.447 155.472 199.042 156.64 199.042C157.8 199.042 158.613 199.447 159.08 200.256C159.547 201.057 159.781 202.175 159.781 203.609C159.781 205.069 159.547 206.204 159.08 207.013C158.613 207.822 157.8 208.227 156.64 208.227C155.472 208.227 154.655 207.822 154.188 207.013C153.721 206.204 153.487 205.069 153.487 203.609ZM158.655 203.609C158.655 202.884 158.605 202.27 158.505 201.77C158.413 201.261 158.217 200.852 157.916 200.544C157.625 200.235 157.199 200.081 156.64 200.081C156.073 200.081 155.639 200.235 155.339 200.544C155.047 200.852 154.851 201.261 154.751 201.77C154.659 202.27 154.613 202.884 154.613 203.609C154.613 204.36 154.659 204.99 154.751 205.499C154.851 206.008 155.047 206.416 155.339 206.725C155.639 207.034 156.073 207.188 156.64 207.188C157.199 207.188 157.625 207.034 157.916 206.725C158.217 206.416 158.413 206.008 158.505 205.499C158.605 204.99 158.655 204.36 158.655 203.609Z" fill="black"/>
<path d="M178.007 203.159V204.122H173.015V203.159H178.007ZM186.206 200.168H181.814V203.021C182.006 202.754 182.29 202.537 182.665 202.371C183.041 202.195 183.445 202.108 183.879 202.108C184.571 202.108 185.134 202.254 185.568 202.546C186.002 202.829 186.311 203.201 186.494 203.659C186.686 204.11 186.782 204.589 186.782 205.098C186.782 205.699 186.669 206.237 186.444 206.713C186.219 207.188 185.873 207.563 185.406 207.839C184.947 208.114 184.375 208.252 183.691 208.252C182.815 208.252 182.106 208.026 181.564 207.576C181.022 207.125 180.692 206.525 180.576 205.774H181.689C181.798 206.25 182.027 206.621 182.377 206.888C182.728 207.155 183.17 207.288 183.704 207.288C184.363 207.288 184.859 207.092 185.193 206.7C185.527 206.3 185.693 205.774 185.693 205.123C185.693 204.473 185.527 203.972 185.193 203.622C184.859 203.263 184.367 203.084 183.716 203.084C183.274 203.084 182.886 203.192 182.553 203.409C182.227 203.618 181.99 203.905 181.839 204.273H180.763V199.167H186.206V200.168ZM188.776 203.609C188.776 202.175 189.01 201.057 189.477 200.256C189.944 199.447 190.762 199.042 191.93 199.042C193.089 199.042 193.903 199.447 194.37 200.256C194.837 201.057 195.07 202.175 195.07 203.609C195.07 205.069 194.837 206.204 194.37 207.013C193.903 207.822 193.089 208.227 191.93 208.227C190.762 208.227 189.944 207.822 189.477 207.013C189.01 206.204 188.776 205.069 188.776 203.609ZM193.944 203.609C193.944 202.884 193.894 202.27 193.794 201.77C193.702 201.261 193.506 200.852 193.206 200.544C192.914 200.235 192.489 200.081 191.93 200.081C191.362 200.081 190.929 200.235 190.628 200.544C190.336 200.852 190.14 201.261 190.04 201.77C189.948 202.27 189.903 202.884 189.903 203.609C189.903 204.36 189.948 204.99 190.04 205.499C190.14 206.008 190.336 206.416 190.628 206.725C190.929 207.034 191.362 207.188 191.93 207.188C192.489 207.188 192.914 207.034 193.206 206.725C193.506 206.416 193.702 206.008 193.794 205.499C193.894 204.99 193.944 204.36 193.944 203.609Z" fill="black"/>
<path d="M213.382 203.159V204.122H208.39V203.159H213.382ZM215.538 206.212V205.349L219.93 199.267H221.294V205.223H222.545V206.212H221.294V208.227H220.167V206.212H215.538ZM220.217 200.456L216.852 205.223H220.217V200.456ZM224.164 203.609C224.164 202.175 224.397 201.057 224.864 200.256C225.331 199.447 226.149 199.042 227.317 199.042C228.476 199.042 229.29 199.447 229.757 200.256C230.224 201.057 230.458 202.175 230.458 203.609C230.458 205.069 230.224 206.204 229.757 207.013C229.29 207.822 228.476 208.227 227.317 208.227C226.149 208.227 225.331 207.822 224.864 207.013C224.397 206.204 224.164 205.069 224.164 203.609ZM229.331 203.609C229.331 202.884 229.281 202.27 229.181 201.77C229.09 201.261 228.893 200.852 228.593 200.544C228.301 200.235 227.876 200.081 227.317 200.081C226.75 200.081 226.316 200.235 226.016 200.544C225.724 200.852 225.528 201.261 225.427 201.77C225.336 202.27 225.29 202.884 225.29 203.609C225.29 204.36 225.336 204.99 225.427 205.499C225.528 206.008 225.724 206.416 226.016 206.725C226.316 207.034 226.75 207.188 227.317 207.188C227.876 207.188 228.301 207.034 228.593 206.725C228.893 206.416 229.09 206.008 229.181 205.499C229.281 204.99 229.331 204.36 229.331 203.609Z" fill="black"/>
<path d="M248.757 203.159V204.122H243.765V203.159H248.757ZM251.163 201.457C251.221 200.69 251.517 200.089 252.051 199.655C252.585 199.221 253.278 199.005 254.128 199.005C254.696 199.005 255.184 199.109 255.592 199.317C256.01 199.518 256.322 199.793 256.531 200.143C256.748 200.494 256.856 200.89 256.856 201.332C256.856 201.849 256.706 202.295 256.406 202.671C256.114 203.046 255.73 203.288 255.255 203.397V203.459C255.797 203.593 256.226 203.855 256.543 204.247C256.86 204.64 257.019 205.153 257.019 205.787C257.019 206.262 256.911 206.692 256.694 207.075C256.477 207.451 256.151 207.747 255.718 207.964C255.284 208.181 254.762 208.289 254.154 208.289C253.269 208.289 252.544 208.06 251.976 207.601C251.409 207.134 251.092 206.475 251.025 205.624H252.126C252.185 206.124 252.389 206.533 252.74 206.85C253.09 207.167 253.557 207.326 254.141 207.326C254.725 207.326 255.167 207.175 255.467 206.875C255.776 206.567 255.93 206.17 255.93 205.686C255.93 205.061 255.722 204.61 255.305 204.335C254.888 204.06 254.258 203.922 253.415 203.922H253.127V202.971H253.428C254.195 202.963 254.775 202.838 255.167 202.596C255.559 202.346 255.755 201.962 255.755 201.445C255.755 201.002 255.609 200.648 255.317 200.381C255.034 200.114 254.625 199.981 254.091 199.981C253.574 199.981 253.157 200.114 252.84 200.381C252.523 200.648 252.335 201.007 252.277 201.457H251.163ZM259.038 203.609C259.038 202.175 259.271 201.057 259.738 200.256C260.205 199.447 261.023 199.042 262.191 199.042C263.35 199.042 264.164 199.447 264.631 200.256C265.098 201.057 265.332 202.175 265.332 203.609C265.332 205.069 265.098 206.204 264.631 207.013C264.164 207.822 263.35 208.227 262.191 208.227C261.023 208.227 260.205 207.822 259.738 207.013C259.271 206.204 259.038 205.069 259.038 203.609ZM264.205 203.609C264.205 202.884 264.155 202.27 264.055 201.77C263.964 201.261 263.767 200.852 263.467 200.544C263.175 200.235 262.75 200.081 262.191 200.081C261.624 200.081 261.19 200.235 260.89 200.544C260.598 200.852 260.402 201.261 260.301 201.77C260.21 202.27 260.164 202.884 260.164 203.609C260.164 204.36 260.21 204.99 260.301 205.499C260.402 206.008 260.598 206.416 260.89 206.725C261.19 207.034 261.624 207.188 262.191 207.188C262.75 207.188 263.175 207.034 263.467 206.725C263.767 206.416 263.964 206.008 264.055 205.499C264.155 204.99 264.205 204.36 264.205 203.609Z" fill="black"/>
<path d="M284.14 203.159V204.122H279.148V203.159H284.14ZM286.433 207.313C287.493 206.462 288.323 205.766 288.923 205.223C289.524 204.673 290.028 204.101 290.437 203.509C290.854 202.909 291.063 202.321 291.063 201.745C291.063 201.203 290.929 200.777 290.662 200.469C290.404 200.152 289.983 199.993 289.399 199.993C288.831 199.993 288.389 200.172 288.072 200.531C287.764 200.882 287.597 201.353 287.572 201.945H286.471C286.504 201.011 286.788 200.289 287.322 199.78C287.855 199.272 288.544 199.017 289.386 199.017C290.245 199.017 290.925 199.255 291.426 199.73C291.935 200.206 292.189 200.861 292.189 201.695C292.189 202.387 291.98 203.063 291.563 203.722C291.155 204.373 290.687 204.948 290.162 205.449C289.636 205.941 288.965 206.516 288.147 207.175H292.452V208.126H286.433V207.313ZM294.249 203.609C294.249 202.175 294.483 201.057 294.95 200.256C295.417 199.447 296.235 199.042 297.403 199.042C298.562 199.042 299.375 199.447 299.843 200.256C300.31 201.057 300.543 202.175 300.543 203.609C300.543 205.069 300.31 206.204 299.843 207.013C299.375 207.822 298.562 208.227 297.403 208.227C296.235 208.227 295.417 207.822 294.95 207.013C294.483 206.204 294.249 205.069 294.249 203.609ZM299.417 203.609C299.417 202.884 299.367 202.27 299.267 201.77C299.175 201.261 298.979 200.852 298.679 200.544C298.387 200.235 297.962 200.081 297.403 200.081C296.835 200.081 296.402 200.235 296.101 200.544C295.809 200.852 295.613 201.261 295.513 201.77C295.421 202.27 295.376 202.884 295.376 203.609C295.376 204.36 295.421 204.99 295.513 205.499C295.613 206.008 295.809 206.416 296.101 206.725C296.402 207.034 296.835 207.188 297.403 207.188C297.962 207.188 298.387 207.034 298.679 206.725C298.979 206.416 299.175 206.008 299.267 205.499C299.367 204.99 299.417 204.36 299.417 203.609Z" fill="black"/>
<path d="M320.346 199.53V200.694H318.031V208.227H316.604V200.694H314.277V199.53H320.346ZM325.262 208.339C324.612 208.339 324.023 208.193 323.498 207.901C322.972 207.601 322.559 207.184 322.259 206.65C321.959 206.108 321.809 205.482 321.809 204.773C321.809 204.072 321.963 203.451 322.272 202.909C322.58 202.366 323.002 201.949 323.535 201.657C324.069 201.365 324.666 201.219 325.325 201.219C325.984 201.219 326.58 201.365 327.114 201.657C327.648 201.949 328.069 202.366 328.378 202.909C328.687 203.451 328.841 204.072 328.841 204.773C328.841 205.474 328.682 206.095 328.365 206.637C328.048 207.18 327.615 207.601 327.064 207.901C326.522 208.193 325.921 208.339 325.262 208.339ZM325.262 207.1C325.629 207.1 325.971 207.013 326.288 206.838C326.614 206.662 326.876 206.4 327.077 206.049C327.277 205.699 327.377 205.274 327.377 204.773C327.377 204.273 327.281 203.851 327.089 203.509C326.897 203.159 326.643 202.896 326.326 202.721C326.009 202.546 325.667 202.458 325.3 202.458C324.933 202.458 324.591 202.546 324.274 202.721C323.965 202.896 323.719 203.159 323.535 203.509C323.352 203.851 323.26 204.273 323.26 204.773C323.26 205.515 323.448 206.091 323.823 206.5C324.207 206.9 324.687 207.1 325.262 207.1ZM330.257 204.748C330.257 204.056 330.399 203.442 330.682 202.909C330.974 202.375 331.366 201.962 331.859 201.67C332.359 201.37 332.914 201.219 333.523 201.219C333.973 201.219 334.415 201.319 334.849 201.52C335.291 201.712 335.642 201.97 335.9 202.295V198.967H337.339V208.227H335.9V207.188C335.667 207.522 335.341 207.797 334.924 208.014C334.515 208.231 334.044 208.339 333.51 208.339C332.91 208.339 332.359 208.189 331.859 207.889C331.366 207.58 330.974 207.155 330.682 206.612C330.399 206.062 330.257 205.44 330.257 204.748ZM335.9 204.773C335.9 204.298 335.8 203.885 335.6 203.534C335.408 203.184 335.154 202.917 334.837 202.733C334.52 202.55 334.178 202.458 333.811 202.458C333.443 202.458 333.101 202.55 332.784 202.733C332.467 202.909 332.209 203.171 332.009 203.522C331.817 203.864 331.721 204.273 331.721 204.748C331.721 205.223 331.817 205.641 332.009 205.999C332.209 206.358 332.467 206.633 332.784 206.825C333.11 207.009 333.452 207.1 333.811 207.1C334.178 207.1 334.52 207.009 334.837 206.825C335.154 206.642 335.408 206.375 335.6 206.024C335.8 205.666 335.9 205.249 335.9 204.773ZM339.219 204.748C339.219 204.056 339.36 203.442 339.644 202.909C339.936 202.375 340.328 201.962 340.82 201.67C341.321 201.37 341.871 201.219 342.472 201.219C343.014 201.219 343.485 201.328 343.886 201.545C344.295 201.753 344.62 202.016 344.862 202.333V201.332H346.301V208.227H344.862V207.201C344.62 207.526 344.29 207.797 343.873 208.014C343.456 208.231 342.981 208.339 342.447 208.339C341.855 208.339 341.312 208.189 340.82 207.889C340.328 207.58 339.936 207.155 339.644 206.612C339.36 206.062 339.219 205.44 339.219 204.748ZM344.862 204.773C344.862 204.298 344.762 203.885 344.561 203.534C344.37 203.184 344.115 202.917 343.798 202.733C343.481 202.55 343.139 202.458 342.772 202.458C342.405 202.458 342.063 202.55 341.746 202.733C341.429 202.909 341.171 203.171 340.97 203.522C340.778 203.864 340.683 204.273 340.683 204.748C340.683 205.223 340.778 205.641 340.97 205.999C341.171 206.358 341.429 206.633 341.746 206.825C342.071 207.009 342.413 207.1 342.772 207.1C343.139 207.1 343.481 207.009 343.798 206.825C344.115 206.642 344.37 206.375 344.561 206.024C344.762 205.666 344.862 205.249 344.862 204.773ZM354.862 201.332L350.633 211.467H349.156L350.558 208.114L347.842 201.332H349.431L351.371 206.587L353.385 201.332H354.862Z" fill="black"/>
<path d="M10.5133 19.0575C11.4392 19.0575 12.2484 19.2368 12.9407 19.5955C13.6415 19.9459 14.1795 20.4547 14.5549 21.1221C14.9386 21.7811 15.1305 22.5527 15.1305 23.437C15.1305 24.3212 14.9386 25.0887 14.5549 25.7393C14.1795 26.39 13.6415 26.8905 12.9407 27.2409C12.2484 27.5829 11.4392 27.7539 10.5133 27.7539H7.67284V19.0575H10.5133ZM10.5133 26.5902C11.531 26.5902 12.3109 26.3149 12.8532 25.7644C13.3954 25.2138 13.6665 24.438 13.6665 23.437C13.6665 22.4276 13.3954 21.6393 12.8532 21.072C12.3109 20.5048 11.531 20.2212 10.5133 20.2212H9.0993V26.5902H10.5133ZM17.7513 19.9459C17.4927 19.9459 17.2758 19.8583 17.1006 19.6831C16.9254 19.5079 16.8378 19.2911 16.8378 19.0325C16.8378 18.7739 16.9254 18.557 17.1006 18.3818C17.2758 18.2066 17.4927 18.119 17.7513 18.119C18.0015 18.119 18.2142 18.2066 18.3894 18.3818C18.5646 18.557 18.6522 18.7739 18.6522 19.0325C18.6522 19.2911 18.5646 19.5079 18.3894 19.6831C18.2142 19.8583 18.0015 19.9459 17.7513 19.9459ZM18.452 20.8593V27.7539H17.0255V20.8593H18.452ZM23.3086 27.8665C22.7664 27.8665 22.2784 27.7706 21.8446 27.5787C21.4192 27.3785 21.0813 27.1116 20.8311 26.7779C20.5808 26.4359 20.4474 26.0563 20.4307 25.6392H21.9072C21.9322 25.9312 22.0699 26.1773 22.3201 26.3775C22.5787 26.5694 22.8999 26.6653 23.2836 26.6653C23.684 26.6653 23.9927 26.5902 24.2096 26.4401C24.4348 26.2816 24.5474 26.0814 24.5474 25.8394C24.5474 25.5808 24.4223 25.389 24.172 25.2639C23.9301 25.1387 23.5422 25.0011 23.0083 24.8509C22.4911 24.7091 22.0699 24.5715 21.7445 24.438C21.4192 24.3045 21.1356 24.1002 20.8936 23.8249C20.6601 23.5496 20.5433 23.1867 20.5433 22.7363C20.5433 22.3692 20.6517 22.0355 20.8686 21.7352C21.0855 21.4266 21.3942 21.1847 21.7946 21.0095C22.2033 20.8343 22.6705 20.7467 23.196 20.7467C23.9801 20.7467 24.61 20.9469 25.0855 21.3473C25.5693 21.7394 25.8279 22.2775 25.8612 22.9615H24.4348C24.4098 22.6528 24.2846 22.4068 24.0594 22.2232C23.8342 22.0397 23.5297 21.9479 23.146 21.9479C22.7706 21.9479 22.4828 22.0189 22.2826 22.1607C22.0824 22.3025 21.9823 22.4902 21.9823 22.7237C21.9823 22.9073 22.049 23.0616 22.1825 23.1867C22.3159 23.3118 22.4786 23.4119 22.6705 23.487C22.8623 23.5538 23.146 23.6414 23.5213 23.7498C24.0219 23.8833 24.4306 24.0209 24.7476 24.1627C25.0729 24.2962 25.3524 24.4964 25.586 24.7633C25.8195 25.0303 25.9405 25.3848 25.9488 25.8269C25.9488 26.219 25.8404 26.5694 25.6235 26.878C25.4066 27.1867 25.098 27.4286 24.6976 27.6038C24.3055 27.7789 23.8425 27.8665 23.3086 27.8665ZM29.6356 22.023V25.8394C29.6356 26.098 29.694 26.2857 29.8108 26.4025C29.9359 26.511 30.1445 26.5652 30.4365 26.5652H31.3124V27.7539H30.1862C29.5439 27.7539 29.0517 27.6038 28.7097 27.3034C28.3677 27.0031 28.1967 26.5151 28.1967 25.8394V22.023H27.3833V20.8593H28.1967V19.1451H29.6356V20.8593H31.3124V22.023H29.6356ZM32.6329 24.2753C32.6329 23.583 32.7747 22.9698 33.0583 22.4359C33.3503 21.9021 33.7423 21.4891 34.2345 21.1972C34.735 20.8969 35.2856 20.7467 35.8862 20.7467C36.4284 20.7467 36.8997 20.8552 37.3002 21.072C37.7089 21.2806 38.0342 21.5434 38.2762 21.8604V20.8593H39.7151V27.7539H38.2762V26.7279C38.0342 27.0532 37.7047 27.3243 37.2876 27.5412C36.8705 27.7581 36.3951 27.8665 35.8612 27.8665C35.2689 27.8665 34.7267 27.7164 34.2345 27.4161C33.7423 27.1074 33.3503 26.682 33.0583 26.1397C32.7747 25.5892 32.6329 24.9677 32.6329 24.2753ZM38.2762 24.3004C38.2762 23.8249 38.1761 23.4119 37.9758 23.0616C37.784 22.7112 37.5296 22.4443 37.2126 22.2608C36.8956 22.0772 36.5536 21.9855 36.1865 21.9855C35.8195 21.9855 35.4774 22.0772 35.1605 22.2608C34.8435 22.4359 34.5849 22.6987 34.3847 23.0491C34.1928 23.3911 34.0969 23.7998 34.0969 24.2753C34.0969 24.7508 34.1928 25.1679 34.3847 25.5266C34.5849 25.8853 34.8435 26.1606 35.1605 26.3525C35.4858 26.536 35.8278 26.6278 36.1865 26.6278C36.5536 26.6278 36.8956 26.536 37.2126 26.3525C37.5296 26.1689 37.784 25.902 37.9758 25.5516C38.1761 25.1929 38.2762 24.7758 38.2762 24.3004ZM45.5486 20.7467C46.0908 20.7467 46.5746 20.8593 47.0001 21.0846C47.4338 21.3098 47.7717 21.6435 48.0136 22.0856C48.2555 22.5277 48.3765 23.0616 48.3765 23.6872V27.7539H46.9625V23.9C46.9625 23.2827 46.8082 22.8113 46.4995 22.486C46.1909 22.1523 45.7696 21.9855 45.2357 21.9855C44.7019 21.9855 44.2764 22.1523 43.9594 22.486C43.6508 22.8113 43.4965 23.2827 43.4965 23.9V27.7539H42.07V20.8593H43.4965V21.6476C43.73 21.364 44.0262 21.143 44.3849 20.9845C44.7519 20.826 45.1398 20.7467 45.5486 20.7467ZM50.2018 24.3004C50.2018 23.5913 50.3436 22.9698 50.6272 22.4359C50.9192 21.8937 51.3196 21.4766 51.8285 21.1847C52.3373 20.8927 52.9212 20.7467 53.5803 20.7467C54.4144 20.7467 55.1027 20.9469 55.6449 21.3473C56.1954 21.7394 56.5667 22.3025 56.7585 23.0366H55.2194C55.0943 22.6945 54.8941 22.4276 54.6188 22.2357C54.3435 22.0439 53.9973 21.9479 53.5803 21.9479C52.9963 21.9479 52.5292 22.1565 52.1788 22.5736C51.8368 22.9823 51.6658 23.5579 51.6658 24.3004C51.6658 25.0428 51.8368 25.6226 52.1788 26.0396C52.5292 26.4567 52.9963 26.6653 53.5803 26.6653C54.4061 26.6653 54.9525 26.3024 55.2194 25.5767H56.7585C56.5583 26.2774 56.1829 26.8363 55.6324 27.2534C55.0818 27.6621 54.3978 27.8665 53.5803 27.8665C52.9212 27.8665 52.3373 27.7205 51.8285 27.4286C51.3196 27.1283 50.9192 26.7112 50.6272 26.1773C50.3436 25.6351 50.2018 25.0094 50.2018 24.3004ZM64.9803 24.1377C64.9803 24.3963 64.9637 24.6299 64.9303 24.8384H59.6624C59.7041 25.389 59.9085 25.8311 60.2755 26.1648C60.6426 26.4985 61.093 26.6653 61.6269 26.6653C62.3944 26.6653 62.9366 26.3441 63.2536 25.7018H64.7926C64.5841 26.3358 64.2045 26.8572 63.654 27.2659C63.1118 27.6663 62.4361 27.8665 61.6269 27.8665C60.9679 27.8665 60.3756 27.7205 59.8501 27.4286C59.3329 27.1283 58.9241 26.7112 58.6238 26.1773C58.3319 25.6351 58.1859 25.0094 58.1859 24.3004C58.1859 23.5913 58.3277 22.9698 58.6113 22.4359C58.9033 21.8937 59.3079 21.4766 59.8251 21.1847C60.3506 20.8927 60.9512 20.7467 61.6269 20.7467C62.2776 20.7467 62.8573 20.8885 63.3662 21.1722C63.875 21.4558 64.2713 21.8562 64.5549 22.3734C64.8385 22.8822 64.9803 23.4703 64.9803 24.1377ZM63.4913 23.6872C63.483 23.1617 63.2953 22.7404 62.9282 22.4234C62.5612 22.1064 62.1066 21.9479 61.5643 21.9479C61.0722 21.9479 60.6509 22.1064 60.3005 22.4234C59.9502 22.7321 59.7416 23.1534 59.6749 23.6872H63.4913Z" fill="black"/>
<path d="M31.5833 73.1175H27.1913V75.9704C27.3831 75.7035 27.6668 75.4866 28.0421 75.3198C28.4175 75.1446 28.8221 75.057 29.2559 75.057C29.9483 75.057 30.5113 75.203 30.9451 75.495C31.3789 75.7786 31.6876 76.1498 31.8711 76.6086C32.0629 77.0591 32.1589 77.5387 32.1589 78.0476C32.1589 78.6482 32.0463 79.1862 31.821 79.6617C31.5958 80.1372 31.2496 80.5126 30.7825 80.7879C30.3237 81.0632 29.7522 81.2008 29.0682 81.2008C28.1923 81.2008 27.4832 80.9756 26.941 80.5251C26.3988 80.0747 26.0693 79.474 25.9525 78.7233H27.0661C27.1746 79.1988 27.404 79.57 27.7543 79.8369C28.1047 80.1038 28.5468 80.2373 29.0807 80.2373C29.7397 80.2373 30.2361 80.0413 30.5697 79.6492C30.9034 79.2488 31.0703 78.7233 31.0703 78.0726C31.0703 77.4219 30.9034 76.9214 30.5697 76.5711C30.2361 76.2124 29.7439 76.033 29.0932 76.033C28.6511 76.033 28.2632 76.1414 27.9295 76.3583C27.6042 76.5669 27.3665 76.8547 27.2163 77.2217H26.1402V72.1165H31.5833V73.1175ZM34.1533 76.5585C34.1533 75.1237 34.3869 74.0059 34.854 73.2051C35.3212 72.3959 36.1387 71.9914 37.3065 71.9914C38.4661 71.9914 39.2794 72.3959 39.7465 73.2051C40.2137 74.0059 40.4473 75.1237 40.4473 76.5585C40.4473 78.0184 40.2137 79.1529 39.7465 79.962C39.2794 80.7712 38.4661 81.1758 37.3065 81.1758C36.1387 81.1758 35.3212 80.7712 34.854 79.962C34.3869 79.1529 34.1533 78.0184 34.1533 76.5585ZM39.3211 76.5585C39.3211 75.8328 39.2711 75.2197 39.171 74.7192C39.0792 74.2103 38.8832 73.8015 38.5829 73.4929C38.2909 73.1842 37.8655 73.0299 37.3065 73.0299C36.7393 73.0299 36.3055 73.1842 36.0052 73.4929C35.7132 73.8015 35.5172 74.2103 35.4171 74.7192C35.3253 75.2197 35.2795 75.8328 35.2795 76.5585C35.2795 77.3093 35.3253 77.9391 35.4171 78.448C35.5172 78.9568 35.7132 79.3656 36.0052 79.6742C36.3055 79.9829 36.7393 80.1372 37.3065 80.1372C37.8655 80.1372 38.2909 79.9829 38.5829 79.6742C38.8832 79.3656 39.0792 78.9568 39.171 78.448C39.2711 77.9391 39.3211 77.3093 39.3211 76.5585ZM50.3256 81.1758L47.6353 78.1477V81.1758H46.4967V71.9163H47.6353V77.3594L50.2755 74.3187H51.8647L48.6363 77.7347L51.8772 81.1758H50.3256ZM61.6636 74.1936C62.1975 74.1936 62.673 74.3062 63.0901 74.5315C63.5072 74.7484 63.8367 75.0779 64.0786 75.52C64.3205 75.9621 64.4414 76.5001 64.4414 77.1341V81.1758H63.3153V77.2968C63.3153 76.6128 63.1443 76.0914 62.8023 75.7327C62.4686 75.3657 62.014 75.1821 61.4384 75.1821C60.8461 75.1821 60.3748 75.374 60.0244 75.7577C59.6741 76.1331 59.4989 76.6795 59.4989 77.3969V81.1758H58.3727V77.2968C58.3727 76.6128 58.2017 76.0914 57.8597 75.7327C57.526 75.3657 57.0714 75.1821 56.4958 75.1821C55.9035 75.1821 55.4322 75.374 55.0818 75.7577C54.7315 76.1331 54.5563 76.6795 54.5563 77.3969V81.1758H53.4176V74.3187H54.5563V75.3073C54.7815 74.9486 55.0818 74.6733 55.4572 74.4814C55.841 74.2895 56.2622 74.1936 56.721 74.1936C57.2966 74.1936 57.8055 74.3229 58.2476 74.5815C58.6897 74.8401 59.0192 75.2197 59.2361 75.7202C59.428 75.2364 59.745 74.861 60.1871 74.594C60.6292 74.3271 61.1214 74.1936 61.6636 74.1936Z" fill="black"/>
<path d="M25.6772 134.165C26.7366 133.314 27.5667 132.617 28.1673 132.075C28.7679 131.524 29.2726 130.953 29.6813 130.361C30.0984 129.76 30.307 129.172 30.307 128.596C30.307 128.054 30.1735 127.629 29.9066 127.32C29.648 127.003 29.2267 126.845 28.6428 126.845C28.0755 126.845 27.6334 127.024 27.3164 127.383C27.0077 127.733 26.8409 128.204 26.8159 128.797H25.7148C25.7481 127.862 26.0317 127.141 26.5656 126.632C27.0995 126.123 27.7877 125.869 28.6302 125.869C29.4895 125.869 30.1693 126.106 30.6698 126.582C31.1787 127.057 31.4331 127.712 31.4331 128.546C31.4331 129.239 31.2246 129.914 30.8075 130.574C30.3987 131.224 29.9316 131.8 29.406 132.3C28.8805 132.792 28.209 133.368 27.3915 134.027H31.6959V134.978H25.6772V134.165ZM39.2619 127.02H34.8699V129.873C35.0617 129.606 35.3454 129.389 35.7207 129.222C36.0961 129.047 36.5007 128.959 36.9345 128.959C37.6269 128.959 38.1899 129.105 38.6237 129.397C39.0575 129.681 39.3661 130.052 39.5497 130.511C39.7415 130.961 39.8375 131.441 39.8375 131.95C39.8375 132.551 39.7248 133.089 39.4996 133.564C39.2744 134.04 38.9282 134.415 38.461 134.69C38.0022 134.966 37.4308 135.103 36.7468 135.103C35.8709 135.103 35.1618 134.878 34.6196 134.427C34.0774 133.977 33.7479 133.376 33.6311 132.626H34.7447C34.8532 133.101 35.0826 133.472 35.4329 133.739C35.7833 134.006 36.2254 134.14 36.7593 134.14C37.4183 134.14 37.9147 133.944 38.2483 133.552C38.582 133.151 38.7488 132.626 38.7488 131.975C38.7488 131.324 38.582 130.824 38.2483 130.473C37.9147 130.115 37.4225 129.935 36.7718 129.935C36.3297 129.935 35.9418 130.044 35.6081 130.261C35.2828 130.469 35.045 130.757 34.8949 131.124H33.8188V126.019H39.2619V127.02ZM49.6657 135.078L46.9755 132.05V135.078H45.8368V125.819H46.9755V131.262L49.6157 128.221H51.2048L47.9765 131.637L51.2173 135.078H49.6657ZM61.0037 128.096C61.5376 128.096 62.0131 128.209 62.4302 128.434C62.8473 128.651 63.1768 128.98 63.4187 129.422C63.6606 129.864 63.7816 130.402 63.7816 131.036V135.078H62.6554V131.199C62.6554 130.515 62.4844 129.994 62.1424 129.635C61.8087 129.268 61.3541 129.084 60.7785 129.084C60.1862 129.084 59.7149 129.276 59.3646 129.66C59.0142 130.035 58.839 130.582 58.839 131.299V135.078H57.7129V131.199C57.7129 130.515 57.5419 129.994 57.1998 129.635C56.8662 129.268 56.4115 129.084 55.8359 129.084C55.2437 129.084 54.7723 129.276 54.422 129.66C54.0716 130.035 53.8964 130.582 53.8964 131.299V135.078H52.7578V128.221H53.8964V129.21C54.1217 128.851 54.422 128.576 54.7974 128.384C55.1811 128.192 55.6024 128.096 56.0612 128.096C56.6368 128.096 57.1456 128.225 57.5877 128.484C58.0299 128.742 58.3594 129.122 58.5762 129.623C58.7681 129.139 59.0851 128.763 59.5272 128.496C59.9693 128.229 60.4615 128.096 61.0037 128.096Z" fill="black"/>
<path d="M33.4945 184.359C33.4945 182.925 33.7281 181.807 34.1953 181.006C34.6624 180.197 35.4799 179.792 36.6478 179.792C37.8073 179.792 38.6206 180.197 39.0878 181.006C39.5549 181.807 39.7885 182.925 39.7885 184.359C39.7885 185.819 39.5549 186.954 39.0878 187.763C38.6206 188.572 37.8073 188.977 36.6478 188.977C35.4799 188.977 34.6624 188.572 34.1953 187.763C33.7281 186.954 33.4945 185.819 33.4945 184.359ZM38.6624 184.359C38.6624 183.634 38.6123 183.02 38.5122 182.52C38.4204 182.011 38.2244 181.602 37.9241 181.294C37.6321 180.985 37.2067 180.831 36.6478 180.831C36.0805 180.831 35.6468 180.985 35.3464 181.294C35.0545 181.602 34.8584 182.011 34.7583 182.52C34.6666 183.02 34.6207 183.634 34.6207 184.359C34.6207 185.11 34.6666 185.74 34.7583 186.249C34.8584 186.758 35.0545 187.166 35.3464 187.475C35.6468 187.784 36.0805 187.938 36.6478 187.938C37.2067 187.938 37.6321 187.784 37.9241 187.475C38.2244 187.166 38.4204 186.758 38.5122 186.249C38.6123 185.74 38.6624 185.11 38.6624 184.359ZM49.6668 188.977L46.9766 185.948V188.977H45.8379V179.717H46.9766V185.16L49.6168 182.12H51.2059L47.9776 185.536L51.2184 188.977H49.6668ZM61.0048 181.994C61.5387 181.994 62.0142 182.107 62.4313 182.332C62.8484 182.549 63.1779 182.879 63.4198 183.321C63.6617 183.763 63.7827 184.301 63.7827 184.935V188.977H62.6565V185.098C62.6565 184.414 62.4855 183.892 62.1435 183.533C61.8098 183.166 61.3552 182.983 60.7796 182.983C60.1873 182.983 59.716 183.175 59.3657 183.559C59.0153 183.934 58.8401 184.48 58.8401 185.198V188.977H57.714V185.098C57.714 184.414 57.5429 183.892 57.2009 183.533C56.8673 183.166 56.4126 182.983 55.837 182.983C55.2448 182.983 54.7734 183.175 54.4231 183.559C54.0727 183.934 53.8975 184.48 53.8975 185.198V188.977H52.7589V182.12H53.8975V183.108C54.1228 182.749 54.4231 182.474 54.7985 182.282C55.1822 182.09 55.6035 181.994 56.0623 181.994C56.6379 181.994 57.1467 182.124 57.5888 182.382C58.031 182.641 58.3605 183.02 58.5773 183.521C58.7692 183.037 59.0862 182.662 59.5283 182.395C59.9704 182.128 60.4626 181.994 61.0048 181.994Z" fill="black"/>
<path d="M80.8516 131.666C111.786 131.666 108.131 73.9141 139.065 73.9141C169.999 73.9141 166.338 89.3143 197.272 89.3143C228.206 89.3143 223.441 114.615 254.375 114.615C285.31 114.615 290.549 127.613 321.483 127.613" stroke="#E1057C" stroke-width="5.59724" stroke-linecap="round"/>
<path d="M80.8516 114.342C111.062 114.342 114.921 74.1141 145.131 74.1141C175.341 74.1141 170.332 42.1523 200.542 42.1523C230.752 42.1523 230.175 87.3399 260.385 87.3399C290.595 87.3399 292.236 110.115 322.446 110.115" stroke="#0096C7" stroke-opacity="0.07" stroke-width="32.7259" stroke-linecap="round"/>
<path d="M80.8516 114.342C111.062 114.342 114.921 74.1141 145.131 74.1141C175.341 74.1141 170.332 42.1523 200.542 42.1523C230.752 42.1523 230.175 87.3399 260.385 87.3399C290.595 87.3399 292.236 110.115 322.446 110.115" stroke="#50ABB0" stroke-width="5.59724" stroke-linecap="round"/>
<circle cx="198.281" cy="41.6721" r="6.25642" fill="#0096C7" stroke="white" stroke-width="1.92505"/>
<rect x="160.266" y="7.98438" width="77.9646" height="24.0632" rx="3.85011" fill="black"/>
<path d="M181.065 17.1057L179.026 22.7188H178.193L180.541 16.5601H181.078L181.065 17.1057ZM182.774 22.7188L180.731 17.1057L180.718 16.5601H181.255L183.611 22.7188H182.774ZM182.668 20.4389V21.1072H179.208V20.4389H182.668ZM185.979 22.0124L187.231 18.1421H188.031L186.385 22.7188H185.861L185.979 22.0124ZM184.934 18.1421L186.225 22.0335L186.313 22.7188H185.789L184.131 18.1421H184.934ZM191.105 22.8033C190.786 22.8033 190.497 22.7498 190.238 22.6426C189.981 22.5326 189.76 22.379 189.574 22.1816C189.39 21.9842 189.249 21.7501 189.151 21.4794C189.052 21.2087 189.003 20.9126 189.003 20.5911V20.4135C189.003 20.0413 189.058 19.7099 189.168 19.4195C189.278 19.1262 189.427 18.878 189.616 18.675C189.805 18.472 190.019 18.3183 190.259 18.214C190.499 18.1096 190.747 18.0575 191.003 18.0575C191.33 18.0575 191.612 18.1139 191.849 18.2266C192.089 18.3394 192.285 18.4974 192.437 18.7004C192.59 18.9006 192.702 19.1375 192.776 19.411C192.849 19.6817 192.886 19.9778 192.886 20.2993V20.6504H189.468V20.0116H192.103V19.9524C192.092 19.7494 192.05 19.552 191.976 19.3602C191.906 19.1685 191.793 19.0106 191.638 18.8865C191.483 18.7624 191.271 18.7004 191.003 18.7004C190.826 18.7004 190.662 18.7385 190.513 18.8146C190.363 18.8879 190.235 18.9979 190.128 19.1445C190.021 19.2912 189.937 19.4702 189.878 19.6817C189.819 19.8932 189.789 20.1371 189.789 20.4135V20.5911C189.789 20.8083 189.819 21.0127 189.878 21.2045C189.94 21.3934 190.029 21.5598 190.145 21.7036C190.263 21.8474 190.406 21.9602 190.572 22.042C190.741 22.1238 190.933 22.1646 191.147 22.1646C191.423 22.1646 191.658 22.1082 191.849 21.9954C192.041 21.8826 192.209 21.7318 192.353 21.5429L192.826 21.9193C192.728 22.0688 192.602 22.2112 192.45 22.3465C192.298 22.4819 192.11 22.5919 191.887 22.6765C191.667 22.761 191.407 22.8033 191.105 22.8033ZM195.063 18.8611V22.7188H194.281V18.1421H195.042L195.063 18.8611ZM196.493 18.1167L196.488 18.8442C196.424 18.8301 196.362 18.8216 196.302 18.8188C196.246 18.8132 196.181 18.8104 196.108 18.8104C195.927 18.8104 195.768 18.8386 195.63 18.895C195.492 18.9514 195.375 19.0303 195.279 19.1318C195.183 19.2334 195.107 19.3546 195.05 19.4956C194.997 19.6338 194.962 19.7861 194.945 19.9524L194.725 20.0793C194.725 19.803 194.751 19.5435 194.805 19.301C194.861 19.0585 194.947 18.8442 195.063 18.6581C195.179 18.4692 195.325 18.3225 195.503 18.2182C195.683 18.111 195.898 18.0575 196.146 18.0575C196.202 18.0575 196.267 18.0645 196.34 18.0786C196.414 18.0899 196.465 18.1026 196.493 18.1167ZM200.227 21.9362V19.5802C200.227 19.3997 200.19 19.2432 200.117 19.1107C200.046 18.9753 199.939 18.871 199.795 18.7977C199.651 18.7244 199.474 18.6877 199.262 18.6877C199.065 18.6877 198.892 18.7215 198.742 18.7892C198.595 18.8569 198.48 18.9457 198.395 19.0557C198.313 19.1657 198.273 19.2841 198.273 19.411H197.49C197.49 19.2475 197.532 19.0853 197.617 18.9246C197.702 18.7638 197.823 18.6186 197.981 18.4889C198.141 18.3564 198.333 18.252 198.556 18.1759C198.782 18.0969 199.033 18.0575 199.309 18.0575C199.642 18.0575 199.935 18.1139 200.189 18.2266C200.445 18.3394 200.646 18.51 200.789 18.7385C200.936 18.9641 201.009 19.2475 201.009 19.5887V21.7205C201.009 21.8728 201.022 22.0349 201.047 22.2069C201.076 22.379 201.116 22.527 201.17 22.6511V22.7188H200.354C200.314 22.6285 200.283 22.5087 200.261 22.3592C200.238 22.2069 200.227 22.0659 200.227 21.9362ZM200.362 19.944L200.371 20.4938H199.58C199.357 20.4938 199.158 20.5122 198.983 20.5488C198.808 20.5827 198.662 20.6348 198.543 20.7053C198.425 20.7758 198.335 20.8647 198.273 20.9718C198.211 21.0762 198.179 21.1988 198.179 21.3398C198.179 21.4836 198.212 21.6148 198.277 21.7332C198.342 21.8516 198.439 21.9461 198.569 22.0166C198.701 22.0843 198.863 22.1181 199.055 22.1181C199.295 22.1181 199.506 22.0674 199.69 21.9658C199.873 21.8643 200.018 21.7402 200.125 21.5936C200.235 21.447 200.294 21.3046 200.303 21.1664L200.637 21.5429C200.617 21.6613 200.564 21.7924 200.476 21.9362C200.389 22.08 200.272 22.2182 200.125 22.3508C199.981 22.4805 199.809 22.589 199.609 22.6765C199.412 22.761 199.189 22.8033 198.941 22.8033C198.631 22.8033 198.359 22.7427 198.125 22.6215C197.893 22.5002 197.713 22.3381 197.583 22.135C197.456 21.9292 197.393 21.6994 197.393 21.4456C197.393 21.2002 197.441 20.9845 197.537 20.7984C197.632 20.6095 197.771 20.453 197.951 20.3289C198.132 20.202 198.349 20.1061 198.602 20.0413C198.856 19.9764 199.14 19.944 199.453 19.944H200.362ZM205.687 18.1421H206.397V22.6215C206.397 23.0247 206.315 23.3687 206.152 23.6535C205.988 23.9384 205.76 24.1541 205.467 24.3007C205.176 24.4502 204.841 24.5249 204.46 24.5249C204.302 24.5249 204.116 24.4995 203.902 24.4488C203.69 24.4008 203.481 24.3176 203.276 24.1992C203.072 24.0836 202.902 23.9271 202.764 23.7297L203.174 23.2644C203.366 23.4956 203.566 23.6564 203.775 23.7466C203.986 23.8368 204.195 23.882 204.401 23.882C204.649 23.882 204.863 23.8354 205.044 23.7424C205.224 23.6493 205.364 23.5111 205.462 23.3278C205.564 23.1474 205.615 22.9246 205.615 22.6595V19.1488L205.687 18.1421ZM202.535 20.4812V20.3923C202.535 20.0427 202.576 19.7254 202.658 19.4406C202.743 19.153 202.862 18.9062 203.018 18.7004C203.175 18.4945 203.366 18.3366 203.589 18.2266C203.811 18.1139 204.062 18.0575 204.341 18.0575C204.629 18.0575 204.88 18.1082 205.094 18.2097C205.311 18.3084 205.495 18.4536 205.644 18.6454C205.797 18.8343 205.916 19.0627 206.004 19.3306C206.091 19.5985 206.152 19.9017 206.186 20.2401V20.6292C206.155 20.9648 206.094 21.2665 206.004 21.5344C205.916 21.8023 205.797 22.0307 205.644 22.2196C205.495 22.4086 205.311 22.5538 205.094 22.6553C204.877 22.754 204.623 22.8033 204.333 22.8033C204.059 22.8033 203.811 22.7455 203.589 22.6299C203.369 22.5143 203.18 22.3522 203.022 22.1435C202.864 21.9348 202.743 21.6895 202.658 21.4075C202.576 21.1227 202.535 20.8139 202.535 20.4812ZM203.318 20.3923V20.4812C203.318 20.7096 203.34 20.9239 203.386 21.1241C203.433 21.3243 203.505 21.5006 203.601 21.6528C203.7 21.8051 203.825 21.9249 203.978 22.0124C204.13 22.097 204.312 22.1393 204.523 22.1393C204.783 22.1393 204.997 22.0843 205.166 21.9743C205.335 21.8643 205.469 21.7191 205.568 21.5386C205.67 21.3581 205.749 21.1622 205.805 20.9507V19.9313C205.774 19.7762 205.726 19.6267 205.661 19.4829C205.599 19.3363 205.517 19.2066 205.416 19.0938C205.317 18.9782 205.194 18.8865 205.048 18.8188C204.901 18.7511 204.729 18.7173 204.532 18.7173C204.317 18.7173 204.133 18.7624 203.978 18.8527C203.825 18.9401 203.7 19.0613 203.601 19.2164C203.505 19.3687 203.433 19.5464 203.386 19.7494C203.34 19.9496 203.318 20.1639 203.318 20.3923ZM209.966 22.8033C209.648 22.8033 209.359 22.7498 209.099 22.6426C208.842 22.5326 208.621 22.379 208.435 22.1816C208.252 21.9842 208.111 21.7501 208.012 21.4794C207.913 21.2087 207.864 20.9126 207.864 20.5911V20.4135C207.864 20.0413 207.919 19.7099 208.029 19.4195C208.139 19.1262 208.288 18.878 208.477 18.675C208.666 18.472 208.881 18.3183 209.12 18.214C209.36 18.1096 209.608 18.0575 209.865 18.0575C210.192 18.0575 210.474 18.1139 210.711 18.2266C210.95 18.3394 211.146 18.4974 211.299 18.7004C211.451 18.9006 211.564 19.1375 211.637 19.411C211.71 19.6817 211.747 19.9778 211.747 20.2993V20.6504H208.329V20.0116H210.964V19.9524C210.953 19.7494 210.911 19.552 210.838 19.3602C210.767 19.1685 210.654 19.0106 210.499 18.8865C210.344 18.7624 210.133 18.7004 209.865 18.7004C209.687 18.7004 209.523 18.7385 209.374 18.8146C209.225 18.8879 209.096 18.9979 208.989 19.1445C208.882 19.2912 208.799 19.4702 208.74 19.6817C208.68 19.8932 208.651 20.1371 208.651 20.4135V20.5911C208.651 20.8083 208.68 21.0127 208.74 21.2045C208.802 21.3934 208.89 21.5598 209.006 21.7036C209.124 21.8474 209.267 21.9602 209.433 22.042C209.602 22.1238 209.794 22.1646 210.009 22.1646C210.285 22.1646 210.519 22.1082 210.711 21.9954C210.902 21.8826 211.07 21.7318 211.214 21.5429L211.688 21.9193C211.589 22.0688 211.464 22.2112 211.311 22.3465C211.159 22.4819 210.972 22.5919 210.749 22.6765C210.529 22.761 210.268 22.8033 209.966 22.8033ZM219.723 22.0758V22.7188H215.692V22.1562L217.709 19.9101C217.957 19.6338 218.149 19.3997 218.284 19.208C218.423 19.0134 218.519 18.84 218.572 18.6877C218.628 18.5326 218.657 18.3747 218.657 18.214C218.657 18.0109 218.614 17.8276 218.53 17.6641C218.448 17.4977 218.327 17.3652 218.166 17.2665C218.005 17.1678 217.811 17.1184 217.582 17.1184C217.309 17.1184 217.08 17.172 216.897 17.2792C216.717 17.3835 216.581 17.5301 216.491 17.7191C216.401 17.908 216.356 18.1251 216.356 18.3705H215.573C215.573 18.0236 215.649 17.7064 215.802 17.4187C215.954 17.1311 216.179 16.9027 216.478 16.7335C216.777 16.5615 217.145 16.4755 217.582 16.4755C217.971 16.4755 218.304 16.5446 218.581 16.6828C218.857 16.8181 219.068 17.0099 219.215 17.258C219.364 17.5033 219.439 17.791 219.439 18.1209C219.439 18.3014 219.408 18.4847 219.346 18.6708C219.287 18.8541 219.204 19.0374 219.097 19.2207C218.992 19.404 218.87 19.5844 218.729 19.7621C218.59 19.9397 218.442 20.1146 218.284 20.2866L216.635 22.0758H219.723Z" fill="white"/>
<circle cx="22.0625" cy="245.254" r="6.78905" fill="#50ABB0"/>
<path d="M37.8833 245.718C37.8833 244.852 38.0785 244.075 38.4689 243.388C38.8592 242.692 39.3896 242.149 40.06 241.759C40.7389 241.368 41.49 241.173 42.3132 241.173C43.2806 241.173 44.125 241.407 44.8463 241.873C45.5677 242.34 46.0938 243.002 46.4248 243.859H45.0373C44.7912 243.324 44.4347 242.913 43.968 242.624C43.5097 242.336 42.9581 242.192 42.3132 242.192C41.6937 242.192 41.1378 242.336 40.6456 242.624C40.1534 242.913 39.7673 243.324 39.4872 243.859C39.2072 244.385 39.0671 245.005 39.0671 245.718C39.0671 246.422 39.2072 247.041 39.4872 247.576C39.7673 248.102 40.1534 248.51 40.6456 248.798C41.1378 249.087 41.6937 249.231 42.3132 249.231C42.9581 249.231 43.5097 249.091 43.968 248.811C44.4347 248.522 44.7912 248.111 45.0373 247.576H46.4248C46.0938 248.425 45.5677 249.082 44.8463 249.549C44.125 250.007 43.2806 250.237 42.3132 250.237C41.49 250.237 40.7389 250.046 40.06 249.664C39.3896 249.273 38.8592 248.734 38.4689 248.047C38.0785 247.36 37.8833 246.583 37.8833 245.718ZM54.3356 243.184V250.16H53.1773V249.129C52.9566 249.485 52.6469 249.766 52.248 249.969C51.8576 250.164 51.4248 250.262 50.9496 250.262C50.4065 250.262 49.9185 250.152 49.4857 249.931C49.0529 249.702 48.7092 249.362 48.4546 248.913C48.2085 248.463 48.0855 247.916 48.0855 247.271V243.184H49.2311V247.118C49.2311 247.805 49.4051 248.336 49.753 248.709C50.101 249.074 50.5762 249.256 51.1787 249.256C51.7982 249.256 52.2862 249.065 52.6426 248.684C52.999 248.302 53.1773 247.746 53.1773 247.016V243.184H54.3356ZM57.4499 244.317C57.6536 243.918 57.9421 243.609 58.3155 243.388C58.6974 243.167 59.1599 243.057 59.703 243.057V244.254H59.3975C58.0991 244.254 57.4499 244.958 57.4499 246.367V250.16H56.2915V243.184H57.4499V244.317ZM62.1986 244.317C62.4022 243.918 62.6908 243.609 63.0642 243.388C63.4461 243.167 63.9086 243.057 64.4517 243.057V244.254H64.1462C62.8478 244.254 62.1986 244.958 62.1986 246.367V250.16H61.0402V243.184H62.1986V244.317ZM72.1536 246.405C72.1536 246.626 72.1409 246.859 72.1154 247.105H66.5399C66.5824 247.792 66.8157 248.331 67.24 248.722C67.6728 249.104 68.1948 249.295 68.8058 249.295C69.3065 249.295 69.7223 249.18 70.0533 248.951C70.3927 248.713 70.6303 248.399 70.7661 248.009H72.0136C71.8269 248.679 71.4535 249.227 70.8934 249.651C70.3333 250.067 69.6374 250.275 68.8058 250.275C68.1438 250.275 67.5498 250.126 67.0236 249.829C66.506 249.532 66.0986 249.112 65.8016 248.569C65.5046 248.017 65.3561 247.381 65.3561 246.66C65.3561 245.938 65.5003 245.306 65.7889 244.763C66.0774 244.22 66.4805 243.804 66.9982 243.515C67.5243 243.218 68.1269 243.07 68.8058 243.07C69.4677 243.07 70.0533 243.214 70.5624 243.503C71.0716 243.791 71.462 244.19 71.7335 244.699C72.0136 245.2 72.1536 245.768 72.1536 246.405ZM70.957 246.163C70.957 245.722 70.8595 245.344 70.6643 245.03C70.4691 244.708 70.2018 244.466 69.8623 244.305C69.5313 244.135 69.1622 244.05 68.7548 244.05C68.1693 244.05 67.6686 244.237 67.2528 244.61C66.8454 244.984 66.6121 245.501 66.5526 246.163H70.957ZM77.0814 243.057C77.93 243.057 78.6174 243.316 79.1436 243.834C79.6697 244.343 79.9328 245.081 79.9328 246.049V250.16H78.7872V246.214C78.7872 245.518 78.6132 244.988 78.2652 244.623C77.9173 244.249 77.4421 244.063 76.8395 244.063C76.2285 244.063 75.7406 244.254 75.3757 244.636C75.0192 245.017 74.841 245.573 74.841 246.303V250.16H73.6826V243.184H74.841V244.177C75.0702 243.821 75.3799 243.545 75.7703 243.35C76.1691 243.155 76.6062 243.057 77.0814 243.057ZM83.238 244.139V248.251C83.238 248.59 83.3101 248.832 83.4544 248.976C83.5987 249.112 83.849 249.18 84.2054 249.18H85.0583V250.16H84.0145C83.3695 250.16 82.8858 250.012 82.5633 249.715C82.2409 249.418 82.0796 248.93 82.0796 248.251V244.139H81.1758V243.184H82.0796V241.428H83.238V243.184H85.0583V244.139H83.238ZM98.8553 241.351V250.16H97.6969V243.592L94.7691 250.16H93.9544L91.0139 243.579V250.16H89.8555V241.351H91.103L94.3618 248.633L97.6205 241.351H98.8553ZM103.862 250.275C103.209 250.275 102.615 250.126 102.08 249.829C101.554 249.532 101.138 249.112 100.833 248.569C100.535 248.017 100.387 247.381 100.387 246.66C100.387 245.947 100.54 245.319 100.845 244.776C101.159 244.224 101.584 243.804 102.118 243.515C102.653 243.218 103.251 243.07 103.913 243.07C104.575 243.07 105.173 243.218 105.708 243.515C106.243 243.804 106.663 244.22 106.968 244.763C107.282 245.306 107.439 245.938 107.439 246.66C107.439 247.381 107.278 248.017 106.955 248.569C106.641 249.112 106.213 249.532 105.67 249.829C105.127 250.126 104.524 250.275 103.862 250.275ZM103.862 249.256C104.278 249.256 104.668 249.159 105.033 248.964C105.398 248.768 105.691 248.476 105.912 248.085C106.141 247.695 106.255 247.22 106.255 246.66C106.255 246.099 106.145 245.624 105.924 245.234C105.704 244.843 105.415 244.555 105.059 244.368C104.702 244.173 104.316 244.075 103.9 244.075C103.476 244.075 103.086 244.173 102.729 244.368C102.381 244.555 102.101 244.843 101.889 245.234C101.677 245.624 101.571 246.099 101.571 246.66C101.571 247.228 101.673 247.708 101.876 248.098C102.088 248.488 102.369 248.781 102.716 248.976C103.064 249.163 103.446 249.256 103.862 249.256ZM112.361 243.057C113.21 243.057 113.897 243.316 114.423 243.834C114.949 244.343 115.212 245.081 115.212 246.049V250.16H114.067V246.214C114.067 245.518 113.893 244.988 113.545 244.623C113.197 244.249 112.722 244.063 112.119 244.063C111.508 244.063 111.02 244.254 110.655 244.636C110.299 245.017 110.121 245.573 110.121 246.303V250.16H108.962V243.184H110.121V244.177C110.35 243.821 110.659 243.545 111.05 243.35C111.449 243.155 111.886 243.057 112.361 243.057ZM118.518 244.139V248.251C118.518 248.59 118.59 248.832 118.734 248.976C118.878 249.112 119.129 249.18 119.485 249.18H120.338V250.16H119.294C118.649 250.16 118.165 250.012 117.843 249.715C117.52 249.418 117.359 248.93 117.359 248.251V244.139H116.455V243.184H117.359V241.428H118.518V243.184H120.338V244.139H118.518ZM125.204 243.057C125.73 243.057 126.205 243.172 126.629 243.401C127.054 243.621 127.385 243.957 127.622 244.406C127.868 244.856 127.992 245.404 127.992 246.049V250.16H126.846V246.214C126.846 245.518 126.672 244.988 126.324 244.623C125.976 244.249 125.501 244.063 124.898 244.063C124.287 244.063 123.799 244.254 123.434 244.636C123.078 245.017 122.9 245.573 122.9 246.303V250.16H121.741V240.74H122.9V244.177C123.129 243.821 123.443 243.545 123.842 243.35C124.249 243.155 124.703 243.057 125.204 243.057ZM130.469 240.028L130.317 242.561H129.515L129.349 240.028H130.469ZM134.38 250.275C133.845 250.275 133.365 250.186 132.941 250.007C132.517 249.821 132.182 249.566 131.935 249.244C131.689 248.913 131.554 248.535 131.528 248.111H132.725C132.759 248.459 132.92 248.743 133.208 248.964C133.505 249.184 133.892 249.295 134.367 249.295C134.808 249.295 135.156 249.197 135.411 249.002C135.665 248.807 135.792 248.56 135.792 248.263C135.792 247.958 135.657 247.733 135.385 247.589C135.114 247.436 134.694 247.288 134.125 247.143C133.607 247.007 133.183 246.872 132.852 246.736C132.53 246.592 132.249 246.384 132.012 246.112C131.783 245.832 131.668 245.467 131.668 245.017C131.668 244.661 131.774 244.334 131.986 244.037C132.199 243.74 132.5 243.507 132.89 243.337C133.281 243.159 133.726 243.07 134.227 243.07C134.999 243.07 135.623 243.265 136.098 243.655C136.573 244.046 136.828 244.58 136.862 245.259H135.703C135.678 244.894 135.529 244.602 135.258 244.381C134.995 244.16 134.638 244.05 134.189 244.05C133.773 244.05 133.442 244.139 133.196 244.317C132.95 244.496 132.827 244.729 132.827 245.017C132.827 245.247 132.899 245.438 133.043 245.59C133.196 245.735 133.382 245.853 133.603 245.947C133.832 246.032 134.146 246.129 134.545 246.239C135.046 246.375 135.453 246.511 135.767 246.647C136.081 246.774 136.348 246.969 136.569 247.232C136.798 247.495 136.917 247.839 136.925 248.263C136.925 248.645 136.819 248.989 136.607 249.295C136.395 249.6 136.094 249.842 135.703 250.02C135.322 250.19 134.88 250.275 134.38 250.275ZM146.626 250.16L144.513 246.532H143.113V250.16H141.954V241.288H144.818C145.489 241.288 146.053 241.402 146.512 241.631C146.978 241.861 147.326 242.17 147.555 242.561C147.784 242.951 147.899 243.397 147.899 243.897C147.899 244.508 147.721 245.047 147.364 245.514C147.016 245.981 146.49 246.29 145.786 246.443L148.014 250.16H146.626ZM143.113 245.603H144.818C145.446 245.603 145.917 245.45 146.231 245.145C146.545 244.831 146.702 244.415 146.702 243.897C146.702 243.371 146.545 242.964 146.231 242.675C145.926 242.387 145.455 242.242 144.818 242.242H143.113V245.603ZM150.297 242.051C150.077 242.051 149.89 241.975 149.737 241.822C149.584 241.67 149.508 241.483 149.508 241.262C149.508 241.042 149.584 240.855 149.737 240.702C149.89 240.549 150.077 240.473 150.297 240.473C150.509 240.473 150.688 240.549 150.832 240.702C150.985 240.855 151.061 241.042 151.061 241.262C151.061 241.483 150.985 241.67 150.832 241.822C150.688 241.975 150.509 242.051 150.297 242.051ZM150.857 243.184V250.16H149.699V243.184H150.857ZM152.399 246.647C152.399 245.934 152.543 245.31 152.832 244.776C153.12 244.232 153.515 243.812 154.015 243.515C154.525 243.218 155.093 243.07 155.721 243.07C156.264 243.07 156.769 243.197 157.236 243.452C157.703 243.698 158.059 244.025 158.305 244.432V240.74H159.476V250.16H158.305V248.849C158.076 249.265 157.737 249.609 157.287 249.88C156.837 250.143 156.311 250.275 155.708 250.275C155.089 250.275 154.525 250.122 154.015 249.816C153.515 249.511 153.12 249.082 152.832 248.531C152.543 247.979 152.399 247.351 152.399 246.647ZM158.305 246.66C158.305 246.133 158.199 245.675 157.987 245.285C157.775 244.894 157.486 244.597 157.121 244.394C156.765 244.182 156.37 244.075 155.938 244.075C155.505 244.075 155.11 244.177 154.754 244.381C154.397 244.585 154.113 244.882 153.901 245.272C153.689 245.662 153.583 246.121 153.583 246.647C153.583 247.181 153.689 247.648 153.901 248.047C154.113 248.437 154.397 248.739 154.754 248.951C155.11 249.155 155.505 249.256 155.938 249.256C156.37 249.256 156.765 249.155 157.121 248.951C157.486 248.739 157.775 248.437 157.987 248.047C158.199 247.648 158.305 247.186 158.305 246.66ZM167.799 246.405C167.799 246.626 167.786 246.859 167.76 247.105H162.185C162.227 247.792 162.461 248.331 162.885 248.722C163.318 249.104 163.84 249.295 164.451 249.295C164.951 249.295 165.367 249.18 165.698 248.951C166.038 248.713 166.275 248.399 166.411 248.009H167.659C167.472 248.679 167.099 249.227 166.538 249.651C165.978 250.067 165.282 250.275 164.451 250.275C163.789 250.275 163.195 250.126 162.669 249.829C162.151 249.532 161.744 249.112 161.447 248.569C161.15 248.017 161.001 247.381 161.001 246.66C161.001 245.938 161.145 245.306 161.434 244.763C161.722 244.22 162.126 243.804 162.643 243.515C163.169 243.218 163.772 243.07 164.451 243.07C165.113 243.07 165.698 243.214 166.207 243.503C166.717 243.791 167.107 244.19 167.379 244.699C167.659 245.2 167.799 245.768 167.799 246.405ZM166.602 246.163C166.602 245.722 166.504 245.344 166.309 245.03C166.114 244.708 165.847 244.466 165.507 244.305C165.176 244.135 164.807 244.05 164.4 244.05C163.814 244.05 163.314 244.237 162.898 244.61C162.49 244.984 162.257 245.501 162.198 246.163H166.602ZM171.797 250.275C171.263 250.275 170.783 250.186 170.359 250.007C169.934 249.821 169.599 249.566 169.353 249.244C169.107 248.913 168.971 248.535 168.946 248.111H170.142C170.176 248.459 170.338 248.743 170.626 248.964C170.923 249.184 171.309 249.295 171.784 249.295C172.226 249.295 172.574 249.197 172.828 249.002C173.083 248.807 173.21 248.56 173.21 248.263C173.21 247.958 173.074 247.733 172.803 247.589C172.531 247.436 172.111 247.288 171.543 247.143C171.025 247.007 170.601 246.872 170.27 246.736C169.947 246.592 169.667 246.384 169.43 246.112C169.2 245.832 169.086 245.467 169.086 245.017C169.086 244.661 169.192 244.334 169.404 244.037C169.616 243.74 169.917 243.507 170.308 243.337C170.698 243.159 171.144 243.07 171.644 243.07C172.417 243.07 173.04 243.265 173.516 243.655C173.991 244.046 174.245 244.58 174.279 245.259H173.121C173.096 244.894 172.947 244.602 172.676 244.381C172.412 244.16 172.056 244.05 171.606 244.05C171.19 244.05 170.859 244.139 170.613 244.317C170.367 244.496 170.244 244.729 170.244 245.017C170.244 245.247 170.316 245.438 170.461 245.59C170.613 245.735 170.8 245.853 171.021 245.947C171.25 246.032 171.564 246.129 171.963 246.239C172.463 246.375 172.871 246.511 173.185 246.647C173.499 246.774 173.766 246.969 173.987 247.232C174.216 247.495 174.335 247.839 174.343 248.263C174.343 248.645 174.237 248.989 174.025 249.295C173.813 249.6 173.511 249.842 173.121 250.02C172.739 250.19 172.298 250.275 171.797 250.275Z" fill="black"/>
<circle cx="190.945" cy="245.254" r="6.78905" fill="#E1057C"/>
<path d="M213.131 243.885C213.131 244.623 212.876 245.238 212.367 245.73C211.866 246.214 211.098 246.456 210.063 246.456H208.357V250.16H207.199V241.288H210.063C211.064 241.288 211.824 241.53 212.342 242.013C212.868 242.497 213.131 243.121 213.131 243.885ZM210.063 245.501C210.708 245.501 211.183 245.361 211.489 245.081C211.794 244.801 211.947 244.402 211.947 243.885C211.947 242.79 211.319 242.242 210.063 242.242H208.357V245.501H210.063ZM215.729 244.317C215.933 243.918 216.221 243.609 216.595 243.388C216.976 243.167 217.439 243.057 217.982 243.057V244.254H217.677C216.378 244.254 215.729 244.958 215.729 246.367V250.16H214.571V243.184H215.729V244.317ZM225.684 246.405C225.684 246.626 225.671 246.859 225.646 247.105H220.07C220.113 247.792 220.346 248.331 220.77 248.722C221.203 249.104 221.725 249.295 222.336 249.295C222.837 249.295 223.253 249.18 223.584 248.951C223.923 248.713 224.161 248.399 224.296 248.009H225.544C225.357 248.679 224.984 249.227 224.424 249.651C223.864 250.067 223.168 250.275 222.336 250.275C221.674 250.275 221.08 250.126 220.554 249.829C220.036 249.532 219.629 249.112 219.332 248.569C219.035 248.017 218.886 247.381 218.886 246.66C218.886 245.938 219.031 245.306 219.319 244.763C219.608 244.22 220.011 243.804 220.529 243.515C221.055 243.218 221.657 243.07 222.336 243.07C222.998 243.07 223.584 243.214 224.093 243.503C224.602 243.791 224.992 244.19 225.264 244.699C225.544 245.2 225.684 245.768 225.684 246.405ZM224.487 246.163C224.487 245.722 224.39 245.344 224.195 245.03C223.999 244.708 223.732 244.466 223.393 244.305C223.062 244.135 222.693 244.05 222.285 244.05C221.7 244.05 221.199 244.237 220.783 244.61C220.376 244.984 220.142 245.501 220.083 246.163H224.487ZM229.81 249.091L231.974 243.184H233.209L230.472 250.16H229.122L226.386 243.184H227.633L229.81 249.091ZM234.947 242.051C234.726 242.051 234.539 241.975 234.387 241.822C234.234 241.67 234.158 241.483 234.158 241.262C234.158 241.042 234.234 240.855 234.387 240.702C234.539 240.549 234.726 240.473 234.947 240.473C235.159 240.473 235.337 240.549 235.481 240.702C235.634 240.855 235.711 241.042 235.711 241.262C235.711 241.483 235.634 241.67 235.481 241.822C235.337 241.975 235.159 242.051 234.947 242.051ZM235.507 243.184V250.16H234.348V243.184H235.507ZM240.523 250.275C239.87 250.275 239.276 250.126 238.741 249.829C238.215 249.532 237.799 249.112 237.494 248.569C237.197 248.017 237.048 247.381 237.048 246.66C237.048 245.947 237.201 245.319 237.507 244.776C237.821 244.224 238.245 243.804 238.78 243.515C239.314 243.218 239.912 243.07 240.574 243.07C241.236 243.07 241.835 243.218 242.369 243.515C242.904 243.804 243.324 244.22 243.629 244.763C243.943 245.306 244.1 245.938 244.1 246.66C244.1 247.381 243.939 248.017 243.617 248.569C243.303 249.112 242.874 249.532 242.331 249.829C241.788 250.126 241.185 250.275 240.523 250.275ZM240.523 249.256C240.939 249.256 241.33 249.159 241.695 248.964C242.059 248.768 242.352 248.476 242.573 248.085C242.802 247.695 242.917 247.22 242.917 246.66C242.917 246.099 242.806 245.624 242.586 245.234C242.365 244.843 242.076 244.555 241.72 244.368C241.364 244.173 240.977 244.075 240.562 244.075C240.137 244.075 239.747 244.173 239.391 244.368C239.043 244.555 238.763 244.843 238.55 245.234C238.338 245.624 238.232 246.099 238.232 246.66C238.232 247.228 238.334 247.708 238.538 248.098C238.75 248.488 239.03 248.781 239.378 248.976C239.726 249.163 240.108 249.256 240.523 249.256ZM251.81 243.184V250.16H250.652V249.129C250.431 249.485 250.121 249.766 249.722 249.969C249.332 250.164 248.899 250.262 248.424 250.262C247.881 250.262 247.393 250.152 246.96 249.931C246.527 249.702 246.184 249.362 245.929 248.913C245.683 248.463 245.56 247.916 245.56 247.271V243.184H246.706V247.118C246.706 247.805 246.879 248.336 247.227 248.709C247.575 249.074 248.051 249.256 248.653 249.256C249.273 249.256 249.761 249.065 250.117 248.684C250.473 248.302 250.652 247.746 250.652 247.016V243.184H251.81ZM256.235 250.275C255.701 250.275 255.221 250.186 254.797 250.007C254.373 249.821 254.037 249.566 253.791 249.244C253.545 248.913 253.409 248.535 253.384 248.111H254.581C254.615 248.459 254.776 248.743 255.064 248.964C255.361 249.184 255.747 249.295 256.223 249.295C256.664 249.295 257.012 249.197 257.266 249.002C257.521 248.807 257.648 248.56 257.648 248.263C257.648 247.958 257.513 247.733 257.241 247.589C256.969 247.436 256.549 247.288 255.981 247.143C255.463 247.007 255.039 246.872 254.708 246.736C254.385 246.592 254.105 246.384 253.868 246.112C253.639 245.832 253.524 245.467 253.524 245.017C253.524 244.661 253.63 244.334 253.842 244.037C254.054 243.74 254.356 243.507 254.746 243.337C255.136 243.159 255.582 243.07 256.083 243.07C256.855 243.07 257.479 243.265 257.954 243.655C258.429 244.046 258.684 244.58 258.718 245.259H257.559C257.534 244.894 257.385 244.602 257.114 244.381C256.851 244.16 256.494 244.05 256.044 244.05C255.629 244.05 255.298 244.139 255.052 244.317C254.805 244.496 254.682 244.729 254.682 245.017C254.682 245.247 254.755 245.438 254.899 245.59C255.052 245.735 255.238 245.853 255.459 245.947C255.688 246.032 256.002 246.129 256.401 246.239C256.902 246.375 257.309 246.511 257.623 246.647C257.937 246.774 258.204 246.969 258.425 247.232C258.654 247.495 258.773 247.839 258.781 248.263C258.781 248.645 258.675 248.989 258.463 249.295C258.251 249.6 257.95 249.842 257.559 250.02C257.177 250.19 256.736 250.275 256.235 250.275ZM272.81 241.351V250.16H271.652V243.592L268.724 250.16H267.909L264.969 243.579V250.16H263.81V241.351H265.058L268.316 248.633L271.575 241.351H272.81ZM277.817 250.275C277.163 250.275 276.569 250.126 276.035 249.829C275.509 249.532 275.093 249.112 274.787 248.569C274.49 248.017 274.342 247.381 274.342 246.66C274.342 245.947 274.494 245.319 274.8 244.776C275.114 244.224 275.538 243.804 276.073 243.515C276.608 243.218 277.206 243.07 277.868 243.07C278.53 243.07 279.128 243.218 279.663 243.515C280.197 243.804 280.617 244.22 280.923 244.763C281.237 245.306 281.394 245.938 281.394 246.66C281.394 247.381 281.233 248.017 280.91 248.569C280.596 249.112 280.168 249.532 279.624 249.829C279.081 250.126 278.479 250.275 277.817 250.275ZM277.817 249.256C278.233 249.256 278.623 249.159 278.988 248.964C279.353 248.768 279.646 248.476 279.866 248.085C280.095 247.695 280.21 247.22 280.21 246.66C280.21 246.099 280.1 245.624 279.879 245.234C279.658 244.843 279.37 244.555 279.013 244.368C278.657 244.173 278.271 244.075 277.855 244.075C277.431 244.075 277.04 244.173 276.684 244.368C276.336 244.555 276.056 244.843 275.844 245.234C275.632 245.624 275.526 246.099 275.526 246.66C275.526 247.228 275.627 247.708 275.831 248.098C276.043 248.488 276.323 248.781 276.671 248.976C277.019 249.163 277.401 249.256 277.817 249.256ZM286.316 243.057C287.164 243.057 287.852 243.316 288.378 243.834C288.904 244.343 289.167 245.081 289.167 246.049V250.16H288.021V246.214C288.021 245.518 287.847 244.988 287.499 244.623C287.152 244.249 286.676 244.063 286.074 244.063C285.463 244.063 284.975 244.254 284.61 244.636C284.253 245.017 284.075 245.573 284.075 246.303V250.16H282.917V243.184H284.075V244.177C284.304 243.821 284.614 243.545 285.005 243.35C285.403 243.155 285.84 243.057 286.316 243.057ZM292.472 244.139V248.251C292.472 248.59 292.544 248.832 292.689 248.976C292.833 249.112 293.083 249.18 293.44 249.18H294.293V250.16H293.249C292.604 250.16 292.12 250.012 291.798 249.715C291.475 249.418 291.314 248.93 291.314 248.251V244.139H290.41V243.184H291.314V241.428H292.472V243.184H294.293V244.139H292.472ZM299.158 243.057C299.685 243.057 300.16 243.172 300.584 243.401C301.008 243.621 301.339 243.957 301.577 244.406C301.823 244.856 301.946 245.404 301.946 246.049V250.16H300.801V246.214C300.801 245.518 300.627 244.988 300.279 244.623C299.931 244.249 299.455 244.063 298.853 244.063C298.242 244.063 297.754 244.254 297.389 244.636C297.033 245.017 296.854 245.573 296.854 246.303V250.16H295.696V240.74H296.854V244.177C297.084 243.821 297.398 243.545 297.796 243.35C298.204 243.155 298.658 243.057 299.158 243.057ZM304.424 240.028L304.271 242.561H303.469L303.304 240.028H304.424ZM308.334 250.275C307.8 250.275 307.32 250.186 306.896 250.007C306.471 249.821 306.136 249.566 305.89 249.244C305.644 248.913 305.508 248.535 305.483 248.111H306.679C306.713 248.459 306.875 248.743 307.163 248.964C307.46 249.184 307.846 249.295 308.322 249.295C308.763 249.295 309.111 249.197 309.365 249.002C309.62 248.807 309.747 248.56 309.747 248.263C309.747 247.958 309.611 247.733 309.34 247.589C309.068 247.436 308.648 247.288 308.08 247.143C307.562 247.007 307.138 246.872 306.807 246.736C306.484 246.592 306.204 246.384 305.967 246.112C305.737 245.832 305.623 245.467 305.623 245.017C305.623 244.661 305.729 244.334 305.941 244.037C306.153 243.74 306.455 243.507 306.845 243.337C307.235 243.159 307.681 243.07 308.181 243.07C308.954 243.07 309.577 243.265 310.053 243.655C310.528 244.046 310.783 244.58 310.816 245.259H309.658C309.633 244.894 309.484 244.602 309.213 244.381C308.949 244.16 308.593 244.05 308.143 244.05C307.727 244.05 307.396 244.139 307.15 244.317C306.904 244.496 306.781 244.729 306.781 245.017C306.781 245.247 306.853 245.438 306.998 245.59C307.15 245.735 307.337 245.853 307.558 245.947C307.787 246.032 308.101 246.129 308.5 246.239C309 246.375 309.408 246.511 309.722 246.647C310.036 246.774 310.303 246.969 310.524 247.232C310.753 247.495 310.872 247.839 310.88 248.263C310.88 248.645 310.774 248.989 310.562 249.295C310.35 249.6 310.048 249.842 309.658 250.02C309.276 250.19 308.835 250.275 308.334 250.275ZM320.581 250.16L318.468 246.532H317.067V250.16H315.909V241.288H318.773C319.444 241.288 320.008 241.402 320.466 241.631C320.933 241.861 321.281 242.17 321.51 242.561C321.739 242.951 321.854 243.397 321.854 243.897C321.854 244.508 321.676 245.047 321.319 245.514C320.971 245.981 320.445 246.29 319.741 246.443L321.968 250.16H320.581ZM317.067 245.603H318.773C319.401 245.603 319.872 245.45 320.186 245.145C320.5 244.831 320.657 244.415 320.657 243.897C320.657 243.371 320.5 242.964 320.186 242.675C319.881 242.387 319.41 242.242 318.773 242.242H317.067V245.603ZM324.252 242.051C324.031 242.051 323.845 241.975 323.692 241.822C323.539 241.67 323.463 241.483 323.463 241.262C323.463 241.042 323.539 240.855 323.692 240.702C323.845 240.549 324.031 240.473 324.252 240.473C324.464 240.473 324.642 240.549 324.787 240.702C324.939 240.855 325.016 241.042 325.016 241.262C325.016 241.483 324.939 241.67 324.787 241.822C324.642 241.975 324.464 242.051 324.252 242.051ZM324.812 243.184V250.16H323.654V243.184H324.812ZM326.353 246.647C326.353 245.934 326.498 245.31 326.786 244.776C327.075 244.232 327.469 243.812 327.97 243.515C328.479 243.218 329.048 243.07 329.676 243.07C330.219 243.07 330.724 243.197 331.191 243.452C331.657 243.698 332.014 244.025 332.26 244.432V240.74H333.431V250.16H332.26V248.849C332.031 249.265 331.691 249.609 331.242 249.88C330.792 250.143 330.266 250.275 329.663 250.275C329.044 250.275 328.479 250.122 327.97 249.816C327.469 249.511 327.075 249.082 326.786 248.531C326.498 247.979 326.353 247.351 326.353 246.647ZM332.26 246.66C332.26 246.133 332.154 245.675 331.942 245.285C331.73 244.894 331.441 244.597 331.076 244.394C330.72 244.182 330.325 244.075 329.892 244.075C329.459 244.075 329.065 244.177 328.708 244.381C328.352 244.585 328.068 244.882 327.856 245.272C327.643 245.662 327.537 246.121 327.537 246.647C327.537 247.181 327.643 247.648 327.856 248.047C328.068 248.437 328.352 248.739 328.708 248.951C329.065 249.155 329.459 249.256 329.892 249.256C330.325 249.256 330.72 249.155 331.076 248.951C331.441 248.739 331.73 248.437 331.942 248.047C332.154 247.648 332.26 247.186 332.26 246.66ZM341.753 246.405C341.753 246.626 341.741 246.859 341.715 247.105H336.14C336.182 247.792 336.415 248.331 336.84 248.722C337.273 249.104 337.795 249.295 338.406 249.295C338.906 249.295 339.322 249.18 339.653 248.951C339.992 248.713 340.23 248.399 340.366 248.009H341.613C341.427 248.679 341.053 249.227 340.493 249.651C339.933 250.067 339.237 250.275 338.406 250.275C337.744 250.275 337.15 250.126 336.623 249.829C336.106 249.532 335.698 249.112 335.401 248.569C335.104 248.017 334.956 247.381 334.956 246.66C334.956 245.938 335.1 245.306 335.389 244.763C335.677 244.22 336.08 243.804 336.598 243.515C337.124 243.218 337.727 243.07 338.406 243.07C339.067 243.07 339.653 243.214 340.162 243.503C340.671 243.791 341.062 244.19 341.333 244.699C341.613 245.2 341.753 245.768 341.753 246.405ZM340.557 246.163C340.557 245.722 340.459 245.344 340.264 245.03C340.069 244.708 339.802 244.466 339.462 244.305C339.131 244.135 338.762 244.05 338.355 244.05C337.769 244.05 337.268 244.237 336.853 244.61C336.445 244.984 336.212 245.501 336.152 246.163H340.557ZM345.752 250.275C345.217 250.275 344.738 250.186 344.313 250.007C343.889 249.821 343.554 249.566 343.308 249.244C343.062 248.913 342.926 248.535 342.901 248.111H344.097C344.131 248.459 344.292 248.743 344.581 248.964C344.878 249.184 345.264 249.295 345.739 249.295C346.18 249.295 346.528 249.197 346.783 249.002C347.038 248.807 347.165 248.56 347.165 248.263C347.165 247.958 347.029 247.733 346.758 247.589C346.486 247.436 346.066 247.288 345.497 247.143C344.98 247.007 344.555 246.872 344.224 246.736C343.902 246.592 343.622 246.384 343.384 246.112C343.155 245.832 343.041 245.467 343.041 245.017C343.041 244.661 343.147 244.334 343.359 244.037C343.571 243.74 343.872 243.507 344.263 243.337C344.653 243.159 345.098 243.07 345.599 243.07C346.371 243.07 346.995 243.265 347.47 243.655C347.946 244.046 348.2 244.58 348.234 245.259H347.076C347.05 244.894 346.902 244.602 346.63 244.381C346.367 244.16 346.011 244.05 345.561 244.05C345.145 244.05 344.814 244.139 344.568 244.317C344.322 244.496 344.199 244.729 344.199 245.017C344.199 245.247 344.271 245.438 344.415 245.59C344.568 245.735 344.755 245.853 344.975 245.947C345.205 246.032 345.519 246.129 345.917 246.239C346.418 246.375 346.825 246.511 347.139 246.647C347.453 246.774 347.721 246.969 347.941 247.232C348.17 247.495 348.289 247.839 348.298 248.263C348.298 248.645 348.192 248.989 347.98 249.295C347.767 249.6 347.466 249.842 347.076 250.02C346.694 250.19 346.253 250.275 345.752 250.275Z" fill="black"/>
</svg>
