<svg width="12" height="12" viewBox="0 0 12 12" fill="none" xmlns="http://www.w3.org/2000/svg">
<path d="M0 9.71463C0 10.6861 0.742884 11.429 1.71435 11.429H9.71463C10.6861 11.429 11.429 10.6861 11.429 9.71463V5.14304H0V9.71463ZM9.71463 1.1429H8.57173V0.571449C8.57173 0.22858 8.34315 0 8.00029 0C7.65742 0 7.42884 0.22858 7.42884 0.571449V1.1429H4.00014V0.571449C4.00014 0.22858 3.77156 0 3.42869 0C3.08582 0 2.85724 0.22858 2.85724 0.571449V1.1429H1.71435C0.742884 1.1429 0 1.88578 0 2.85724V4.00014H11.429V2.85724C11.429 1.88578 10.6861 1.1429 9.71463 1.1429Z" fill="#4E4E4E"/>
</svg>
