<svg width="14" height="14" viewBox="0 0 14 14" fill="none" xmlns="http://www.w3.org/2000/svg">
<path d="M2.96714 4.02872C2.38031 4.02872 1.90556 3.55397 1.90556 2.96714C1.90556 2.68559 2.01741 2.41558 2.21649 2.21649C2.41558 2.01741 2.68559 1.90556 2.96714 1.90556C3.55397 1.90556 4.02872 2.3803 4.02872 2.96714C4.02872 3.24869 3.91687 3.5187 3.71779 3.71779C3.5187 3.91687 3.24869 4.02872 2.96714 4.02872ZM2.96714 0C1.31873 0 0 1.31873 0 2.96714C0 5.1892 2.96714 8.47942 2.96714 8.47942C2.96714 8.47942 5.93428 5.1892 5.93428 2.96714C5.93428 1.31873 4.61555 0 2.96714 0ZM10.2201 4.02872C9.9386 4.02872 9.66858 3.91687 9.4695 3.71779C9.27041 3.5187 9.15857 3.24869 9.15857 2.96714C9.15857 2.82773 9.18603 2.68969 9.23938 2.56089C9.29273 2.43209 9.37092 2.31507 9.4695 2.21649C9.56808 2.11791 9.6851 2.03972 9.8139 1.98637C9.94269 1.93302 10.0807 1.90556 10.2201 1.90556C10.3596 1.90556 10.4976 1.93302 10.6264 1.98637C10.7552 2.03972 10.8722 2.11791 10.9708 2.21649C11.0694 2.31507 11.1476 2.43209 11.2009 2.56089C11.2543 2.68969 11.2817 2.82773 11.2817 2.96714C11.2817 3.24869 11.1699 3.5187 10.9708 3.71779C10.7717 3.91687 10.5017 4.02872 10.2201 4.02872ZM10.2201 0C8.57174 0 7.25301 1.31873 7.25301 2.96714C7.25301 5.1892 10.2201 8.47942 10.2201 8.47942C10.2201 8.47942 13.1873 5.1892 13.1873 2.96714C13.1873 1.31873 11.8686 0 10.2201 0ZM10.2201 9.2311C9.38275 9.2311 8.63767 9.75859 8.36074 10.5498H4.82655C4.65183 10.0563 4.28861 9.65223 3.81649 9.42606C3.34436 9.19988 2.80183 9.17008 2.30778 9.34319C2.06222 9.42923 1.83602 9.56283 1.64213 9.73635C1.44823 9.90986 1.29044 10.1199 1.17776 10.3544C1.06509 10.589 0.999741 10.8434 0.985462 11.1032C0.971183 11.363 1.00825 11.6231 1.09454 11.8686C1.27163 12.3633 1.63729 12.7679 2.11169 12.994C2.58608 13.2201 3.13066 13.2493 3.6265 13.0752C4.18696 12.8774 4.61555 12.429 4.82655 11.8686H8.36733C8.72998 12.8972 9.86409 13.4378 10.8795 13.0752C11.1258 12.99 11.3529 12.857 11.5476 12.6839C11.7424 12.5107 11.901 12.3007 12.0143 12.0661C12.1277 11.8314 12.1935 11.5766 12.2081 11.3164C12.2227 11.0562 12.1857 10.7957 12.0993 10.5498C11.8158 9.75859 11.0641 9.2311 10.2201 9.2311ZM10.2201 12.1982C9.95784 12.1982 9.70627 12.094 9.52079 11.9086C9.3353 11.7231 9.2311 11.4715 9.2311 11.2092C9.2311 10.9469 9.3353 10.6953 9.52079 10.5098C9.70627 10.3243 9.95784 10.2201 10.2201 10.2201C10.4825 10.2201 10.734 10.3243 10.9195 10.5098C11.105 10.6953 11.2092 10.9469 11.2092 11.2092C11.2092 11.4715 11.105 11.7231 10.9195 11.9086C10.734 12.094 10.4825 12.1982 10.2201 12.1982Z" fill="#4E4E4E"/>
</svg>
