<svg width="54" height="53" viewBox="0 0 54 53" fill="none" xmlns="http://www.w3.org/2000/svg">
<path d="M14.0163 0.123051C7.92115 0.508823 4.21776 2.43767 1.92885 6.44968C1.49165 7.1955 0.900131 8.71287 0.591514 9.81874C0.025718 11.799 0 12.1848 0 26.2526C0 39.5488 0.025718 40.809 0.488642 42.5835C1.80026 47.7785 4.68068 50.7618 9.77285 52.2792C11.1616 52.6907 12.8847 52.7421 26.0009 52.8193C39.9144 52.8964 40.8145 52.8707 43.052 52.3821C48.6328 51.1476 51.7961 48.1386 53.2877 42.5835C53.6992 41.0661 53.7507 39.4716 53.7507 26.5097C53.7507 13.4964 53.6992 11.9533 53.2877 10.436C52.1304 6.1925 50.073 3.44067 46.8582 1.84616C43.4892 0.200203 43.0005 0.148769 29.4471 0.0201797C22.7347 -0.0312576 15.7909 0.0201797 14.0163 0.123051ZM42.2033 3.64642C46.8068 4.70086 49.1986 7.11835 50.1501 11.619C50.7417 14.3708 50.7159 38.7772 50.1244 41.3748C49.25 45.2839 47.6555 47.3413 44.5179 48.6015C41.7403 49.7074 39.6315 49.836 25.4608 49.7331C13.1162 49.6302 12.2418 49.6045 10.5958 49.0902C7.07246 48.01 5.09217 46.1069 3.90914 42.5835C3.36906 40.9633 3.34334 40.5003 3.26619 27.4356C3.18903 13.0592 3.26619 11.619 4.50065 8.79002C5.52937 6.34681 7.79256 4.59798 11.0587 3.74929C12.7047 3.31208 14.0678 3.26065 26.6696 3.26065C38.2684 3.23493 40.7373 3.28637 42.2033 3.64642Z" fill="#12904A"/>
<path d="M17.8803 17.6342C17.1087 18.4057 16.8516 19.2544 16.8516 20.9775C16.8516 23.9608 18.2146 25.6325 20.0663 24.9381C21.8409 24.2437 21.9694 18.3286 20.2463 17.4027C19.4234 16.9655 18.4461 17.0684 17.8803 17.6342Z" fill="#12904A"/>
<path d="M33.2229 17.5863C32.1427 18.7693 31.9112 22.0869 32.7856 23.7843C33.4543 25.1216 34.6631 25.5074 35.6661 24.7359C36.7462 23.9386 37.2863 20.5181 36.6434 18.8207C36.0518 17.2519 34.1487 16.5575 33.2229 17.5863Z" fill="#12904A"/>
<path d="M13.3816 29.571C12.5586 30.394 12.6615 31.1398 13.8188 33.3515C15.4648 36.4891 19.3482 39.241 23.4116 40.1411C27.3465 41.0155 32.2586 40.2954 35.3962 38.3408C38.7653 36.2577 41.7229 31.937 41.0285 30.0853C40.5398 28.7994 38.431 28.6709 38.0452 29.9053C37.1708 32.7086 35.3962 34.6632 32.4644 36.0262C28.5038 37.9293 24.1575 37.6722 20.2998 35.3575C18.4995 34.2774 17.0078 32.6057 16.442 31.0626C15.902 29.5967 15.6448 29.2881 14.7447 29.0823C14.2046 28.9538 13.896 29.0566 13.3816 29.571Z" fill="#12904A"/>
</svg>
