<svg width="27" height="18" viewBox="0 0 27 18" fill="none" xmlns="http://www.w3.org/2000/svg">
<path d="M0 0H26.3376V17.5584H0V0ZM13.1688 4.38959C14.333 4.38959 15.4495 4.85206 16.2727 5.67527C17.0959 6.49848 17.5584 7.61499 17.5584 8.77918C17.5584 9.94337 17.0959 11.0599 16.2727 11.8831C15.4495 12.7063 14.333 13.1688 13.1688 13.1688C12.0046 13.1688 10.8881 12.7063 10.0649 11.8831C9.24166 11.0599 8.77918 9.94337 8.77918 8.77918C8.77918 7.61499 9.24166 6.49848 10.0649 5.67527C10.8881 4.85206 12.0046 4.38959 13.1688 4.38959ZM5.85279 2.92639C5.85279 3.70252 5.54447 4.44686 4.99567 4.99567C4.44686 5.54447 3.70252 5.85279 2.92639 5.85279V11.7056C3.70252 11.7056 4.44686 12.0139 4.99567 12.5627C5.54447 13.1115 5.85279 13.8558 5.85279 14.632H20.4848C20.4848 13.8558 20.7931 13.1115 21.3419 12.5627C21.8907 12.0139 22.635 11.7056 23.4112 11.7056V5.85279C22.635 5.85279 21.8907 5.54447 21.3419 4.99567C20.7931 4.44686 20.4848 3.70252 20.4848 2.92639H5.85279Z" fill="white"/>
</svg>
