<svg width="54" height="53" viewBox="0 0 54 53" fill="none" xmlns="http://www.w3.org/2000/svg">
<path d="M14.7879 0.0978622C12.1132 0.200733 10.3386 0.406479 9.38708 0.715096C4.55209 2.23246 1.5688 5.49865 0.462924 10.5137C0.051436 12.3139 0 14.1399 0 26.6903C0 40.6295 0 40.8609 0.591514 42.8412C1.82598 47.0847 3.5748 49.3736 6.89243 50.9938C10.493 52.7426 11.1616 52.7941 26.9268 52.7941C39.7858 52.7941 41.0717 52.7426 43.1548 52.2797C48.5299 51.0967 51.6418 48.1906 53.1334 42.9441C53.7507 40.8352 53.7507 40.7838 53.7507 26.3045C53.7507 10.0507 53.7764 10.2822 51.8732 6.68167C50.6645 4.34134 49.1214 2.84969 46.8068 1.74382C43.6178 0.200733 42.6662 0.0978622 30.0901 0.02071C23.8663 -0.0307274 16.9739 0.02071 14.7879 0.0978622ZM42.1261 3.56979C45.7009 4.39277 48.1441 6.1416 49.3014 8.7134C50.433 11.3109 50.5616 13.0597 50.5359 26.6646C50.5359 37.4919 50.4588 39.7808 50.1244 41.3238C49.25 45.1558 47.5783 47.2904 44.4922 48.5249C41.7403 49.6308 39.6058 49.7594 25.4608 49.6308C10.9044 49.5279 10.853 49.5279 7.844 47.7534C6.24948 46.8275 5.45222 45.9531 4.50065 44.0757C3.31762 41.7096 3.21475 40.398 3.21475 26.6131C3.21475 12.9312 3.31762 11.3109 4.50065 8.63625C5.19504 7.06745 6.89243 5.37006 8.5641 4.5728C11.3416 3.26118 12.0618 3.20974 26.6953 3.18402C38.3456 3.15831 40.5316 3.20974 42.1261 3.56979Z" fill="#FFB525"/>
<path d="M17.8262 17.4814C16.6947 18.793 16.3603 20.7733 16.9518 22.805C17.4148 24.3481 18.0834 25.0167 19.1636 25.0167C21.4525 25.0167 22.3526 19.6931 20.398 17.6357C19.7294 16.9156 18.392 16.8384 17.8262 17.4814Z" fill="#FFB525"/>
<path d="M33.0706 17.7154C31.3732 19.8757 31.9648 24.4278 33.9965 24.9422C35.8996 25.4051 37.2627 22.8847 36.7997 19.7728C36.414 17.3296 34.3051 16.1723 33.0706 17.7154Z" fill="#FFB525"/>
<path d="M17.67 34.5315C16.3841 35.7402 17.4643 37.309 20.6533 38.9035C24.6653 40.9095 28.6259 40.9095 32.6637 38.9293C36.0327 37.2833 37.1129 35.7659 35.8784 34.5315C35.1326 33.7856 34.6182 33.8885 32.5093 35.1744C28.2402 37.7719 24.331 37.6434 20.3704 34.7629C19.1617 33.8885 18.4416 33.8114 17.67 34.5315Z" fill="#FFB525"/>
</svg>
