<svg width="10" height="76" viewBox="0 0 10 76" fill="none" xmlns="http://www.w3.org/2000/svg">
<path d="M4.875 0.000484467C2.38783 0.000484358 0.371578 2.01673 0.371578 4.50391C0.371578 6.99108 2.38783 9.00733 4.875 9.00733C7.36217 9.00733 9.37842 6.99108 9.37842 4.50391C9.37842 2.01674 7.36217 0.000484575 4.875 0.000484467ZM4.03061 66.9889L-0.000100375 75.4328L9.75009 75.4328L5.71939 66.9889L4.03061 66.9889ZM4.875 4.50391L4.03061 4.50391L4.03061 6.11593L4.875 6.11593L5.71939 6.11593L5.71939 4.50391L4.875 4.50391ZM4.875 9.33997L4.03061 9.33997L4.03061 12.564L4.875 12.564L5.71939 12.564L5.71939 9.33997L4.875 9.33997ZM4.875 15.788L4.03061 15.788L4.03061 19.0121L4.875 19.0121L5.71939 19.0121L5.71939 15.788L4.875 15.788ZM4.875 22.2361L4.03061 22.2361L4.03061 25.4602L4.875 25.4602L5.71939 25.4602L5.71939 22.2361L4.875 22.2361ZM4.875 28.6842L4.03061 28.6842L4.03061 31.9083L4.875 31.9083L5.71939 31.9083L5.71939 28.6842L4.875 28.6842ZM4.875 35.1323L4.03061 35.1323L4.03061 38.3563L4.875 38.3563L5.71939 38.3563L5.71939 35.1323L4.875 35.1323ZM4.875 41.5804L4.03061 41.5804L4.03061 44.8044L4.875 44.8044L5.71939 44.8044L5.71939 41.5804L4.875 41.5804ZM4.875 48.0285L4.03061 48.0285L4.03061 51.2525L4.875 51.2525L5.71939 51.2525L5.71939 48.0285L4.875 48.0285ZM4.875 54.4765L4.03061 54.4765L4.03061 57.7006L4.875 57.7006L5.71939 57.7006L5.71939 54.4765L4.875 54.4765ZM4.875 60.9246L4.03061 60.9246L4.03061 64.1487L4.875 64.1487L5.71939 64.1487L5.71939 60.9246L4.875 60.9246ZM4.875 67.3727L4.03061 67.3727L4.03061 70.5967L4.875 70.5967L5.71939 70.5967L5.71939 67.3727L4.875 67.3727Z" fill="#B4B4B4"/>
</svg>
