<svg width="17" height="19" viewBox="0 0 17 19" fill="none" xmlns="http://www.w3.org/2000/svg">
<path d="M8.23282 0C10.4163 0 12.5103 0.867384 14.0543 2.41134C15.5983 3.95529 16.4656 6.04934 16.4656 8.23282C16.4656 11.0448 14.9325 13.3463 13.317 14.9975C12.5099 15.8135 11.6292 16.5533 10.6862 17.2075L10.2965 17.4728L10.1136 17.5944L9.7687 17.814L9.46134 18.0015L9.0808 18.2229C8.8225 18.3703 8.53023 18.4479 8.23282 18.4479C7.93541 18.4479 7.64313 18.3703 7.38484 18.2229L7.0043 18.0015L6.52863 17.7088L6.35299 17.5944L5.97794 17.3447C4.96058 16.6564 4.01295 15.8702 3.1486 14.9975C1.53313 13.3454 0 11.0448 0 8.23282C0 6.04934 0.867384 3.95529 2.41134 2.41134C3.95529 0.867384 6.04934 0 8.23282 0ZM8.23282 5.48855C7.87244 5.48855 7.51558 5.55953 7.18263 5.69744C6.84968 5.83535 6.54715 6.0375 6.29232 6.29232C6.03749 6.54715 5.83535 6.84968 5.69744 7.18263C5.55953 7.51558 5.48855 7.87244 5.48855 8.23282C5.48855 8.5932 5.55953 8.95006 5.69744 9.28301C5.83535 9.61596 6.03749 9.91848 6.29232 10.1733C6.54715 10.4281 6.84968 10.6303 7.18263 10.7682C7.51558 10.9061 7.87244 10.9771 8.23282 10.9771C8.96064 10.9771 9.65866 10.688 10.1733 10.1733C10.688 9.65866 10.9771 8.96064 10.9771 8.23282C10.9771 7.50499 10.688 6.80698 10.1733 6.29232C9.65866 5.77767 8.96064 5.48855 8.23282 5.48855Z" fill="#FF0000"/>
</svg>
