<svg width="16" height="16" viewBox="0 0 16 16" fill="none" xmlns="http://www.w3.org/2000/svg">
<path d="M6.59211 1.97888C6.40529 1.97888 6.2488 1.91559 6.12265 1.78899C5.99649 1.66239 5.93319 1.5059 5.93275 1.31952C5.93231 1.13314 5.99561 0.976651 6.12265 0.850053C6.24968 0.723455 6.40617 0.660156 6.59211 0.660156H9.22957C9.41639 0.660156 9.5731 0.723455 9.6997 0.850053C9.82629 0.976651 9.88937 1.13314 9.88893 1.31952C9.88849 1.5059 9.8252 1.66261 9.69904 1.78965C9.57288 1.91668 9.41639 1.97976 9.22957 1.97888H6.59211ZM7.91084 9.23189C8.09766 9.23189 8.25437 9.16859 8.38097 9.042C8.50757 8.9154 8.57064 8.75891 8.57021 8.57253V5.93507C8.57021 5.74825 8.50691 5.59176 8.38031 5.4656C8.25371 5.33944 8.09722 5.27615 7.91084 5.27571C7.72446 5.27527 7.56797 5.33857 7.44137 5.4656C7.31478 5.59264 7.25148 5.74913 7.25148 5.93507V8.57253C7.25148 8.75935 7.31478 8.91606 7.44137 9.04265C7.56797 9.16925 7.72446 9.23233 7.91084 9.23189ZM7.91084 14.5068C7.09763 14.5068 6.331 14.3503 5.61098 14.0373C4.89095 13.7244 4.26192 13.2984 3.72388 12.7595C3.18584 12.2206 2.76011 11.5913 2.44669 10.8717C2.13327 10.1521 1.97656 9.38574 1.97656 8.57253C1.97656 7.75931 2.13327 6.99269 2.44669 6.27267C2.76011 5.55264 3.18584 4.92361 3.72388 4.38556C4.26192 3.84752 4.89117 3.42179 5.61164 3.10838C6.3321 2.79496 7.0985 2.63825 7.91084 2.63825C8.59218 2.63825 9.24605 2.74814 9.87245 2.96793C10.4988 3.18772 11.0868 3.50641 11.6362 3.92401L12.0978 3.46245C12.2187 3.34157 12.3725 3.28113 12.5594 3.28113C12.7462 3.28113 12.9 3.34157 13.0209 3.46245C13.1418 3.58334 13.2022 3.73719 13.2022 3.92401C13.2022 4.11083 13.1418 4.26468 13.0209 4.38556L12.5594 4.84712C12.977 5.39659 13.2956 5.98452 13.5154 6.61092C13.7352 7.23731 13.8451 7.89118 13.8451 8.57253C13.8451 9.38574 13.6884 10.1524 13.375 10.8724C13.0616 11.5924 12.6358 12.2214 12.0978 12.7595C11.5598 13.2975 10.9305 13.7235 10.21 14.0373C9.48958 14.3512 8.72318 14.5077 7.91084 14.5068Z" fill="#4E4E4E"/>
</svg>
