<svg width="29" height="6" viewBox="0 0 29 6" fill="none" xmlns="http://www.w3.org/2000/svg">
<path d="M28.3984 2.59766L23.8984 -0.000419855V5.19573L28.3984 2.59766ZM4.79844 2.59766C4.79844 1.27217 3.72392 0.197656 2.39844 0.197656C1.07295 0.197656 -0.00156403 1.27217 -0.00156403 2.59766C-0.00156403 3.92314 1.07295 4.99766 2.39844 4.99766C3.72392 4.99766 4.79844 3.92314 4.79844 2.59766ZM23.5234 2.59766V2.14766L20.2734 2.14766V2.59766V3.04766L23.5234 3.04766V2.59766ZM17.0234 2.59766V2.14766L13.7734 2.14766V2.59766V3.04766L17.0234 3.04766V2.59766ZM10.5234 2.59766V2.14766L7.27344 2.14766V2.59766V3.04766L10.5234 3.04766V2.59766ZM4.02344 2.59766V2.14766H2.39844V2.59766V3.04766H4.02344V2.59766Z" fill="#B4B4B4"/>
</svg>
