<svg width="12" height="12" viewBox="0 0 12 12" fill="none" xmlns="http://www.w3.org/2000/svg">
<path d="M5.71449 0C8.8706 0 11.429 2.55838 11.429 5.71449C11.429 8.8706 8.8706 11.429 5.71449 11.429C2.55838 11.429 0 8.8706 0 5.71449C0 2.55838 2.55838 0 5.71449 0ZM5.71449 2.2858C5.56293 2.2858 5.41758 2.346 5.31041 2.45317C5.20325 2.56034 5.14304 2.70569 5.14304 2.85724V5.71449C5.14307 5.86603 5.2033 6.01136 5.31048 6.1185L7.02482 7.83285C7.1326 7.93694 7.27695 7.99454 7.42678 7.99324C7.57661 7.99194 7.71994 7.93184 7.82589 7.82589C7.93184 7.71994 7.99194 7.57661 7.99324 7.42678C7.99454 7.27695 7.93694 7.1326 7.83285 7.02482L6.28594 5.47791V2.85724C6.28594 2.70569 6.22573 2.56034 6.11857 2.45317C6.0114 2.346 5.86605 2.2858 5.71449 2.2858Z" fill="#4E4E4E"/>
</svg>
