<svg width="21" height="26" viewBox="0 0 21 26" fill="none" xmlns="http://www.w3.org/2000/svg">
<path d="M8.67075 3.24855H5.51775C4.79315 3.24855 4.07564 3.39559 3.4062 3.68129C2.73675 3.96698 2.12848 4.38573 1.61611 4.91363C1.10374 5.44153 0.697307 6.06823 0.420014 6.75796C0.142721 7.44769 0 8.18694 0 8.9335C0 9.68006 0.142721 10.4193 0.420014 11.109C0.697307 11.7988 1.10374 12.4255 1.61611 12.9534C2.12848 13.4813 2.73675 13.9 3.4062 14.1857C4.07564 14.4714 4.79315 14.6185 5.51775 14.6185H8.67075V19.4913H1.5765V22.7398H8.67075V25.9884H11.8238V22.7398H14.9768C16.4401 22.7398 17.8436 22.1409 18.8784 21.0747C19.9132 20.0086 20.4945 18.5626 20.4945 17.0549C20.4945 15.5471 19.9132 14.1011 18.8784 13.035C17.8436 11.9689 16.4401 11.3699 14.9768 11.3699H11.8238V6.49709H18.918V3.24855H11.8238V0H8.67075V3.24855ZM11.8238 14.6185H14.9768C15.6039 14.6185 16.2054 14.8751 16.6489 15.3321C17.0924 15.789 17.3415 16.4087 17.3415 17.0549C17.3415 17.701 17.0924 18.3208 16.6489 18.7777C16.2054 19.2346 15.6039 19.4913 14.9768 19.4913H11.8238V14.6185ZM8.67075 11.3699H5.51775C5.20721 11.3699 4.8997 11.3069 4.6128 11.1844C4.32589 11.062 4.06521 10.8825 3.84562 10.6563C3.62603 10.4301 3.45185 10.1615 3.33301 9.86587C3.21417 9.57028 3.153 9.25345 3.153 8.9335C3.153 8.61355 3.21417 8.29673 3.33301 8.00113C3.45185 7.70553 3.62603 7.43694 3.84562 7.2107C4.06521 6.98446 4.32589 6.80499 4.6128 6.68255C4.8997 6.56011 5.20721 6.49709 5.51775 6.49709H8.67075V11.3699Z" fill="white"/>
</svg>
