<svg width="28" height="28" viewBox="0 0 28 28" fill="none" xmlns="http://www.w3.org/2000/svg">
<path d="M20.375 10.043C23.1844 10.0585 24.706 10.1838 25.698 11.1758C26.8333 12.3111 26.8333 14.1376 26.8333 17.7904V19.0821C26.8333 22.7362 26.8333 24.5626 25.698 25.698C24.5639 26.8321 22.7362 26.8321 19.0833 26.8321H8.75C5.09717 26.8321 3.26946 26.8321 2.13538 25.698C1 24.5613 1 22.7362 1 19.0821V17.7904C1 14.1376 1 12.3111 2.13538 11.1758C3.12738 10.1838 4.64896 10.0585 7.45833 10.043" stroke="#369FFF" stroke-width="2" stroke-linecap="round"/>
<path d="M13.9141 1V17.7917M13.9141 17.7917L10.0391 13.2708M13.9141 17.7917L17.7891 13.2708" stroke="#369FFF" stroke-width="2" stroke-linecap="round" stroke-linejoin="round"/>
</svg>
