<svg width="29" height="36" viewBox="0 0 29 36" fill="none" xmlns="http://www.w3.org/2000/svg">
<path d="M16.125 12.5417H25.9792L16.125 2.6875V12.5417ZM3.58333 0H17.9167L28.6667 10.75V32.25C28.6667 33.2004 28.2891 34.1118 27.6171 34.7838C26.9451 35.4558 26.0337 35.8333 25.0833 35.8333H3.58333C2.63297 35.8333 1.72154 35.4558 1.04953 34.7838C0.377529 34.1118 0 33.2004 0 32.25V3.58333C0 2.63297 0.377529 1.72154 1.04953 1.04953C1.72154 0.377529 2.63297 0 3.58333 0ZM12.4163 18.705C13.1508 20.3175 14.0825 21.6433 15.1575 22.5571L15.8921 23.1304C14.3333 23.4171 12.1833 23.9187 9.90792 24.7967L9.71083 24.8683L10.6067 23.005C11.4129 21.4462 12.0042 20.0308 12.4163 18.705ZM24.0262 25.5312C24.3487 25.2087 24.51 24.7967 24.5279 24.3487C24.5817 23.9904 24.4921 23.65 24.3129 23.3633C23.7933 22.5212 22.4496 22.1271 20.2279 22.1271L17.9167 22.2525L16.3579 21.2133C15.2292 20.2817 14.2079 18.6512 13.4912 16.6267L13.5629 16.3758C14.1542 13.9929 14.7096 11.1083 13.5271 9.92583C13.3824 9.78538 13.2114 9.67505 13.0237 9.60124C12.8361 9.52742 12.6357 9.4916 12.4342 9.49583H12.0042C11.3412 9.49583 10.75 10.1946 10.5887 10.8754C9.92583 13.2583 10.32 14.5662 10.9829 16.7342V16.7521C10.535 18.3288 9.96167 20.1562 9.04792 22.0017L7.32792 25.2267L5.73333 26.1046C3.58333 27.4483 2.56208 28.9533 2.365 29.9029C2.29333 30.2433 2.32917 30.5479 2.45458 30.8704L2.50833 30.96L3.36833 31.5154L4.15667 31.7125C5.60792 31.7125 7.25625 30.0104 9.47792 26.2121L9.80042 26.0867C11.6458 25.4954 13.9392 25.0833 17.0208 24.7429C18.8662 25.6567 21.0342 26.0687 22.3958 26.0687C23.1842 26.0687 23.7217 25.8717 24.0262 25.5312ZM23.2917 24.2592L23.4529 24.4562C23.435 24.6354 23.3813 24.6533 23.2917 24.6892H23.22L22.8796 24.725C22.0554 24.725 20.7833 24.3846 19.4754 23.8112C19.6367 23.6321 19.7083 23.6321 19.8875 23.6321C22.3958 23.6321 23.1125 24.08 23.2917 24.2592ZM6.86208 26.875C5.6975 29.0071 4.64042 30.1896 3.83417 30.4583C3.92375 29.7775 4.73 28.595 6.00208 27.4304L6.86208 26.875ZM12.2729 14.4946C11.8608 12.8821 11.8429 11.5742 12.1475 10.8217L12.2729 10.6067L12.5417 10.6962C12.8462 11.1262 12.8821 11.6996 12.7029 12.6671L12.6492 12.9537L12.3625 14.4229L12.2729 14.4946Z" fill="#EF5350"/>
</svg>
