<svg width="45" height="45" viewBox="0 0 45 45" fill="none" xmlns="http://www.w3.org/2000/svg">
<path fill-rule="evenodd" clip-rule="evenodd" d="M10.1562 33.2517C10.1562 33.0068 10.2536 32.7719 10.4268 32.5986C10.6 32.4254 10.8349 32.3281 11.0799 32.3281H33.2464C33.4914 32.3281 33.7263 32.4254 33.8995 32.5986C34.0727 32.7719 34.17 33.0068 34.17 33.2517C34.17 33.4967 34.0727 33.7316 33.8995 33.9048C33.7263 34.078 33.4914 34.1753 33.2464 34.1753H11.0799C10.8349 34.1753 10.6 34.078 10.4268 33.9048C10.2536 33.7316 10.1562 33.4967 10.1562 33.2517Z" fill="white"/>
<path d="M16.6258 21.2461H12.9314C12.4213 21.2461 12.0078 21.6596 12.0078 22.1697V33.253C12.0078 33.7631 12.4213 34.1766 12.9314 34.1766H16.6258C17.1359 34.1766 17.5494 33.7631 17.5494 33.253V22.1697C17.5494 21.6596 17.1359 21.2461 16.6258 21.2461Z" fill="white"/>
<path d="M24.0087 10.1602H20.3142C19.8041 10.1602 19.3906 10.5737 19.3906 11.0838V33.2503C19.3906 33.7604 19.8041 34.1739 20.3142 34.1739H24.0087C24.5187 34.1739 24.9323 33.7604 24.9323 33.2503V11.0838C24.9323 10.5737 24.5187 10.1602 24.0087 10.1602Z" fill="white"/>
<path d="M31.3993 15.6992H27.7049C27.1948 15.6992 26.7812 16.1127 26.7812 16.6228V33.2477C26.7812 33.7578 27.1948 34.1713 27.7049 34.1713H31.3993C31.9094 34.1713 32.3229 33.7578 32.3229 33.2477V16.6228C32.3229 16.1127 31.9094 15.6992 31.3993 15.6992Z" fill="white"/>
</svg>
